<svg xmlns="http://www.w3.org/2000/svg" width="146.266" height="123.643" viewBox="0 0 146.266 123.643">
  <g id="Group_2950" data-name="Group 2950" transform="translate(-1136.906 -75.793)">
    <path id="Path_1964" data-name="Path 1964" d="M1283.151,174.09a5.509,5.509,0,0,0-.151-1.135c-.013-.05-.027-.1-.041-.154-.917-3.551-4.658-9.157-6.9-10.181a2.243,2.243,0,0,0-.28-.048c0-.006.014-.01.015-.014.223-2.625,1.377-23.3-.654-30h.03c1.306-.011,1.16-2.837.184-2.776-3.968.247-116-.828-117.479-.828-1.937,0-1.147,3.561-.613,3.571l.579.006c-1.72,7.3-1.936,26.64-1.613,29.621-3.361.331-18.194,11.553-19.1,12.083-.43.157-.2,2.124.306,2.335.08.033,1.17.072,2.958.115,0,.38.01.813.016,1.308,0,.076,0,.14,0,.218.007.537.015,1.136.025,1.779,0,.181.006.36.008.549.011.677.023,1.382.038,2.142h0c.19,9.768.7,25.557,2.054,25.959,1.959.586,135.277,1.905,135.667.86.134-.356.449-4.454.806-9.659v0c.032-.473.066-.961.1-1.45,0-.039.006-.076.008-.115q.093-1.386.188-2.833c.01-.157.021-.313.03-.471q.077-1.156.151-2.322c.017-.263.033-.522.05-.782q.09-1.4.177-2.781c0-.041,0-.08.008-.119q.081-1.288.158-2.524c.012-.193.024-.387.036-.576.2-3.254.375-6.108.488-7.978.761,0,1.339-.012,1.526-.021,1.052-.059,1.2-1.952,1.242-3.631C1283.172,174.195,1283.152,174.138,1283.151,174.09Z" transform="translate(0 -16.53)" fill="#ff0"/>
    <path id="Path_1965" data-name="Path 1965" d="M1306.331,129.882s-7.342-1.316-10.238-.265-3.225,6.54-1.264,9.154,1.942,9.856,1.264,10.891-20.92,11.768-22.62,14.7,5.725,6.949,7.182,8.033-.692,3.76,3.058,3.913,18.964-1.759,21.869-1.529,7.447,1.063,10.413-3.1,1.3-5.021,2.286-8.567S1306.331,129.882,1306.331,129.882Z" transform="translate(-42.384 -16.608)" opacity="0.2" style="mix-blend-mode: overlay;isolation: isolate"/>
    <path id="Path_1966" data-name="Path 1966" d="M1262.685,131.5s-1.949,1.929-9.021,2.665a51.434,51.434,0,0,1-13.7,0c-3.842-.449-7.078.01-7.281,1.947s2.368,15.8,1.451,18.325,8.153,10.762,11.645,13.217,4.946,5.588,3.417,6.124-14.373,4.408-19.954,3.5-9.882-.2-14.23-.819-5.06-.111-8.068.819-9.812-.517-9.735-3.005,3.875-11.9,9.735-16.1.916-14.462.509-16.964-3.44-7.639-7.836-8.028-8.066.509-7.875,1.972.114,7.35.726,8.421,1.223.345.764,3.135-.856,4.985-2.683,2.55-.757-4.881-1.751-9.01-.955-9.8-.458-10.308,19.538-.166,19.538-.166Z" transform="translate(-15.885 -16.749)" opacity="0.2" style="mix-blend-mode: overlay;isolation: isolate"/>
    <path id="Path_1967" data-name="Path 1967" d="M1165.882,145.156s4.2,6.464,4.661,10.138,1.019,8.005,2.6,9.535,6.728,6.828,9.136,7.638,3.784.659,3.517,1.977-3.249,2.3-3.4,3.168,1.108,2.508-7.492,2.966-15.061-2.5-16.858-2.512-7.6,1.791-8.447,1.024,2.216-2.8,6.382-4.114,0-5.33.076-7.777S1165.882,145.156,1165.882,145.156Z" transform="translate(-3.902 -21.566)" opacity="0.2" style="mix-blend-mode: overlay;isolation: isolate"/>
    <g id="Group_2930" data-name="Group 2930" transform="translate(1168.271 75.793)">
      <path id="Path_1968" data-name="Path 1968" d="M1247.281,161.289c1.5,1.4,16.019,16.539,16.865,23.892s-9.654,29.171-10.076,31.352,3.735,6.707,3.265,8.862-4.745-1.885-7.047-2.909-4.745-2.074-.517-7.731-1.269-14.006,3.8-23.945c2.114-5.145-12.777-11.1-14.657-15.838S1247.281,161.289,1247.281,161.289Z" transform="translate(-1199.917 -102.376)" fill="#f63"/>
      <path id="Path_1969" data-name="Path 1969" d="M1220.62,161.289c-1.481,1.271-15.9,15.146-17.193,22.4s6.862,29.868,7.1,32.077-3.906,6.372-3.623,8.558,4.5-1.484,6.692-2.313,4.514-1.672,1.014-7.659,2.142-13.85-1.839-24.175c-1.589-5.3,12.539-9.994,14.6-14.562S1220.62,161.289,1220.62,161.289Z" transform="translate(-1188.91 -102.376)" fill="#f63"/>
      <g id="Group_2922" data-name="Group 2922" transform="translate(39.292 22.672)">
        <path id="Path_1970" data-name="Path 1970" d="M1241.462,108.726c2.608.484,15.12,8.115,19.666,10.02s19.7,4.343,20.029,4.507.4,1.892-.276,2.037-16.922.853-20.6.15-13.833-2.974-17.539-5.856S1238.237,108.127,1241.462,108.726Z" transform="translate(-1239.444 -108.696)" fill="#f63"/>
        <path id="Path_1971" data-name="Path 1971" d="M1299.444,136.1c1.261.14,3.057-.42,3.326-1.681a4.474,4.474,0,0,0-2.816-4.454,1.815,1.815,0,0,0-2.594,1.262c-.364,1.039.711,2.3,1.57,3.252C1299.253,134.841,1298.412,135.987,1299.444,136.1Z" transform="translate(-1257.429 -115.257)" fill="#f63"/>
      </g>
      <g id="Group_2925" data-name="Group 2925" transform="translate(23.109 2.615)">
        <g id="Group_2923" data-name="Group 2923" transform="translate(5.19 9.554)">
          <path id="Path_1972" data-name="Path 1972" d="M1229.058,95.3s.671,5.54,1.184,7.285c1.651,5.613-5.375,4.744-5.862.443-.679-6.008-.891-9.57-.891-9.57Z" transform="translate(-1223.49 -93.454)" fill="#f63"/>
        </g>
        <g id="Group_2924" data-name="Group 2924">
          <path id="Path_1973" data-name="Path 1973" d="M1215.981,85.956a5.512,5.512,0,0,1,1.2-2.312,18.574,18.574,0,0,1,1.491-2.462c1.382-1.511,3.591-1.639,5.5-1.584a4.816,4.816,0,0,1,2.566.775,5.889,5.889,0,0,1,2.121,1.53,4.978,4.978,0,0,1,.1,4.852.408.408,0,0,1-.251.171,2.106,2.106,0,0,1-1.251.719,16.453,16.453,0,0,0-3.382.662,5.343,5.343,0,0,0-1.834,1.014,9.637,9.637,0,0,0-1.017,1.662C1218.837,94.514,1215.656,88.2,1215.981,85.956Z" transform="translate(-1215.958 -79.589)" fill="#402532"/>
          <path id="Path_1974" data-name="Path 1974" d="M1220.024,91.973c.972,3.541,5.458,7.519,9.271,5.664,3.418-1.663,2.747-7.264,1.422-9.874-1.667-3.283-3.932-4.309-6.964-3.559S1219.052,88.432,1220.024,91.973Z" transform="translate(-1217.136 -80.951)" fill="#f63"/>
          <path id="Path_1975" data-name="Path 1975" d="M1219.752,84c1.155-1.061,3-2.233,4.619-2.165a9.2,9.2,0,0,1,3.687,1.3,1.558,1.558,0,0,1-.729,2.823c-1.943.311-2.867-.086-3.571.665s.265,1.417-1.691,3.5c-.513.546-.276,1.558-1.045,1.838a3.578,3.578,0,0,1-1.767-.259C1215.4,90.477,1217.807,85.791,1219.752,84Z" transform="translate(-1216.346 -80.287)" fill="#402532"/>
          <path id="Path_1976" data-name="Path 1976" d="M1220.369,96.625c.5.937.826,1.453,1.221,1.241a2.145,2.145,0,0,0,.158-2.4c-.5-.937-1.251-1.161-1.647-.948S1219.864,95.688,1220.369,96.625Z" transform="translate(-1217.177 -84.208)" fill="#f63"/>
        </g>
      </g>
      <g id="Group_2926" data-name="Group 2926" transform="translate(21.31 21.11)">
        <path id="Path_1977" data-name="Path 1977" d="M1240.317,145.145c-.379,1.2-11.9,6.289-19.611,2.013-2.093-2.927-2.792-18.857-4.352-21.2-3.873-5.81-3.649-12.285-1.337-15.824,3.206-4.906,15.934-4.759,20.679-.664,5.581,4.817,3.7,12.513,3.39,14.245S1241.343,141.9,1240.317,145.145Z" transform="translate(-1213.348 -106.428)" fill="#f63"/>
      </g>
      <g id="Group_2927" data-name="Group 2927" transform="translate(0 21.868)">
        <path id="Path_1978" data-name="Path 1978" d="M1209.932,107.53c-4.046.166-24.522,6.185-26.969,11.078s4.2,18.807,4.281,19.5,2.14,1.325,2.37-1.2-1.1-13.817-.7-14.617c1.005-2,13.6-1.42,16.963-3.1S1213.661,107.377,1209.932,107.53Z" transform="translate(-1182.423 -107.528)" fill="#f63"/>
        <path id="Path_1979" data-name="Path 1979" d="M1191.856,158.448c-.663.429-2.529-.962-3.31-2.174-.69-1.07-1.023-4.108.161-5.555.518-.635,2.063-.495,2.725.238.72.8.411,2.312.343,3.523C1191.688,156.052,1192.589,157.973,1191.856,158.448Z" transform="translate(-1184.133 -120.832)" fill="#f63"/>
      </g>
      <g id="Group_2928" data-name="Group 2928" transform="translate(21.9)">
        <path id="Path_1980" data-name="Path 1980" d="M1231.949,82.636c.121.342-2.3,2.856-4.8,3.8-2.9,1.092-5.561.752-5.845,1.015s-2.381,3.745-4.927,5.029c-.768.274.136-.832-.094-1.481s-2.441-4.961-2.02-7.423,2.7-5.1,2.774-5.5c.041-.238-1.96-1.338-1.747-1.577s.524-.808.808-.693,1.143,1.92,1.4,1.962,3.516-1.143,6.2-.149,7.029,4.857,7.45,4.9S1231.878,82.438,1231.949,82.636Z" transform="translate(-1214.205 -75.793)" fill="#f9e3c7"/>
        <path id="Path_1981" data-name="Path 1981" d="M1214.258,84.74a11.884,11.884,0,0,1,1.933-4.163c.551-.625,1.069-1.18,1.22-1,.255.3,1.988,7.627,4.026,8.416,1.268.491,4.694-.358,7.1-1.07a9.128,9.128,0,0,1-1.4.68c-2.9,1.092-5.561.752-5.845,1.015s-2.381,3.745-4.927,5.029c-.768.274.136-.832-.094-1.481S1213.836,87.2,1214.258,84.74Z" transform="translate(-1214.205 -76.958)" fill="#eed9be"/>
        <path id="Path_1982" data-name="Path 1982" d="M1233.046,88.037A7.229,7.229,0,0,0,1236.332,86c.178-.192.466.1.288.289a7.641,7.641,0,0,1-3.465,2.146A.2.2,0,0,1,1233.046,88.037Z" transform="translate(-1220.018 -78.946)" fill="#eed9be"/>
        <path id="Path_1983" data-name="Path 1983" d="M1221.949,78.438a9.61,9.61,0,0,1,5.436,1.087c.231.125.026.477-.206.352a9.284,9.284,0,0,0-5.23-1.032C1221.687,78.86,1221.687,78.452,1221.949,78.438Z" transform="translate(-1216.551 -76.608)" fill="#eed9be"/>
        <path id="Path_1984" data-name="Path 1984" d="M1231.162,80.8a13.434,13.434,0,0,1,1.824,1.577c.182.189-.106.478-.288.289a12.822,12.822,0,0,0-1.742-1.513C1230.745,81,1230.948,80.648,1231.162,80.8Z" transform="translate(-1219.385 -77.339)" fill="#eed9be"/>
      </g>
      <g id="Group_2929" data-name="Group 2929" transform="translate(17.073 59.161)">
        <path id="Path_1985" data-name="Path 1985" d="M1251.96,179.3c.654.177-3.93-8.394-8.364-12.828s-3.38-5.044-5.06-4.771-6.815,2.834-10.23,2.834-8.695-.4-10.107-1.473-12.038,13.555-10.917,14.943,6.626-2.929,17.023,6.033c8.409,7.051,17.431,2.082,21.024-2.123S1250.487,178.9,1251.96,179.3Z" transform="translate(-1207.2 -161.649)" fill="#f9e3c7"/>
      </g>
    </g>
    <g id="Group_2939" data-name="Group 2939" transform="translate(1220.958 78.508)">
      <g id="Group_2931" data-name="Group 2931" transform="translate(0 22.266)">
        <path id="Path_1986" data-name="Path 1986" d="M1304.373,112.074c-2.548.42-14.252,6.966-18.712,8.724s-19.479,3.593-19.807,3.746-.2,2.064.459,2.217,16.455,1.135,20.049.523,13.411-3.156,17.072-5.875S1307.523,111.554,1304.373,112.074Z" transform="translate(-1260.996 -112.047)" fill="#ff9733"/>
        <path id="Path_1987" data-name="Path 1987" d="M1258.912,130.253c-.258-1.036,1.256-2.153,2.192-2.529a3.169,3.169,0,0,1,3.644,1.692c.341.714.748,1.893-.313,2.216a6.226,6.226,0,0,1-2.793-.974C1260.485,129.995,1259.123,131.1,1258.912,130.253Z" transform="translate(-1258.883 -116.882)" fill="#ff9733"/>
      </g>
      <path id="Path_1988" data-name="Path 1988" d="M1322.111,94.808a4.72,4.72,0,0,1-.615-3.949,4.246,4.246,0,0,1,.7-3.817c1.311-1.463,4.035-1.369,5.792-1.156,4.238.512,6.6,3.586,6.629,7.742.02,2.413-.782,5,.5,7.228,1.015,1.767,2.7,3.051,3.21,5.1.518,2.1-.209,3.979-1.177,5.808-1.627,3.074-.525,5.722,1.785,8.034a.413.413,0,0,1-.289.7,8.344,8.344,0,0,1-8.368-5.116c-.43-1.025-.424-2.425-.959-3.43a2.905,2.905,0,0,0-.079.87c0,.281-.356.546-.613.352a8.082,8.082,0,0,1-3.374-6.148c-.079-1.112.056-1.79-.952-2.64-.291-.245-.664-.392-.958-.644a5.275,5.275,0,0,1-1.55-4.175C1321.813,97.891,1322.139,96.361,1322.111,94.808Z" transform="translate(-1278.283 -81.609)" fill="red"/>
      <g id="Group_2932" data-name="Group 2932" transform="translate(34.983 21.561)">
        <path id="Path_1989" data-name="Path 1989" d="M1329.906,151.97s-3.637-5.726-2.184-15.894,7.6-17.048,2.615-21.942-12.755-3.225-15.857-.369c-4.443,4.09-6.43,7.709-3.32,15.048,1.549,3.655.333,16.457,0,18.168S1327.2,158.537,1329.906,151.97Z" transform="translate(-1309.65 -111.024)" fill="#ff9733"/>
      </g>
      <path id="Path_1990" data-name="Path 1990" d="M1306.641,161.987c-3.363-.089-31.906,2.752-34.659,8.562s37,25.586,38.328,27.726.306,10.3,1.019,10.6,3.466-.306,4.078-3.975,3.159-9.276,0-10.092-14.563-12.487-19.087-14.985a26.923,26.923,0,0,0-9.737-3.23c-.024-1.051,12.795,3.053,21.689.478S1318.16,162.293,1306.641,161.987Z" transform="translate(-1262.913 -105.307)" fill="#ff9733"/>
      <g id="Group_2933" data-name="Group 2933" transform="translate(17.315 57.518)">
        <path id="Path_1991" data-name="Path 1991" d="M1321.636,173.682c-3.975,8.612-28.043,14.917-26.719,15.815,8.625,5.846,11.072,20.448,14.13,24.883.662.961,3.606,1.58,3.249,3.21s-1.771,5.633-2.485,6.448-5.708,2.192-6.931,1.172,4.383-2.905,4.332-6.32-23.8-26.045-23.19-32.875,19.877-20.489,27.013-22.426S1324.566,167.332,1321.636,173.682Z" transform="translate(-1284.01 -163.204)" fill="#ff9733"/>
      </g>
      <g id="Group_2934" data-name="Group 2934" transform="translate(17.048 25.373)">
        <path id="Path_1992" data-name="Path 1992" d="M1322.687,128.749c-1.277-3.328-3.771-6.116-10.652-9.48s-7.5-2.918-8.46-2.23-3.363,5.084-2.446,9.059,1.787,4.485,1.938,10.448-.163,10.4-1.509,11.06-12.874,1.185-16.484,2.5c-3.364,1.223.1,2.35.688,6.651,1.249,9.065,9.544,9.047,12.3,13.022s5.8,4.462,9.385,4.689,1.834-3.873,8.257-7.747,8.307-7.849,6.982-12.334-3.192-7.767-2.829-13.723S1323.374,130.539,1322.687,128.749Z" transform="translate(-1283.623 -116.556)" fill="#f9e3c7"/>
      </g>
      <g id="Group_2935" data-name="Group 2935" transform="translate(45.515 12.221)">
        <path id="Path_1993" data-name="Path 1993" d="M1326.3,99.257s-.615,6.051-1.3,7.734c-.645,1.573,4.441,1.718,4.695.072a43.865,43.865,0,0,0,.7-9.593Z" transform="translate(-1324.935 -97.469)" fill="#ff9733"/>
      </g>
      <g id="Group_2936" data-name="Group 2936" transform="translate(42.479 4.696)">
        <path id="Path_1994" data-name="Path 1994" d="M1330.13,95.878c-.858,3.542-4.587,7.593-7.658,5.83-2.753-1.581-2.1-7.166-.972-9.789,1.42-3.3,3.284-4.369,5.739-3.688S1330.988,92.336,1330.13,95.878Z" transform="translate(-1320.528 -87.011)" fill="#ff9733"/>
        <path id="Path_1995" data-name="Path 1995" d="M1323.034,88.41c.016-1.752,4.13-1.927,5.589-1.845a5.324,5.324,0,0,1,4.4,2.873,18.4,18.4,0,0,1,.932,2.773,15.533,15.533,0,0,1,1.122,3.024,6.859,6.859,0,0,1-.41,3.447c-.557,1.428-1.876,2.92-1.034,4.508a.413.413,0,0,1-.46.6,2.907,2.907,0,0,1-2.392-2.216c-.365-1.978.6-2.877.278-4.773-.3-1.791-2.068-2.568-3.294-3.7a21.361,21.361,0,0,1-2.854-3.658C1324.325,88.613,1323.033,88.584,1323.034,88.41Z" transform="translate(-1321.307 -86.549)" fill="red"/>
        <path id="Path_1996" data-name="Path 1996" d="M1334.6,100.631c-.5.937-1.346,1.25-1.742,1.037s-.266-1.249.238-2.186,1.251-1.161,1.647-.948S1335.1,99.694,1334.6,100.631Z" transform="translate(-1324.289 -90.252)" fill="#ff9733"/>
      </g>
      <g id="Group_2937" data-name="Group 2937" transform="translate(39.892)">
        <path id="Path_1997" data-name="Path 1997" d="M1316.776,87.58c-.072.318,2.676,2.295,5.287,2.862,3.02.657,5.607.061,5.926.265s2.882,3.078,5.58,3.945c.8.159-.252-.728-.115-1.331s1.719-4.69.955-6.84-3.391-4.247-3.516-4.6c-.074-.208,1.751-1.408,1.507-1.6s-.632-.664-.9-.529-.861,1.836-1.111,1.9-3.639-.634-6.151.545-6.272,5.1-6.682,5.18S1316.818,87.4,1316.776,87.58Z" transform="translate(-1316.775 -79.734)" fill="#f9e3c7"/>
        <path id="Path_1998" data-name="Path 1998" d="M1336.129,87.585a10.885,10.885,0,0,0-2.5-3.5c-.633-.5-1.224-.934-1.348-.76-.21.294-.9,7.017-2.8,7.944-1.185.577-4.694.2-7.178-.176a10.077,10.077,0,0,0,1.478.453c3.02.657,5.607.061,5.926.265s2.882,3.078,5.58,3.945c.8.159-.252-.728-.115-1.331S1336.893,89.735,1336.129,87.585Z" transform="translate(-1318.494 -80.838)" fill="#eed9be"/>
        <path id="Path_1999" data-name="Path 1999" d="M1322.266,92.6a7.769,7.769,0,0,1-3.537-1.46c-.2-.152-.449.137-.245.289a8.214,8.214,0,0,0,3.73,1.534A.184.184,0,1,0,1322.266,92.6Z" transform="translate(-1317.282 -83.268)" fill="#eed9be"/>
        <path id="Path_2000" data-name="Path 2000" d="M1331.087,82.673a10.166,10.166,0,0,0-5.225,1.565c-.211.136.042.428.253.291a9.82,9.82,0,0,1,5.03-1.493C1331.406,83.02,1331.349,82.657,1331.087,82.673Z" transform="translate(-1319.576 -80.647)" fill="#eed9be"/>
        <path id="Path_2001" data-name="Path 2001" d="M1323.923,85.779a12.223,12.223,0,0,0-1.583,1.606c-.154.188.172.414.326.225a11.673,11.673,0,0,1,1.51-1.539C1324.364,85.911,1324.113,85.618,1323.923,85.779Z" transform="translate(-1318.493 -81.599)" fill="#eed9be"/>
      </g>
      <g id="Group_2938" data-name="Group 2938" transform="translate(29.758 24.336)">
        <path id="Path_2002" data-name="Path 2002" d="M1331.581,119.133c.975,4.247-.708,19.112-5.677,25.458s-16.3,10.46-17.456,10.346a1.047,1.047,0,0,1-.586-1.861c.567-.56,11.047-6.664,13.545-12.016s1.634-16.59,2.857-21.254S1330.006,112.276,1331.581,119.133Z" transform="translate(-1303.754 -115.051)" fill="#ff9733"/>
        <path id="Path_2003" data-name="Path 2003" d="M1302.325,173.011c-.683-.71.142-2.355.792-3.117a3.241,3.241,0,0,1,3.922-.42c.613.41,1.489,1.162.708,1.943a6.529,6.529,0,0,1-2.864.582C1303.581,172.031,1302.884,173.592,1302.325,173.011Z" transform="translate(-1302.069 -131.824)" fill="#ff9733"/>
      </g>
    </g>
    <g id="Group_2949" data-name="Group 2949" transform="translate(1145.581 100.595)">
      <path id="Path_2004" data-name="Path 2004" d="M1166.7,140.618c-1.093,3.722,2.53,12.414,4.612,14.67,3.014,3.268,9.9,6.555,10.962,6.558.714,0,.81-.839.631-1.12-.481-.755-6.536-5.1-8.121-7.683-.965-1.574-1.529-6.806-2.4-10.474C1171.443,138.631,1167.521,137.821,1166.7,140.618Z" transform="translate(-1154.782 -120.235)" fill="#ff9733"/>
      <g id="Group_2940" data-name="Group 2940" transform="translate(0 3.691)">
        <path id="Path_2005" data-name="Path 2005" d="M1149.7,135.429a3.191,3.191,0,0,0,1.424-.984c.735-1.089.052-.679-.555-.907a1.14,1.14,0,0,1-.888-1.071.409.409,0,0,1,.2-.352c.074-.052.354-.147.427-.209.91-.779.307-.644-.1-1.17a1.178,1.178,0,0,1-.265-1.246.412.412,0,0,1,.6-.244c1.185.766,2.1-.416,3.014-1.039.426-.291,1-.421,1.16-1.012.072-.269-.11-.657-.086-.944a1.564,1.564,0,0,1,.409-.98c.706-.8,1.424-.7,1.494-2.079.074-1.437.028-2.552.953-3.777a5.734,5.734,0,0,1,3.332-2.093c2.342-.536,5.222.08,6.233,2.484a4.1,4.1,0,0,1-.145,3.423c-.658,1.269-2.006,1.855-2.864,2.933a4.452,4.452,0,0,0-.17,1.781c.184,1.151,1.108,1.885,1.45,2.921.216.655.012.761-.349,1.244-.231.309-.338.34-.072.774.173.283.446.462.607.77a.414.414,0,0,1-.46.6c-1.51-.21-.781.828-.678,1.291a.413.413,0,0,1-.285.5,8.028,8.028,0,0,1-3.037.041,6.872,6.872,0,0,1-.914-.241q-.765-.25-.447.218c-.037.086.033.334-.026.478a.429.429,0,0,1-.393.3,2.068,2.068,0,0,1-1.369-.65c-1.124-.888-2.341-.073-3.547.29a5.457,5.457,0,0,1-4.649-.345C1149.464,135.987,1149.4,135.558,1149.7,135.429Z" transform="translate(-1149.496 -117.142)" fill="#03f"/>
        <path id="Path_2006" data-name="Path 2006" d="M1156.823,142.932a1.667,1.667,0,0,1,1.034-.42c.262-.013.261.395,0,.408a1.207,1.207,0,0,0-.746.3C1156.915,143.393,1156.625,143.105,1156.823,142.932Z" transform="translate(-1151.753 -125.03)" fill="#ae794c"/>
      </g>
      <g id="Group_2941" data-name="Group 2941" transform="translate(4.641 40.072)">
        <path id="Path_2007" data-name="Path 2007" d="M1173.532,170.015c4.794.637,18.349,5.591,18.157,10.342s-19.336,0-22.109-1.725c-3.256-2.029-4.319-6.7-3.1-7.584S1171.595,169.758,1173.532,170.015Z" transform="translate(-1159.266 -169.938)" fill="#ff9733"/>
        <path id="Path_2008" data-name="Path 2008" d="M1187.92,184.63c-4.721,3.165-23.531.552-25.417,1.5s-3.888,2.619-5.524,2.675-.149-1.016.326-1.521c2.157-2.294,1.24-4.875,3.031-5,.965-.065,1.045.967,2.986.882,1.289-.056,16.005-4.3,19.259-3.314S1189.427,183.62,1187.92,184.63Z" transform="translate(-1156.231 -172.977)" fill="#ff9733"/>
      </g>
      <g id="Group_2943" data-name="Group 2943" transform="translate(4.991 39.637)">
        <g id="Group_2942" data-name="Group 2942">
          <path id="Path_2009" data-name="Path 2009" d="M1166.438,170.45c5.283,1.945,19.176,10.474,17.38,14.985s-22.165-5.375-24.77-7.807c-3.058-2.854-2.727-7.636-1.032-8.146S1164.3,169.665,1166.438,170.45Z" transform="translate(-1156.739 -169.307)" fill="#ff9733"/>
        </g>
      </g>
      <path id="Path_2010" data-name="Path 2010" d="M1170.593,159.826c.319-.922-.506-3.8-.3-6.911s.973-10.449-2.748-13.864-9.583-1.682-10.6,1.223.152,7.508.512,11.212c.216,2.23.615,6.031-.381,8.852S1169.488,163.023,1170.593,159.826Z" transform="translate(-1151.685 -119.678)" fill="#ff9733"/>
      <g id="Group_2944" data-name="Group 2944" transform="translate(3.931 20.383)">
        <path id="Path_2011" data-name="Path 2011" d="M1168.651,141.667c-2.048-.653-5.036-.342-7.992,1.9s-3.852,3.341-4.4,4.168,1.091,7.918.553,10.743-1.507,4.436-1.609,6.1,1.455,3.686,1.455,4.256c0,2.37,2.637,1.825,4.1,4.688s2.854,2.508,4.281.928,3.975-5.352,6.676-5.759,3.517-.26,5.3-1.4,5.1-.023,5.505-2.113-10.856-3.968-11.315-4.558-1.338-4.764-.522-9.178C1171.515,146.957,1170.116,142.135,1168.651,141.667Z" transform="translate(-1155.2 -141.365)" fill="#f9e3c7"/>
      </g>
      <g id="Group_2945" data-name="Group 2945" transform="translate(9.918 9.585)">
        <path id="Path_2012" data-name="Path 2012" d="M1167.749,127.715s-.422,4.586-.335,5.969c.28,4.451-3.866,2.54-3.5-.739.509-4.58,1.1-7.249,1.1-7.249Z" transform="translate(-1163.889 -125.695)" fill="#ff9733"/>
      </g>
      <g id="Group_2946" data-name="Group 2946" transform="translate(6.92 4.458)">
        <path id="Path_2013" data-name="Path 2013" d="M1163.985,124.524c.041,2.777,2.129,6.418,4.709,5.626,2.313-.71,2.769-4.972,2.374-7.113-.5-2.693-1.7-3.8-3.643-3.709S1163.945,121.746,1163.985,124.524Z" transform="translate(-1160.921 -118.587)" fill="#ff9733"/>
        <path id="Path_2014" data-name="Path 2014" d="M1168.42,121.077a16.3,16.3,0,0,1-2.738,2.237c-1.1.635-2.545.914-3.073,2.195-.558,1.355.007,2.186-.6,3.594a2.215,2.215,0,0,1-2.151,1.244.315.315,0,0,1-.242-.523c.894-1.038.165-2.369-.008-3.525a5.236,5.236,0,0,1,.276-2.632,11.9,11.9,0,0,1,1.345-2.059,14.019,14.019,0,0,1,1.16-1.9,4.058,4.058,0,0,1,3.752-1.394c1.1.185,4.126,1.009,3.843,2.315C1169.958,120.756,1168.993,120.559,1168.42,121.077Z" transform="translate(-1159.539 -118.255)" fill="#03f"/>
        <path id="Path_2015" data-name="Path 2015" d="M1162.806,127.607c.216.781.79,1.156,1.12,1.065s.409-.884.192-1.665-.734-1.074-1.064-.983S1162.589,126.826,1162.806,127.607Z" transform="translate(-1160.522 -120.666)" fill="#ff9733"/>
      </g>
      <g id="Group_2947" data-name="Group 2947" transform="translate(6.399 0)">
        <path id="Path_2016" data-name="Path 2016" d="M1172.672,120.125c0,.248-2.377,1.253-4.413,1.235a23.877,23.877,0,0,1-4.449-.8c-.272.1-2.661,1.8-4.814,1.99-.62-.016.31-.5.31-.97s-.486-3.776.444-5.245,3.237-2.585,3.389-2.824c.09-.142-1.064-1.342-.85-1.441s.582-.387.756-.243.33,1.51.5,1.6,2.811.143,4.48,1.444,3.8,4.848,4.093,4.978S1172.672,119.981,1172.672,120.125Z" transform="translate(-1158.783 -111.785)" fill="#f9e3c7"/>
        <path id="Path_2017" data-name="Path 2017" d="M1159.75,117.226a8.316,8.316,0,0,1,2.446-2.181c.554-.262,1.067-.488,1.131-.338.106.254-.519,5.367.741,6.378.783.629,3.456.937,5.365,1.08a7.719,7.719,0,0,1-1.175.088,23.876,23.876,0,0,1-4.449-.8c-.272.1-2.661,1.8-4.814,1.99-.62-.016.31-.5.31-.97S1158.82,118.695,1159.75,117.226Z" transform="translate(-1158.783 -112.679)" fill="#eed9be"/>
        <path id="Path_2018" data-name="Path 2018" d="M1173.127,124.047a5.92,5.92,0,0,0,2.876-.489c.178-.079.31.178.134.256a6.268,6.268,0,0,1-3.031.511A.14.14,0,1,1,1173.127,124.047Z" transform="translate(-1163.193 -115.441)" fill="#eed9be"/>
        <path id="Path_2019" data-name="Path 2019" d="M1167.855,114.786a7.752,7.752,0,0,1,3.62,2.045c.133.137-.1.311-.238.174a7.5,7.5,0,0,0-3.487-1.958C1167.56,114.991,1167.664,114.731,1167.855,114.786Z" transform="translate(-1161.54 -112.716)" fill="#eed9be"/>
        <path id="Path_2020" data-name="Path 2020" d="M1173.859,118.577a9.334,9.334,0,0,1,.906,1.461c.083.166-.2.279-.281.113a8.838,8.838,0,0,0-.863-1.4A.147.147,0,0,1,1173.859,118.577Z" transform="translate(-1163.387 -113.879)" fill="#eed9be"/>
      </g>
      <path id="Path_2021" data-name="Path 2021" d="M1190.089,174.386c.648.008,1.342-1.147,1.4-1.991.052-.746-.8-1.8-2.235-2.071-.631-.119-1.477.143-1.648.72-.187.626.835,1.069,1.38,1.617C1189.7,173.371,1189.624,174.38,1190.089,174.386Z" transform="translate(-1161.338 -129.978)" fill="#ff9733"/>
      <g id="Group_2948" data-name="Group 2948" transform="translate(3.035 18.89)">
        <path id="Path_2022" data-name="Path 2022" d="M1156.58,140.062c-2.448,3.009-3.283,12.025-2.237,14.912,1.515,4.179,11.57,9.174,12.589,9.48s.972-1,.206-1.64-7.924-6.023-8.385-9.021c-.28-1.825,1.2-6.158,2.062-9.828S1158.42,137.8,1156.58,140.062Z" transform="translate(-1153.9 -139.2)" fill="#ff9733"/>
        <path id="Path_2023" data-name="Path 2023" d="M1176.41,175.923c.533-.373.3-1.8-.229-2.583a2.753,2.753,0,0,0-3.243-.52,1.369,1.369,0,0,0-.846,1.6c.279.664,1.414.455,2.235.619C1175.392,175.256,1176.027,176.191,1176.41,175.923Z" transform="translate(-1159.535 -149.564)" fill="#ff9733"/>
      </g>
    </g>
  </g>
</svg>
