<svg xmlns="http://www.w3.org/2000/svg" width="512.098" height="463.862" viewBox="0 0 512.098 463.862">
  <path id="Path_1903" data-name="Path 1903" d="M5048.057,1545.707c.116.16-.138.406.3.561,1.546.555,2.224,2.038,3.44,3.159-1.042.283-1.085-.914-1.839-.736-.22.15-.34.474-.87.313-1.03-1.588-3.284-1.953-4.2-3.717-.672-.008-1.138-.012-1.516-.014-.867-.685-1.31-1.736-2.47-1.836.154-.535-.088-.949.537-1.421.365.127.922.512,1.146.364,1.018-.645,1.56.13,2.383.42C5046.523,1543.354,5047.218,1544.55,5048.057,1545.707Zm-4.5,5.469,2.4,2.566c.438.044.566-.4.865-.568l1.842,1.972c.261.283.536.489.876.115-.614-.658-1.23-1.318-1.842-1.979-.264-.283-.536-.485-.881-.113l-1.7-1.823C5044.716,1551.306,5044.3,1551.259,5043.553,1551.176Zm-6.562-23.161c.375,1.8,2.043,1.378,2.55,2.522l.69-.645C5039.8,1528.042,5037.982,1529.2,5036.991,1528.015Zm-22.751,63.837a.422.422,0,0,0-.7-.026A.422.422,0,0,0,5014.239,1591.852Zm25.875-158.316a.391.391,0,0,0-.582-.137.257.257,0,0,0-.011.235A.388.388,0,0,0,5040.114,1433.536Zm-36.853,156.343c-.042.443-.072.754-.1,1.078.521-.092,1.161.312,1.439-.438C5004.487,1589.668,5003.8,1589.989,5003.262,1589.879Zm51.592-41.816a.387.387,0,0,0,.1.588.393.393,0,0,0,.138-.585A.248.248,0,0,0,5054.854,1548.063Zm-45,43.118c.053-.5-.18-.737-.67-.741l-.357.333a.6.6,0,0,0,.4.72C5009.563,1591.6,5009.665,1591.31,5009.855,1591.181Zm3.678.644a.346.346,0,0,0-.515-.119.22.22,0,0,0-.007.207A.344.344,0,0,0,5013.533,1591.825Zm36.061-36.608,1.86,1.992c.252-.192.453-.343.753-.568l-1.824-1.954C5049.958,1554.64,5049.831,1555.082,5049.594,1555.217Zm5.357-6.561a3.98,3.98,0,0,1-2.241,1.336c.459,1.834,2.311,1.966,3.425,2.982.234-.244.355-.375.482-.506C5054.972,1551.449,5054.737,1550.9,5054.951,1548.656Zm-17.812-106.222.517-.483a1.47,1.47,0,0,0-1.1-1.16l-.517.482A1.475,1.475,0,0,0,5037.139,1442.434Zm19.579-25.351c.149.452.279.856.42,1.277l.5-.468C5057.641,1417.419,5057.417,1417.2,5056.717,1417.083Zm-40.311,36.434,6.383,6.835c.463-.275.149-.678.381-1.178-2.056-1.48-2.631-4.213-4.7-5.757-.007-.945.342-1.957-.906-2.478-.221.1-.541.232-1.044.449l-2.206-2.363c-.213.643.146.843.365,1.107,1.378,1.617,1.378,1.617.093,3.572C5015.408,1453.631,5015.938,1453.569,5016.407,1453.517Zm43.695-37.034a5.481,5.481,0,0,0,2.719-.406l2.2-2.057c-.457-.427-1.229.135-1.265-.913-1.469,1.5-3.549,1.664-4.5,3.643-.006.182.2.426.718.518C5060.014,1417.032,5060.049,1416.805,5060.1,1416.482Zm-49.1,44.774c-.535-.144-.777.054-.811.5C5010.853,1462.168,5010.722,1461.357,5011,1461.256ZM5081.463,1506c1.016-1.31-.323-2.07-.542-2.978-.232-.95-1.417-1.67-2.164-2.469.022-.514.035-.985.059-1.6l-1.445-1.548-1.642-1.758c.533,2.3,1.782,3.91,1.89,6.094.512.881,1.4,1.408,1.881,2.37C5079.877,1504.855,5080.954,1505.15,5081.463,1506Zm-40.107-73.622a.385.385,0,0,0,.137-.583c-.023-.037-.209-.046-.233-.008A.389.389,0,0,0,5041.356,1432.376Zm-1.234,1.162c.941.177,1.35-.2,1.234-1.152Zm-9.979,9.164c-3.162.822-4.879,3.436-7.111,5.406C5026.211,1447.385,5027.869,1444.624,5030.143,1442.7Zm-6.359,18.831q-.47-.1-.408.381C5023.693,1461.982,5023.83,1461.854,5023.784,1461.534Zm9.611-20.83c.381-.1.459.264.72.421.607.067.275-.451.4-.748.227-.008.48-.02.784-.035.917-.262-.2-1.572.866-2.047-.335.116-.669.237-1.521.542l-4.34,4.053C5031.666,1442.559,5032.305,1441.328,5033.4,1440.7Zm-12.731,9.552a.237.237,0,0,0,.008-.205.27.27,0,1,0-.008.205Zm-6.17,4.705-.527-.564c-.476.012-.7.228-.783.909Zm79.3,7.944c.971.371,1.938.749,2.9,1.115l2.252-2.1-2.106-2.256c-.575.235-.9-.51-1.458-.473a1.949,1.949,0,0,1-2.1,1.968Q5093.539,1462.03,5093.792,1462.905Zm-57.513,65.344q.1-.472-.381-.408C5035.833,1528.157,5035.96,1528.294,5036.279,1528.249Zm60.9-49.473c1.021-.5.882-1.144.357-2.1C5096.567,1477.412,5096.744,1478.02,5097.174,1478.776ZM5068.505,1481c-.789-.04-1.139.389-1.536,1l2.149,2.3c.489-.268.952-.525.443-1.03-.653-.64.51-.885.239-1.415C5069.417,1481.521,5069.178,1481.043,5068.505,1481Zm14.13,21.042c.01-.336.025-.667.035-1-.322-.546-.873-.312-1.375-.428-.044.408-.085.791-.1,1C5081.686,1502.276,5082.183,1502.049,5082.636,1502.044Zm18.736-97.462c-.174-.916-.295-1.539-.418-2.179a3.614,3.614,0,0,1-2.07.2c-.01.258-.017.443-.025.67-.259.078-.532.155-.808.237.11.716.852.936,1.068,1.476C5100.016,1405.234,5100.17,1403.708,5101.372,1404.582Zm-19.117,69.926c.032-1.1.065-2.1.1-3.2-.336-.422-.7-.19-1.06.244-.918-.4-1.665-1.809-2.766-.522l-2.142-.9c-.487.017-.888.777-1.554.279-.384,2.085-2.229,2.656-3.148,4.06a3.817,3.817,0,0,0,1.6,2.724c.5.042,1.091-.675,1.665-.308,1.289.823,2.423.315,3.444-.376.647-.438,1.242-.187,2.03-.294Zm-15.5-20.7c.463.005.9.01,1.268.017.6-.486.351-1.069.371-1.588-.519-.642-1.122-.479-1.909-.182C5066.28,1452.781,5067.124,1453.133,5066.751,1453.808Zm-2.3-2.069c.069-.315-.061-.453-.379-.405C5064.007,1451.649,5064.136,1451.787,5064.456,1451.739Zm36.071-14.49,2.206-2.06c-.848.071-1.528.134-2.579.222l-.409.383C5099.646,1436.508,5100.39,1436.579,5100.527,1437.249Zm-37.483,44.358a4.238,4.238,0,0,0-2.475-3.322c-.851-.182-2.359.67-3.511-.128-1.3.639-1.675,2.147-3.157,1.994.293.786-.924,1.232-.612,1.667.315,1.29,1.261,1.582,1.533,2.264a17.372,17.372,0,0,0,5.859-.269Zm-48.276,110.158a.271.271,0,1,0-.007.207C5014.792,1591.952,5014.8,1591.787,5014.768,1591.765Zm107.767-45.991a.393.393,0,0,0-.586-.133.262.262,0,0,0-.008.232A.391.391,0,0,0,5122.534,1545.774Zm9.552,1.13c-1.045-.968-2.427-.875-3.684-1.1a20.27,20.27,0,0,0-2.783-.12c-.311-.271-.635-.562-.96-.847-.693.4-1.611.208-2.121.941A35.688,35.688,0,0,0,5132.086,1546.9Zm50.969-1.108c-.052.083.1.3.167.46l.413-.386C5183.463,1545.657,5183.249,1545.51,5183.055,1545.8Zm-50.384,1.242a.248.248,0,0,0,.007-.232.3.3,0,1,0-.007.232Zm-8.833,35,1.177-1.1c.024-.706.047-1.44.079-2.294-.876.058-1.194-.748-1.742-1.2-.507-.031-.841.549-1.368.306.27,1.182-1.746,1.365-1.125,2.7A3.2,3.2,0,0,0,5123.838,1582.04Zm-13.008-26.848c.056-.619-.273-.743-.617-.934C5109.87,1554.906,5110.241,1555.053,5110.831,1555.192Zm-29.9,23.694c-.519,0-.985-.007-1.651-.017-.646-1.276-2.389-1.292-3.171-2.532-.621-.024-.778.536-1.344.86-.456-.39-.792-.68-1.111-.952-.563.052-.765.526-1.157.846.376,1.663,2.551,1.36,3.009,2.74.536.235.747-.2,1.076-.288.552.027.675.593,1.5,1.126.65.024,1.758.052,2.972.086.408.682.137,1.413-.564,2.123.626.018,1,.032,1.377.044.192-.374-.145-.976.729-1.146a6.8,6.8,0,0,0,2.528,1.193C5084.491,1580.793,5081.9,1580.679,5080.933,1578.886Zm-20.635-17.065c-.449-.576-.854-.6-1.194.053-.12.373.208.491.353.7C5060.026,1562.642,5060.293,1562.377,5060.3,1561.822Zm11.291,7.826c.146-.522.643-.014.87-.446l-1.716-1.838c-.421-.013-.705-.023-1-.034.222,1.127.448,2.24,1.593,2.858C5071.846,1570.194,5071.475,1569.78,5071.589,1569.648Zm-59.968,21.97c0-.524-.2-.714-.594-.771C5010.755,1591.36,5011.084,1591.491,5011.621,1591.618Zm53.144,21.155c-.06.28.054.4.338.362C5065.159,1612.856,5065.046,1612.734,5064.765,1612.772Zm-54.362,10.78a.956.956,0,0,0-.572,1.113c.188.94.707,1.875-.179,2.822,1.22,1.54,3.189.588,4.188,2,.026-1.077.048-1.976.078-3.165l-2.53-2.709C5011.072,1623.6,5010.625,1623.57,5010.4,1623.553Zm-75.4,66.118c-1.135.33-2.332.465-2.926,1.717a1.527,1.527,0,0,0,.824,1.839c-.219.428-.378.729-.621,1.2,1.04-.3,1.962-.561,2.4-.688C4934.783,1692.385,4934.886,1691.124,4935,1689.671Zm114.213-86.889-1.047.977a1.362,1.362,0,0,1-.069,1.713l.685.734a10.981,10.981,0,0,0-.737,2.149,4.071,4.071,0,0,0,.2,2.308c.359.675.324,1.6,1.126,2.044s.322,1.971,1.423,2c.9.019,1.085,1.583,2.206.722a6.55,6.55,0,0,0,3.064-4.987,11.814,11.814,0,0,1,.757-2.164c-1.222-1.308-2.512-2.8-3.921-4.16A4.112,4.112,0,0,0,5049.214,1602.782Zm-144.867,105.053q-.094.477.381.408Q4904.827,1707.775,4904.347,1707.835ZM5110.5,1555.5c1.936,3.409,3.373,6.441,5.6,9.085-.016.56-.028.938-.049,1.542,1.458.945,1.527,3.064,3.058,4.056-.021.6-.04,1.065-.057,1.552l4.789,5.127c.474-1.083-.856-1.158-.928-1.927-.064-.685-.122-1.629-.563-1.966-1.06-.812.2-2.361-1.12-2.949.077-1.076-.716-1.65-1.362-2.264a13.257,13.257,0,0,1-2.908-4.475,3.768,3.768,0,0,0-2.551-2.207C5113.92,1558.894,5112.667,1557.228,5110.5,1555.5Zm-25.867,50.281c.144.325.288.651.428.976-.082.061-.168.126-.254.189l2.89,3.094c.922-1.037.372-2.211.638-3.158C5087.591,1605.074,5085.805,1606.9,5084.632,1605.777Zm-18.718-46.962c.442.012.813.026,1.412.043a22.236,22.236,0,0,0-2.474-2.951,2.78,2.78,0,0,1-2.833-.992C5062.777,1557.03,5065.063,1557.137,5065.914,1558.816Zm-15.6,80.094c-.491.24-.135.661-.335,1.03l8.731,9.349.273-.292-5.463-5.85c.023-.608.037-1.078.062-1.721C5052.479,1640.706,5052.1,1638.929,5050.31,1638.91Zm-68.4,38.349c.281.9.434,1.876,1.313,2.379,1.871.41,1.672-1.078,2.212-1.881l-1.418-1.519C4982.938,1675.931,4982.463,1676.666,4981.915,1677.259Zm85.726-107.426-1.069-.39c-.57.778-.261,1.468-.438,2.229.732-.16,1.059-.714,1.484-1.122C5067.627,1570.215,5067.639,1569.884,5067.641,1569.833Zm16.608-49.344-.88-.943a3.37,3.37,0,0,0-2.223.056c-.878.484-1.5-.8-2.248-.227a.764.764,0,0,1-1.155.007,1.335,1.335,0,0,0-1.283-.019c-1.542,1.44-3.419.8-5.171.946-.007.616.349.737.877.8.789.094,1.683-.282,2.348.466a17.446,17.446,0,0,1,7.639-.651l.668-.624a.761.761,0,0,1,.741.259.428.428,0,0,0,.555.089c-.035,0-.057,0-.092-.007A2.2,2.2,0,0,0,5084.249,1520.489Zm-11.84,8a.392.392,0,0,0-.582-.138c-.039.024-.049.212-.009.234A.391.391,0,0,0,5072.409,1528.488Zm30.863-9.124c-.314-.067-.451.061-.408.381C5103.18,1519.808,5103.316,1519.681,5103.272,1519.364Zm-19.019,1.13a.479.479,0,0,1-.137.153c1.16.131,1.215-.639,2.024-.963-1.067-.2-1.334.383-1.892.8Zm-14.233,7.911a.4.4,0,0,0,.588.141.273.273,0,0,0,.009-.237A.4.4,0,0,0,5070.021,1528.4Zm-1.181-.437.016-.013a3.389,3.389,0,0,0-2.985-.882,3.657,3.657,0,0,0,3.088,1A.731.731,0,0,0,5068.84,1527.968Zm17.952-10.571-1.289,1.2c.546.212,1.01.388,1.474.568.258-.719,1.177.034,1.444-.7C5088.319,1517.584,5087.725,1517.351,5086.792,1517.4Zm-18.319,3.571q.836.065.834-.779A.685.685,0,0,0,5068.473,1520.968Zm1.545,7.439c-.348-.251-.529-.966-1.162-.452.053.043.1.072.157.119-.019,0-.035,0-.054,0C5069.24,1528.376,5069.45,1528.88,5070.018,1528.407Zm4.065.207a1.33,1.33,0,0,0-1.614-.168l1.032,1.105C5074.021,1529.382,5074.407,1529.206,5074.083,1528.615Zm-20.213,29.394a1.147,1.147,0,0,0-.966-1.259C5052.788,1557.569,5053.61,1557.592,5053.87,1558.009Zm5.048-4.6c.276.946,1.107,1.387,1.615,2.043.487-.1.979.219,1.381-.165l-1.741-1.864C5059.813,1553.417,5059.438,1553.411,5058.918,1553.405Zm56.55-52.079c.038-.022.043-.211.007-.232a.379.379,0,0,0-.542.061c.017,0,.032,0,.05,0-.025.023-.05.032-.072.052A.387.387,0,0,0,5115.468,1501.326Zm-9,.77c-.421-.336-.628-.928-1.474-1.084.036.438.065.838.1,1.249C5105.569,1502.167,5106.061,1502.483,5106.464,1502.1Zm-50.949,55.962c-.082,0-.333-.007-.622-.02-.287.871.779.723,1.183,1.24C5055.888,1558.874,5055.706,1558.475,5055.515,1558.059Zm54.161-56.649c-.605-.583-.834.129-1.207.354C5109.083,1502.352,5109.311,1501.639,5109.676,1501.41Zm-1.207.354-.768-.823-1.237,1.155,0,0A1.394,1.394,0,0,0,5108.469,1501.764Zm1.892.3c.48-.1.717-.294.725-.708a1.5,1.5,0,0,0-1.421.064C5109.911,1501.652,5110.155,1501.877,5110.361,1502.064Zm4.522-.876c.016-.02.035-.016.05-.033-.864-.037-1.639-.065-2.4-.091-.383.312-.309.615.158,1.078.626-.345,1.5-.255,2.223-.933Zm-109.392-64.981c-.3-.69-.92-.428-1.521-.533a1.506,1.506,0,0,0,.4,1.73C5004.94,1437.033,5005.461,1436.825,5005.491,1436.208Zm-144.18-67.283a.307.307,0,1,0,.235.008A.265.265,0,0,0,4861.312,1368.924Zm-.954,1.03c.147.191.306.38.44.553.587.012.818-.265.792-.826C4861.21,1369.442,4860.809,1370,4860.358,1369.954Zm60.392-54.106c.018-.528.035-1.12.055-1.665a2.983,2.983,0,0,0-1.225,1.224C4920.042,1316.117,4920.593,1315.77,4920.75,1315.848Zm-49.1,44.2c-.242-1.961.883-4.061-.461-6.187,1.173-.95-.737-2.445.421-3.572-.8-1.135-.611-2.426-.577-3.684l-1-1.071a26.124,26.124,0,0,0-.361,3.38c.066,1-.774,2.1.121,3.048-1.066,1.224.676,2.792-.721,3.993,1.272,1.4,1.115,3.1,1.528,4.695C4871.069,1360.838,4871.189,1360.294,4871.645,1360.05Zm69.781-58.525,2.02-1.887c-.164-.413-.521-.7-.339-1.149-.312-.348-1.022.188-1.025-.524-.229.008-.335-.023-.379.019-.483.436-.958.881-1.449,1.341C4940.638,1300.028,4940.44,1301.032,4941.426,1301.525Zm-22.44,18.289c.262-1.187.518-2.377.781-3.559A2.676,2.676,0,0,0,4918.986,1319.814Zm-48.833,19.372a.221.221,0,0,0-.208-.005.27.27,0,1,0,.208.005Zm.53,6.022a2.288,2.288,0,0,0-.006-.383c-.465.01-.834.328-.619.679C4870.33,1345.948,4870.431,1345.258,4870.683,1345.208Zm31.826-29.065c.183-2.007-.518-3.11-3.464-5.586-.02.342-.042.652-.07,1.106C4900.558,1312.7,4901,1314.774,4902.509,1316.143Zm-32.5,24.266a.423.423,0,0,0,.024-.7A.423.423,0,0,0,4870.008,1340.409Zm-.505.491a1.936,1.936,0,0,0,.007.381c.461-.008.832-.33.617-.678C4869.854,1340.158,4869.754,1340.849,4869.5,1340.9Zm47.862-13.585c.041-.562-.215-.837-.779-.834A.687.687,0,0,0,4917.365,1327.315Zm-27.277,33.758.977-.913c-.159-.221-.286-.4-.4-.557C4890.337,1359.592,4890.3,1359.7,4890.087,1361.073Zm.25-2.535c.491.037.734-.19.734-.685C4890.579,1357.82,4890.335,1358.047,4890.338,1358.538Zm-.181,3.157a.27.27,0,1,0-.2-.007C4889.973,1361.722,4890.138,1361.728,4890.157,1361.695Zm.946-4.893c.058-.278-.057-.4-.338-.362C4890.708,1356.718,4890.821,1356.839,4891.1,1356.8Zm-11.931,7.7a1.3,1.3,0,0,1-.118.122.746.746,0,0,0-.052-.195c-.065.825.139,1.105.643,1.127C4879.883,1365.083,4879.491,1364.916,4879.172,1364.5Zm76.156-49.869c-.311-.066-.447.061-.4.376C4955.238,1315.079,4955.375,1314.951,4955.329,1314.634Zm-23.485,3.188-1.2.516C4930.914,1318.8,4930.914,1318.8,4931.844,1317.822Zm-8.015,7.418c1.159-.239.492-1.359,1.165-1.688a.622.622,0,0,0-.745-.457C4923.6,1323.711,4924.072,1324.476,4923.829,1325.24Zm-44.819,39.009a1.456,1.456,0,0,0,.163.254c.908-.891.487-1.764.686-2.55-.836.1-1.192.765-1.664,1.246,0,.623.611.77.809,1.231C4879.007,1364.365,4879,1364.322,4879.009,1364.249Zm57.436-115.746c-.174-1.928-1.629-2.873-2.57-4-1.105-.292-1.816-.011-2.016.586-.4,1.206-1.856,2.395-.262,3.814.219.2,0,.9-.018,1.356.416.228.6-.21.923-.314.571-.023.629.622,1.313.849A24.677,24.677,0,0,0,4936.445,1248.5Zm83.7,201.632a.348.348,0,0,0-.517-.121.212.212,0,0,0,0,.207A.346.346,0,0,0,5020.142,1450.134Zm-243.6-49.01c.058-.275-.057-.4-.333-.357C4776.149,1401.044,4776.262,1401.166,4776.543,1401.125Zm7.94,6.807c-1.378-1.123-1.988-2.921-3.846-3.611-.826-.31-1.372-1.377-2.039-2.091-.6.349-.968-.687-1.551-.288.463.9,1.658,1.227,1.539,2.425,1.112-.053,1.586.884,2.026,1.57.5.764,1.784.69,1.809,1.89A3.123,3.123,0,0,0,4784.483,1407.932Zm129.378-153.444c.137-.836.875-1.477.369-2.368h0l-.9.84C4913.364,1253.475,4913.058,1254.1,4913.861,1254.489Zm-.265.607q-.417-.086-.36.337Q4913.654,1255.518,4913.6,1255.1Zm.632-2.974a.421.421,0,0,0,.025-.7A.421.421,0,0,0,4914.229,1252.121Zm-.041-.657a1.347,1.347,0,0,0,.546-1.687C4913.788,1250.181,4914.087,1250.819,4914.188,1251.464ZM4777.04,1402.025a.345.345,0,0,0-.516-.119c-.036.018-.04.185-.008.2A.346.346,0,0,0,4777.04,1402.025Zm92.795-66.9c.013.013.008.021.017.037l.023.019c.72-.845.624-1.43.023-2.051.05.822-.719,1.133-1.054,1.692.373.185.727,0,.984.315Zm12.628-13.828c-.062.276.052.4.333.357C4882.854,1321.375,4882.741,1321.253,4882.463,1321.294Zm-12.651,14.531a.411.411,0,0,0,.04-.666c-.006-.013-.018-.015-.023-.025A.417.417,0,0,0,4869.812,1335.825Zm.412,1.6c.212-.423-.13-.578-.412-.943a.089.089,0,0,1-.024.041.538.538,0,0,1-.125-.253v0C4869.561,1337.147,4869.748,1337.406,4870.223,1337.43Zm-.562-1.155a1.632,1.632,0,0,0,.149.212.412.412,0,1,0-.149-.212Zm79.545-81.043c-1.167-1.478-1.335-.015-2.118.051l.744.8C4948.538,1256.049,4948.612,1255.387,4949.207,1255.232Zm-91.125,77.238.864-.807c-.183-.938-1.146-1.3-1.508-2.014-.214-.005-.386-.015-.386-.015-.061.7-.11,1.4-.152,2.017C4857.357,1332.007,4857.509,1332.546,4858.082,1332.47Zm12.155-4.655a1.511,1.511,0,0,1,.075-1.665l-.744-.8a1.441,1.441,0,0,0-1.012,1.719,2.858,2.858,0,0,0,1.24,1.24C4869.965,1328.127,4870.274,1327.894,4870.236,1327.815Zm-49.868,33.674c.428-.627-.312-.512-.375-.781C4819.792,1361.221,4820.084,1361.33,4820.368,1361.489Zm77-53.4a1.152,1.152,0,0,0-1.051-1.126A1.152,1.152,0,0,0,4897.364,1308.084Zm43.728-56.232,2.07-1.933c.214-.665-.984-.981-.01-1.894a5.507,5.507,0,0,0-4.817,1.785C4938.832,1251.192,4939.992,1251.473,4941.092,1251.852Zm-3.864,81.773c-.212-.448-.407-.852-.541-1.133l-.355.332C4936.33,1333.3,4936.554,1333.514,4937.228,1333.626Zm25.1,68.823c-.652-.441-.526.4-.821.477C4962.051,1403.109,4962.264,1402.879,4962.326,1402.448Zm31.195,18.923c-.494-.786-.162-1.62-.255-2.417-.415-.009-.789-.024-1.172-.038C4992.425,1419.8,4992.416,1420.854,4993.521,1421.371Zm42.058-17.545a12.781,12.781,0,0,0,4.236-3.956Zm-54.067-14.018a.684.684,0,0,0,.834-.779C4981.783,1388.988,4981.508,1389.245,4981.511,1389.808Zm36.186-.857c-.036-.967,1.094-1.225,1.457-2.423l-4,3.735C5016.371,1390.282,5016.556,1388.74,5017.7,1388.952Zm-3.3-23a.6.6,0,0,0,.736-.687C5014.633,1365.231,5014.391,1365.457,5014.394,1365.954Zm17.891,41.818c.755-.613,1.77-.618,2.683-1.252a1.543,1.543,0,0,1,.013-1.952,4.748,4.748,0,0,0-.706.372C5033.36,1405.692,5033.231,1406.992,5032.284,1407.772Zm8.958-47.448c.791-.116,1.159-.771,1.6-1.24.12-.407-.205-.523-.484-.942l-1.484,1.386C5040.756,1359.964,5041.08,1360.084,5041.242,1360.323Zm5.4,23.309-1.093-.079c-2.691,2.015-5.419,4.054-8.241,6.161,1.1.488,1.137-.815,1.868-.734.2.126.39.249.588.372.08,0,.207.037.239,0C5041.852,1387.076,5044.909,1386.191,5046.646,1383.633Zm-16.7,38.184c1.262-.112,1.271-1.027,1.258-2.066A1.721,1.721,0,0,0,5029.946,1421.816Zm-52.742,216.94a2.6,2.6,0,0,1,.409,1.5c.935.377,1.581.252,2.064-.573.017-.469.034-1.039.057-1.624C4978.886,1638.075,4977.944,1637.638,4977.2,1638.757Zm74.523-219.835-5.449,5.089c2.7-.072,4.133-1.609,5.745-3.139.37.242.59.382.823.529.542.057.151-.392.313-.561,1.326-.358,2.047-1.459,3.125-2.432C5054.479,1417.994,5053.193,1419.46,5051.727,1418.922Zm-43.055,22.535c-.181.542.044.756.477.821C5009.594,1441.623,5008.752,1441.752,5008.672,1441.457Zm2.511,3.273c-.314-.066-.455.064-.407.381C5011.089,1445.181,5011.229,1445.05,5011.183,1444.73Zm1.686-14.325c.065-.313-.064-.452-.379-.406C5012.421,1430.312,5012.55,1430.45,5012.869,1430.405Zm-3.078,2.24-2.329,2.175C5008.689,1434.617,5009.263,1433.628,5009.791,1432.646Zm-2.964,10.535c1.039-.065.646-.862.765-1.506C5006.591,1442.033,5006.925,1442.673,5006.826,1443.181Zm19.5-22.842c.151-.649-.045-.9-.366-1.041-3.209,1.368-5.341,4.009-8.291,6.579a5.348,5.348,0,0,0,3.61-1.757c.848-.86,1.753-1.665,2.647-2.482C5024.646,1420.977,5025.242,1420.1,5026.327,1420.339Zm-9.95,1.01c-.2-.043-.325,0-.38.124-.023-.394-.051-.79-.043-1.191,0-.045-.014-.091-.013-.142.3.354.859.886,1.122.409.317-.6-.212-1.563-.541-2.033-.86-1.241-3.429-4.913-5.323-3.157-1.383,1.289-1.448,3.868-1.389,5.613a8.865,8.865,0,0,0,.509,2.9,5.132,5.132,0,0,0,1.081,1.748,6.033,6.033,0,0,0-2.271,3.005c-.368.023-.637.034-1.1.059-.243,1.662-1.911,2.357-2.892,3.665.2.251.364.446.6.73l4.379-4.089c.021-.377.053-.93.084-1.48l1.688-1.576a.9.9,0,0,0,.337.055,2.939,2.939,0,0,0,1.206-.421.534.534,0,0,0,.169.079c.219-.192.393-.351.547-.5l.067-.041a3.734,3.734,0,0,0,1.5-1.37,4.009,4.009,0,0,0,.3-2C5016.29,1421.775,5016.417,1421.65,5016.376,1421.349Zm-53.222-92.784c-.179-1.084-1.034-1.564-1.73-2.182C4961.573,1327.494,4962.543,1327.867,4963.155,1328.564Zm-53.539,45.957c-.424-2.019,1.21-3.162,1.409-4.777-.13-.1-.253-.2-.374-.3a1.606,1.606,0,0,0-.427.159c-.406.3-.048.968-.6,1.244-.672.339-.743.965-.772,1.666-.024.519-.157,1.28-.506,1.486-1.247.746-.717,2.114-1.681,3.316C4908.412,1376.6,4908.031,1374.621,4909.616,1374.521Zm51.3-49.206c.335-1.4-.434-2.048-1.41-2.668C4959.169,1324.05,4959.939,1324.7,4960.911,1325.315Zm1.886,4.645,2.561,2.742a7.752,7.752,0,0,0-2.508-4.239C4962.821,1329.236,4962.809,1329.613,4962.8,1329.96Zm4.308,5.15a3.194,3.194,0,0,0-1.678-1.926A2.553,2.553,0,0,0,4967.1,1335.11Zm-56.038,24.136c.217-.5-.62-.762-.173-1.455-.732.219-1.317.395-2.19.653l1.037,1.11C4910.213,1359.529,4910.555,1359.031,4911.067,1359.246Zm14.157-10.7c.01.028.007.053.015.082a1.566,1.566,0,0,1,.124.205c.116-.99-.093-1.284-.634-1.309-.243.473.148.641.467,1.048Zm-1.238,1.157,1.155,1.237a3.068,3.068,0,0,0,.1-2.312c-.015-.02-.028-.034-.043-.055Zm.726,3.415c1.235-.652,1.235-.652.429-2.178C4924.294,1351.531,4924.395,1352.272,4924.711,1353.116Zm43.708-14.883a.384.384,0,0,0,.051-.374.564.564,0,0,0,0,.064,1.928,1.928,0,0,0-.166-.252.385.385,0,0,0-.119.555C4968.208,1338.266,4968.4,1338.273,4968.42,1338.233Zm-3.479,22.544c-.011-.588-.019-1.162-.027-1.853-1.435.567-1.707,1.951-2.5,2.907.117.284.236.565.359.866l-1.114,1.04c.051.747-.342,1.56.486,2.417C4963.3,1364.358,4963.033,1361.98,4964.941,1360.776Zm10.449-11.87a1.624,1.624,0,0,0-1.276-1.331A1.624,1.624,0,0,0,4975.391,1348.906Zm10.229,15.522a2.509,2.509,0,0,0-.98-1.868c-.422-.5-.895-.964-1.443-1.551.248-.395.389-.613.531-.837-1.014-1.706-2.349-3.221-3.366-4.871-.2-.324-.416-.62-.631-.917a1.058,1.058,0,0,1,.208-.19c-.45-.729-.45-.729-.7-.884,0,.111-.011.262-.012.4-.837-1.054-1.759-2.04-2.739-3.183-.081,1.245.93,1.432,1.106,2.148-.149.309-.3.621-.451.924a44.022,44.022,0,0,1,3.69,5.565C4981.986,1361.018,4983.791,1362.469,4985.62,1364.428Zm8.36-35.293a.684.684,0,0,0-.777-.833C4993.161,1328.861,4993.417,1329.136,4993.98,1329.135Zm-58.8,40.228c1.488-1.171,2.655-2.384,2.832-4.273.068-.719.845-1.048.963-1.835a10.844,10.844,0,0,0,.042-1.363l-2.587,2.417c-.081.115.818.32.387.949a16.824,16.824,0,0,0-1.975,3.1C4934.677,1368.761,4934.779,1368.934,4935.18,1369.363Zm33.142-31.72a.416.416,0,0,1,.149.215c.093-.925-.113-1.216-.641-1.243-.241.474.151.641.473,1.055A.067.067,0,0,1,4968.322,1337.644Zm-3.851,59.965.407-.381a.676.676,0,0,0-.459-.812c-.378-.118-.491.212-.706.355C4963.652,1397.339,4963.916,1397.607,4964.472,1397.609Zm2.437-61.823a.306.306,0,1,0-.234-.01A.254.254,0,0,0,4966.908,1335.786Zm-29,40.577c.8-.71,1.309-.99,1.532-1.545a1.351,1.351,0,0,1-.853-.937c-.208.123-.405.242-.744.448-.736-.535-1.224-1.678-2.9-1.2l-.467.436a3.168,3.168,0,0,0,1.783,1.448C4936.81,1375.171,4937.879,1374.973,4937.911,1376.363Zm-210.117,238.116c-.453.158-.808.28-1.025.353-.034.112-.152.46-.3.871A1.606,1.606,0,0,0,4727.794,1614.479Zm4.175-4.161c-.811.12-1.875.476-1.958,1.212-.118.991-1.114,1.178-1.253,2,1.546.109,2.278-1.145,3.245-1.885.01.433.024.883.035,1.38l1.383,1.481c1.554.533,2.276-1.112,3.559-1.475,1.431-.4.927-2.375,1.95-3.341a3.265,3.265,0,0,0-2.17-1.153l.257-.24c1.273-1.189,2.366-2.773,3.865-3.453,1.484-.669,2.264-2.228,3.953-2.561.619-.119,1.1-.951,1.637-1.455.425.013.84.025,1.33.046l4.482-4.185c-.205-.575-.739.013-1-.456-1.394,2.05-3.812,2.553-5.141,4.237-.54-.037-.64-.554-1.157-.3-2.04,2.275-5.1,3.562-7.167,6.019-1.353.361-2.22,1.377-3.272,2.36-.3.012-.591.019-.887,0l-.716.668c-.137-.035-.28-.07-.383-.094a.941.941,0,0,0-.492.912l-.1.1C4731.967,1610.191,4731.97,1610.259,4731.969,1610.318Zm47.213-94.442c.065-1.1.017-2.1.69-2.874-1.229-.749-2.415-.409-3.563-.827C4775.183,1514.921,4778.113,1514.667,4779.183,1515.876Zm-2.379,104.212-.042,1.222c.973-.363,1.415-1.282,2.172-1.677.012-.412.025-.738.041-1.223C4778,1618.777,4777.561,1619.693,4776.8,1620.089Zm-7.469-109.268a9.438,9.438,0,0,1,.265,3.612,3.864,3.864,0,0,1,1.752,2.743c.771.114.938-.454,1.327-.687-.141-.833-.753-1.687.128-2.461a3.812,3.812,0,0,1-.323-2.387c-.51-.549-1.021-1.1-1.147-1.232l-1.543-.425C4769.308,1510.262,4769.245,1510.583,4769.334,1510.821Zm-8.241,3.322c.546.571,1.357.094,1.513.934l.8-.749A1.462,1.462,0,0,0,4761.093,1514.143Zm33.449,91.76-1.845-.729c-.48.87.333,1.26.057,1.822C4793.537,1607,4793.671,1606.191,4794.542,1605.9Zm.352-41.1c.278.057.4-.057.362-.338C4794.977,1564.407,4794.855,1564.521,4794.894,1564.8Zm-17.851,46.827c-1.717.325-1.5,2.2-2.425,3.059A4.072,4.072,0,0,0,4777.043,1611.629Zm16.676-46.666c-1.009.625-1.874,1.261-1.5,2.551.516.513,1.007.252,1.427.361l1.352-1.263C4794.794,1565.9,4794.193,1565.576,4793.719,1564.963Zm-30.2-50.624,1.085,1.163C4764.347,1514.458,4764.347,1514.458,4763.519,1514.339Zm-4.715-1.668c-.917.4-.914.8-.375,1.284a.68.68,0,0,0,.8-.457C4759.337,1513.1,4759.016,1512.987,4758.8,1512.671Zm12.54-60.58c-.3.246-.612.459-.292.981.631.489,1.464.163,2.372.317C4772.936,1452.139,4771.838,1452.711,4771.344,1452.09Zm-78.355,60.422c.313.068.453-.062.409-.381C4693.085,1512.068,4692.945,1512.2,4692.989,1512.512Zm66.982-61.186a8.184,8.184,0,0,1-2.215-.347c1.346,1.312,2.8,2.406,4.736,2.383a3.091,3.091,0,0,1,2.243,1.034c.511-.816,1.491-.785,2.369-1.306-.7-.712-1.755.02-2.194-.812-1.03.306-1.339-1.167-2.437-.917A14.129,14.129,0,0,1,4759.971,1451.326Zm-57.778,61.163c-.49-.719-1.1-.4-2.024-.611l1.255,1.344A.7.7,0,0,0,4702.193,1512.488Zm6.137-.027-.008.008c1.1.243,1.982.84,3.291.38a2.911,2.911,0,0,1,3.479.9c.418-.314.774-.575,1.134-.84,1.054.617,2.064-.2,3.153-.056-1.069-.97-2.062-1.954-3.594-1.959-.562,0-1.115-.033-1.679-.053C4712.094,1510.776,4710.8,1511.131,4708.331,1512.461Zm13,.225c-.062.319.067.458.384.411C4721.784,1512.785,4721.655,1512.647,4721.334,1512.686Zm39.5-43.427c.278.06.4-.052.359-.335C4760.916,1468.866,4760.795,1468.979,4760.835,1469.259Zm-53.06,43.046a.256.256,0,0,0-.008.235.388.388,0,0,0,.555-.072h0l.012-.007c.01-.01.021-.007.031-.02A.4.4,0,0,0,4707.775,1512.3Zm134.758,90.769c.015-.473.023-.721.035-1.005l-1.766-1.89c-.464-.013-.7.575-1.172.31-.033.868-1.25,1.225-.885,2.489.6.352.78,1.578,2.28,1.4C4841.658,1604.2,4841.954,1603.359,4842.534,1603.074Zm-21.038,5.438c.144.655.276,1.258.409,1.876.648.021,1.206.62,2.013.467l1.452-1.357c-.027-.695-.059-1.5-.092-2.334-.513.1-.782-.584-1.362-.912Zm-45.716,14.251a6.8,6.8,0,0,0-1.91,1.549c-.113.414.17.516.626,1.186C4774.319,1624.041,4775.49,1623.8,4775.78,1622.763Zm38.05-6.564a1.939,1.939,0,0,1-.228,2.6c1.043.236,1.777-.338,2.608-.033l1.512-1.412c.018-.624.04-1.2.059-1.777l-.658-.7c-.436-.181-.64.529-1.093.281-.114-.109-.228-.224-.381-.368C4814.919,1614.984,4814.551,1615.682,4813.83,1616.2Zm9.845-.168c-.693-.1-.824.512-1.188.636-.233.479.116.718.287.97.031.624-.607.693-.854,1.379,0,.362.005,1.012.014,1.961l1.533-1.432C4823.075,1618.488,4824.641,1617.331,4823.675,1616.03Zm4.876-3.829c1.238-.026.625-1.015,1.031-1.755C4828.283,1610.915,4828.661,1611.64,4828.552,1612.2Zm-9.262,16.647a.421.421,0,0,0,.027-.7A.421.421,0,0,0,4819.29,1628.848Zm-1.294,1.289a.633.633,0,0,0,.693.634c.628-.479.369-1.287.64-1.88Zm-61.759-180.1c-.5.313.28.425.339.709a1.813,1.813,0,0,0,.432-.009C4757,1450.219,4756.632,1449.8,4756.236,1450.04Zm63.08,178.1a.344.344,0,0,0,.119-.515.228.228,0,0,0-.2-.007A.344.344,0,0,0,4819.315,1628.141Zm9.167-12.784a.631.631,0,0,0-.372-.04c.085-.13.178-.284.3-.309a2.356,2.356,0,0,0,0-.433c-.534.012-.956.375-.709.771a.274.274,0,0,0,.049.056c-.376.118-.757.245-1.072-.187a6.139,6.139,0,0,0-.455,2.752c1.38.251,1.77-.833,2.5-1.313C4828.621,1616.165,4828.91,1615.728,4828.482,1615.357Zm-6.225-31.483c-.693.26-.417,1.176-.953,1.584-.073.41.364.72.313,1.177-.158.151-.314.293-.471.442-.11.1-.1.333-.145.5l1.067.038a1.869,1.869,0,0,1,.275-.777c.9.106.477.454.75.575,1.629-.326,1.761-.378,3.229-2.7a2.841,2.841,0,0,1,1.133-.4c.149-.52-.117-.679-.289-.89a.7.7,0,0,0-.182-.03c0-.177-.09-.28-.317-.247a.319.319,0,0,0,.038.294,2,2,0,0,0-.51.448c-.668-.321-1.516-.315-2.188-.989A2.981,2.981,0,0,1,4822.257,1583.874Zm-5.407,8.355c.318.063.457-.066.412-.385C4816.947,1591.778,4816.809,1591.907,4816.85,1592.229Zm13.179,15.88-.227.212c-.084.128-.17.27-.287.293a2.324,2.324,0,0,0,.007.43c.524-.01.941-.374.7-.771C4830.15,1608.149,4830.086,1608.107,4830.029,1608.108ZM4804.7,1597.4c.313.068.451-.061.406-.379C4804.79,1596.954,4804.651,1597.083,4804.7,1597.4Zm12.832-4.859a2.923,2.923,0,0,0,1.757,1.882A2.923,2.923,0,0,0,4817.528,1592.538ZM4786,1632.8c-1.647.839-1.152,2.526-1.8,3.667l1.108,1.186c.161.426-.218.588-.353.915.13.747,1.34,1,1.063,1.874,1.668,1.035,3.416.33,5.273.231,1.657-.759.7-3.123,2.213-4.114a2.194,2.194,0,0,1,.088-2.426c-.558-.581-1.229-1.085-1.1-1.847-1.151-.041-2.206-.076-3.654-.123A3.947,3.947,0,0,1,4786,1632.8Zm44.831-29.01c.233,1.5-.553,2.832-1.094,4.594l.069-.065c.074-.109.146-.21.227-.212l1.473-1.375c.135-.771-.121-1.632.535-2.306l-.842-.9C4830.845,1603.419,4830.782,1603.512,4830.827,1603.791Zm-9.761-4.285c-1.325,1.1-1.325,1.118-.089,2.609C4822.087,1600.739,4822.087,1600.739,4821.065,1599.506Zm-1.976-2.812a.684.684,0,0,0,.78.834C4819.909,1596.968,4819.652,1596.693,4819.089,1596.694Zm75.294-325.751c-.079.955.577,1.885.805,3.514,1.223-2.9.522-5.3.786-7.9-.948.611-.719,1.7-1.5,1.99-.064.562.451.691.649,1.054C4895.278,1270.213,4894.505,1270.269,4894.384,1270.944Zm-139.9,141.933a.422.422,0,0,0,.7.024A.422.422,0,0,0,4754.488,1412.877Zm-12.332-2.516.862-.056C4742.583,1409.753,4742.583,1409.753,4742.156,1410.361Zm13.2,2.361c-.006.36-.011.7-.021,1.291.4-.319.572-.453.724-.577C4756.069,1412.921,4755.8,1412.74,4755.356,1412.721Zm-4.114-.836c.629,1.076.629,1.076,2.541.966C4753.206,1411.822,4751.915,1412.671,4751.242,1411.885Zm50.918,221.45c.525,2.066.525,2.066.139,3.252,0,.086-.041.193,0,.246a4.6,4.6,0,0,1,.583,3.154l-3.08,2.876-1.1-.945a4.13,4.13,0,0,1-3.8,1.464c.19.309.31.509.445.73-.187.871-1.18,1.826-.709,2.581.6.961-.873,1.661-.161,2.226.577.717.848.143,1.175.069.6.043.7.933,1.439.769a7.215,7.215,0,0,0,3.784-2.369c.053-1.549.107-3.124.16-4.713.208-.555.73-.827,1.144-1.206,1.034.081,2.11-.111,3.073.459.836-1.129,1.965.86,2.762-.546.083.584.123.88.164,1.156,1.839.248,1.839.248,2.951-.409.2.124.393.246.661.421l2.57-2.4c.573-2.208-.124-4.132-.007-5.928.33-.61.832-.279,1.23-.519.4-.6.193-1.3.249-1.966-1.422-.243-2.141,1.032-3.583,1.1l-1.375-1.472c-.2-.568.534-1.14.467-1.983l2.011-1.877-1.836.467c-.526-.879-.5-1.748-1.176-2.166.207-.329.333-.524.5-.79l-1.536-1.645q-2.59.121-5.526.26l-1.441,1.346c.276,1.338-.536,2.533-1.232,3.575a13.633,13.633,0,0,0-2.192,4.631C4799.974,1633.635,4801,1632.367,4802.161,1633.335Zm33.938-243.551q-.089.42.336.36Q4836.518,1389.729,4836.1,1389.784Zm-61.959,28,.956,1.023C4774.867,1417.89,4774.867,1417.89,4774.139,1417.783Zm-16.92-4.646a.6.6,0,0,0-.4.834c.654.492,1.441.188,2.31.3C4758.615,1413.392,4757.771,1413.536,4757.219,1413.137Zm8.071,3.066a2.17,2.17,0,0,1,1.22.792c.846-.011,1.746-.02,2.648-.03.572.811,1.475.871,2.11,1.313.3-.2.409-.488.771-.384.253.222.547.481.835.729.556-.084.779-.577,1.165-.85-.571-1.327-2.013-1.13-2.932-1.2s-1.5-1.4-2.518-.572a5.4,5.4,0,0,0-2.571-.451,4.209,4.209,0,0,1-1.069-.416,12.357,12.357,0,0,0-5.926-1.047C4760.821,1415.645,4763.088,1415.87,4765.291,1416.2Zm-81.483,67.679-1.094-.037a15.065,15.065,0,0,0,5.26,4.762c.151-.181.439-.265.341-.75-.751-.484-2.134-.6-2-2.091C4685.022,1485.777,4684.765,1484.458,4683.808,1483.882Zm69.976-71.032a.425.425,0,0,0,.7.026A.425.425,0,0,0,4753.783,1412.851Zm-24.917-6.3c-.4-.071-.628.1-.863.649.425.019.776.039,1.313.064C4729.09,1406.9,4728.971,1406.715,4728.866,1406.554Zm73.952-84.061.852.913c.854.126.882-.685,1.533-1C4804.135,1321.638,4803.432,1321.494,4802.818,1322.493ZM4672,1473.6c-.646.4-.457.965-.349,1.579.763.59,1.84.813,2.363,1.818a.964.964,0,0,0,.282-1.159c-.318-.365-.282-.734-.3-1.364C4673.012,1474.62,4672.663,1473.775,4672,1473.6Zm69.106-98.527a2.952,2.952,0,0,0,1.762,1.887A2.952,2.952,0,0,0,4741.1,1375.077Zm72.229-53.6c-.486-.184-.957-.372-1.447-.567-.043.129-.174.316-.122.394.283.441.834.675.752,1.4a4.209,4.209,0,0,0,.971,3.78,3.1,3.1,0,0,0,.983,3.437c.979,1.005.847,2.689,2.435,3.3.045-1.089.084-2.027.128-3.015-1.168-.694-1.241-2.081-1.913-3.095.17-.242.323-.455.58-.816-1.333-.794-1.23-2.531-2.413-3.4C4813.3,1322.369,4813.316,1321.9,4813.333,1321.475Zm-82.836,85.463c-.42.013-.617.2-.692.8.385-.1.74-.193,1.157-.3Zm86.138-73.6c-.047.6-.382,1.154,0,1.5.5.406.753.18,1.025-.169C4817.812,1333.935,4816.993,1333.764,4816.635,1333.334Zm11.715-7.072c-.069.313.06.45.381.408C4828.792,1326.354,4828.665,1326.217,4828.35,1326.263Zm-78.685,69.273-2.111-2.26c-.237.613-.44,1.138-.638,1.658l.607.65C4748.349,1395.569,4749.033,1395.553,4749.665,1395.536ZM5016.1,1528.559a.482.482,0,0,0,.8.026A.482.482,0,0,0,5016.1,1528.559Zm-208.244,39.55c-1.076.854-1.076.854-.365,1.357C4807.579,1569.149,4807.684,1568.753,4807.859,1568.109Zm-28.807-25.97c-.348.495-.923.625-.869,1.193.479,1.416,1.879-1.275,2.39.374l.019-.534c.2-.3.7.216.841-.4C4780.82,1541.678,4779.734,1542.649,4779.052,1542.139Zm52.764-161.02a3.61,3.61,0,0,0-1.449,1.107c-.018.571-.036,1.142-.059,1.721l1.037,1.11q.793-.007,1.708-.005a1.827,1.827,0,0,0-.684-1.884c.194-.375.524-.437.415-.819l-.732-.191C4831.684,1381.914,4831.821,1381.487,4831.816,1381.119Zm-19.5,202.671c.1.48.291.72.708.728a1.526,1.526,0,0,0-.064-1.427C4812.73,1583.345,4812.5,1583.585,4812.315,1583.791Zm59.715-197.931a.476.476,0,0,0,.03-.8A.476.476,0,0,0,4872.03,1385.86ZM4813,1582.314a.475.475,0,0,0-.03.8A.475.475,0,0,0,4813,1582.314Zm146.971,40.368c.591.784.112,1.774.5,2.587s.059,1.636.151,2.563l2.064,2.211,2.269-2.119c-.029-.832.5-1.927-.62-2.642-.191-.446.221-.637.376-.933-.661-1.043-.747-2.426-1.894-3.1.023-.546.036-1.01.056-1.573l-2.79-2.986c-.571-.069-.688.561-1.437.782-.642.055-.7-1.327-1.64-1.287l-2.071,1.934c-.06.776.708.195.932.559a4.789,4.789,0,0,0,.656.719c1.062-.154,1.276-1.725,2.807-.876.052.494.086,1.358.21,2.135C4959.652,1621.334,4961.242,1621.777,4959.971,1622.682Zm-204.542-172.639a.259.259,0,0,0-.008.232.308.308,0,1,0,.008-.232Zm262.3,77.774-.822.768c2.809-.079,2.809-.079,4.028-.762-1.316-.794-2.521-1.3-3.977-.832Zm-237.212,6.066c-.066.312.063.45.379.406C4780.959,1533.974,4780.83,1533.836,4780.513,1533.883Zm93.326-158.3c.107.356.216.71.316,1.035C4874.853,1376.393,4874.647,1376.015,4873.839,1375.578Zm-1.617,6.213a1.552,1.552,0,0,0,.222,2.072c.282-.642.517-1.191.717-1.646C4872.789,1381.616,4872.543,1381.654,4872.222,1381.791ZM5014.909,1515.8c.254,1.04.254,1.04,1.082,1.158ZM4872.2,1384.472a.27.27,0,0,0-.235-.008.307.307,0,1,0,.235.008Zm143.911,132.506a.4.4,0,0,0,.583.139c.039-.024.046-.211.008-.235A.39.39,0,0,0,5016.107,1516.978Zm9.574,2.895c.057-.279-.056-.4-.338-.362C5025.286,1519.789,5025.4,1519.91,5025.682,1519.873Zm1.042.387c.058-.278-.056-.4-.336-.36C5026.33,1520.176,5026.442,1520.3,5026.724,1520.26Zm-67.279,93.6,1.942-1.813c.315-1.419.617-2.791,1-4.508-.118-.383-.919-.885-.809-1.665a9.724,9.724,0,0,0-7.037-2.067c-.373.385-1.042.711-.74,1.354.884,1.89.424,3.792.114,5.64l2.793,2.991C4957.6,1613.019,4958.463,1614.046,4959.445,1613.865Zm59.989-94.98c.312.069.451-.061.405-.378C5019.526,1518.439,5019.386,1518.569,5019.434,1518.885Zm-143.874,145.638a.308.308,0,1,0,.234.009A.276.276,0,0,0,4875.561,1664.523Zm-17.975,22.639c-1.318-.357-1.98-1.953-3.641-1.844A4.152,4.152,0,0,0,4857.586,1687.163Zm8.233-7.426a2.262,2.262,0,0,0,0,.433c.527-.009.947-.374.706-.771C4866.219,1678.9,4866.1,1679.679,4865.819,1679.737Zm-7.511,7.82c.009.527.375.946.768.7.5-.308-.278-.424-.339-.709A2.205,2.205,0,0,0,4858.309,1687.557Zm17.211-21.844a.262.262,0,0,0,.234.006.308.308,0,1,0-.234-.006ZM4900.4,1706.5c.317.071.456-.06.406-.38C4900.5,1706.052,4900.355,1706.182,4900.4,1706.5Zm-34.89-24.952a.4.4,0,0,0,.141-.587c-.026-.038-.212-.045-.236-.008A.4.4,0,0,0,4865.509,1681.544Zm17.584-17.967c.068-.313-.059-.45-.379-.407C4882.651,1663.485,4882.779,1663.622,4883.094,1663.577Zm-16.7,15.607a.483.483,0,0,0,.028-.8A.483.483,0,0,0,4866.39,1679.184Zm-1.453,2.919a2.34,2.34,0,0,0,0,.43c.533-.007.956-.371.71-.767C4865.339,1681.264,4865.223,1682.043,4864.938,1682.1Zm-39.887,8.7c.01.536.374.951.77.71.5-.31-.278-.424-.338-.709A2.151,2.151,0,0,0,4825.05,1690.8Zm41.506-13.01a.263.263,0,0,0-.234-.01.307.307,0,1,0,.234.01Zm-22.4,3.626a.686.686,0,0,0-.779-.834A.686.686,0,0,0,4844.156,1681.421Zm-15.814,10.7,1.5,1.6a1.556,1.556,0,0,1,1.909.043C4831.786,1692.643,4830.119,1691.738,4828.341,1692.124Zm-2.3-.744a.391.391,0,0,0,.587.133c.04-.02.046-.2.009-.231A.4.4,0,0,0,4826.041,1691.379Zm13.308-12.316,1.084,1.161C4840.176,1679.184,4840.176,1679.184,4839.349,1679.064Zm68.6-52.964c-.57-.062-.834.205-.84.76l.381.408a.687.687,0,0,0,.815-.462C4908.424,1626.43,4908.1,1626.316,4907.949,1626.1Zm-32.349,37.215a.26.26,0,0,0,.237.01.308.308,0,1,0-.237-.01Zm-25.665,20.324c.481,1.188,1.562.633,2.11,1.353C4851.887,1683.625,4851,1683.582,4849.935,1683.64Zm26.129-23.076c-.03.708-.056,1.441-.08,1.986C4876.68,1662.042,4876.5,1661.3,4876.064,1660.563Zm-29.432,22.7,1.378-.268C4847.561,1682.248,4847.561,1682.248,4846.633,1683.262Zm56.73-45.435c-.238.543-.479,1.1-.707,1.627.281.3.34.421.409.422a2.591,2.591,0,0,0,.487-.042c.385-.228.325-.6.365-.951A.968.968,0,0,0,4903.363,1637.827Zm-8.823,65.646c-.588.046-.83.245-.863.7C4894.266,1704.456,4894.415,1704.092,4894.54,1703.473Zm48.847-62.992c-.023.649-.041,1.289-.062,1.9l1.34,1.434,1.885-1.761c.328-1.36-.91-1.9-1.57-2.765C4944.2,1639.494,4943.89,1640.113,4943.387,1640.481Zm-4.632,1.24.187.2c-.047-1.123-.439-1.486-1.092-1.641-.123.653.414.888.875,1.468Zm-114.166-10.578c-1.072.462-.737,1.18-.622,1.913A1.524,1.524,0,0,0,4824.589,1631.143Zm118.326,16.923c-1.069-1.006-2.147-2-3.261-2.954,0-.143-.013-.281-.006-.4.033-.653.057-1.3.085-1.94l-.792-.848a1.672,1.672,0,0,1,.018.174,2.469,2.469,0,0,0-.234-.347l-1,.931a3.67,3.67,0,0,1,.271,1.081c-.756-.593-1.527-1.164-2.333-1.69l-.468.438c-.755-.021-.865-.92-1.461-1.109-.337-.067-.439.2-.619.346,1.5,1.33,3.378,2.18,4.617,3.816a4.8,4.8,0,0,0,.45.5,2.866,2.866,0,0,0,1.178,1.995c.313-.4-.07-.758-.15-1.123,1.133.837,2.365,1.536,2.963,2.85.584.012,1,.018,1.572.027a10.562,10.562,0,0,1,1.23,1.345c1.009,1.528,2.841,2.072,3.986,3.463.491-.219.187-.67.313-1.007l-3.537-3.787c-.224.142-.421.258-.672.415-1.2-.294-.9-1.287-.894-2.164Zm58.577-36.749c.319.068.454-.058.406-.38C5001.587,1610.874,5001.452,1611,5001.492,1611.317Zm-106.156,92.435a.906.906,0,0,0,.411,1c.86-.024,1.59-.04,2.219-.055C4897.4,1703.87,4896.028,1704.911,4895.336,1703.752Zm-22.671-9.581a4.52,4.52,0,0,0,3.4,1.817c.974-.059,1.1,1.474,2.1.766-.886-1.683-2.972-1.518-4.207-2.7A1.1,1.1,0,0,0,4872.666,1694.171Zm6.244,1.891-.743.693,1.329,1.422c.429.16.643-.258,1.069-.391,1.055,1.2,2.805,1.183,4.066,2.158a.8.8,0,0,0,1.021-.134c-.7-1.408-2.613-1.338-3.253-2.752C4880.89,1697.748,4879.874,1696.821,4878.91,1696.062Zm-19.613-7.94c.439.843,1.247.613,2.187.686,1.148,1.659,3.211,2.376,4.938,3.563.572.4,1.435.108,2.243.542.738.391,1.209,1.027,1.845,1.372.509.156.755-.684,1.25-.248.29.254.541.536.907.133-.744-1.2-2.136-1.506-3.178-2.3-.226.121-.455.252-.779.428-1.594-1.73-4.117-2.278-5.63-4.265C4861.834,1688.133,4860.558,1687.742,4859.3,1688.122Zm26.356,11.688c.535.256.591,1.4,1.567.846C4886.682,1700.4,4886.625,1699.256,4885.652,1699.811Zm.738-40.566c1.991,1.67,3.027,3.985,5.477,4.7.181-.242.273-.364.48-.637C4890.686,1661.714,4889.5,1659.519,4886.391,1659.245Zm43.454-10.647,1.4,1.5c.22-.128.506-.229.5-.3-.122-1.041-.605-2.083.527-3.063C4929.846,1646.218,4930.805,1648.323,4929.844,1648.6Zm10.288,3.751a.667.667,0,0,0-.749.484c-.1.375.218.495.435.813C4940.7,1653.235,4940.815,1652.842,4940.132,1652.348Zm-47.977,49.875c-.038.559.219.834.776.831C4892.972,1702.5,4892.716,1702.223,4892.155,1702.223Zm-4.938-1.568,0,0,1.281,1.372c.647.311,1.688-.181,2.568.762-.449-1.767-2.47-1.379-2.775-2.675C4887.647,1700.014,4887.525,1700.486,4887.217,1700.655Zm11.616,4.991c.314.067.453-.063.407-.381C4898.926,1705.2,4898.788,1705.327,4898.833,1705.646Zm-50.31-76.194a.478.478,0,0,0-.027.8A.478.478,0,0,0,4848.522,1629.452Zm0-3a1.533,1.533,0,0,0,.054,1.406.8.8,0,1,0,.008.016c.231-.251.46-.494.642-.694C4849.136,1626.7,4848.94,1626.456,4848.526,1626.448Zm.024,2.2a.478.478,0,0,0-.028.8A.478.478,0,0,0,4848.55,1628.653Zm2.375-5.711c-.46-.041-.688.173-.841.659.122.153.266.334.415.524,0-.043,0-.075,0-.118a3.377,3.377,0,0,1,.2.352c.245-.265.472-.514.72-.786C4851.211,1623.308,4851.059,1623.111,4850.925,1622.943Zm13.88-8.311c.316.068.454-.061.408-.381C4864.9,1614.185,4864.762,1614.314,4864.806,1614.631Zm-14.112,9.735c-.067-.085-.127-.162-.194-.241-.04,1.355-.063,2.257-.086,3.107l.844.9c.306.037.373-.075.319-.328-.245-1.063-.138-2.232-.876-3.448Zm-20.776,25.364c.149.454.284.858.424,1.276l.5-.469C4830.848,1650.06,4830.617,1649.847,4829.918,1649.731Zm32.345-30.884c-.282.632-1.215.793-1.225,1.759,2.018-1.018,2.462-3.02,3.069-4.846l-1.793,1.675C4862.3,1617.907,4862.277,1618.378,4862.263,1618.847Zm-13.668,12a.306.306,0,1,0-.237-.013C4848.379,1630.879,4848.569,1630.884,4848.595,1630.848Zm-23.547,19.858c.145.471.291.944.45,1.468a2.968,2.968,0,0,0,1.368-1.3l-.785-.841C4825.544,1650.018,4825.406,1650.5,4825.048,1650.706Zm15.15-27.915c.438.478.88.949,1.268,1.364.2,0,.309.031.355-.012.727-.663,1.446-1.341,2.289-2.127-.743-.936-.225-1.857-.435-2.788l-.942-1.008c-1.141-.1-2.059.629-2.882,2.358-.262.4.4.6.3,1.022a5.37,5.37,0,0,0-.047.986A.765.765,0,0,0,4840.2,1622.791Zm11.215-1.829a.68.68,0,0,0-.831.776A.68.68,0,0,0,4851.414,1620.962Zm-30.448,20.331a.393.393,0,0,0-.141.584.259.259,0,0,0,.236.008A.392.392,0,0,0,4820.966,1641.293Zm-28.086,23.14c-.647.508-1.214,1.111-1.791,1.651-.026.616-.048,1.191-.085,1.97a7.629,7.629,0,0,0,2.063-2.321,10.691,10.691,0,0,1,1.7-2.539l-.477-.51C4793.115,1662.719,4793.488,1663.95,4792.88,1664.433Zm31.165-31.425-.991.925a4.61,4.61,0,0,0,.083,2.239l1.025-.957C4823.548,1634.524,4824.44,1633.747,4824.045,1633.007Zm-.909,3.163c-1.162,1.523-2.286,3.056-2.173,5.116C4822.349,1639.865,4823.788,1638.461,4823.136,1636.171Zm10.848-9.689c-.109-.2-.22-.407-.419-.772,1.487-.94,1.841-2.9,3.438-3.806a1.426,1.426,0,0,1,.1-1.868c-1.945.8-2.555,2.657-3.783,4.02l.384.629c-.077.777-1.164.94-1.224,1.934-.032.523-.971.993-1.553,1.537l-1.955-2.094-1.7,1.585c.015.738.7,1.434.571,2.59a6.4,6.4,0,0,1,2.312-1.2,2.171,2.171,0,0,0,1.505.422C4832.916,1628.794,4833.231,1627.473,4833.984,1626.481Zm-13.292,16.694-1.729,1.615c.181.253.322.46.466.658C4820.864,1645.217,4820.654,1644.23,4820.691,1643.176Zm-.288-.5a.392.392,0,0,0,.092.594.4.4,0,0,0,.141-.585A.249.249,0,0,0,4820.4,1642.672Zm51.023-28.862c.766-.044,1-.69,1.78-1.127C4871.983,1612.539,4871.822,1613.329,4871.427,1613.81Zm-9.715,20.288c.043.6.092,1.246.14,1.931-.033,0,.229.07.243.032.322-.7,1.309-.472,1.587-1.073.408-.873,1.092-.123,1.545-.387a6.382,6.382,0,0,0,.953-.773c-.09-.676-.549-.876-.839-1.205-.676-.133-.782.752-1.434.754-.175-.122-.394-.273-.625-.439C4862.57,1633,4862.31,1633.712,4861.712,1634.1Zm11.976-.071a5.305,5.305,0,0,0-2.608-.8l-1.8,1.685a13.37,13.37,0,0,1,1.3,2.7,4.094,4.094,0,0,0,1.454-.046,1.584,1.584,0,0,1,1.214-.229C4872.97,1636.15,4873.874,1635.215,4873.688,1634.027Zm-39.371,43.056c.313.068.453-.063.406-.38C4834.41,1676.635,4834.271,1676.765,4834.317,1677.082Zm53.828-48.52c.059-.277-.055-.4-.336-.361C4887.75,1628.48,4887.864,1628.6,4888.145,1628.562Zm-3.648-5.664c.038,1.046-1.32,2.068.12,2.95.241-.358.66.021,1.008-.227-.119-.259-.258-.569-.437-.966l1.279-1.193c.026-.767.05-1.414.074-2.2C4885.6,1621.6,4885.125,1622.394,4884.5,1622.9Zm-31.95,30.142c-.837.314-.321,1.3-.868,1.729.318.584.874.3,1.3.452.471-.443,1.093-.7,1.219-1.366a.908.908,0,0,0-.824-.441A3,3,0,0,1,4852.546,1653.04Zm30.59-25.795c-.01.459-.02.926-.032,1.48l-2.519,2.352c.061.646.134,1.374.231,2.335l.516.553c.571.073.952-.639,1.547-.345.2-.42-.245-.609-.326-.94.732-.875.85-2.115,1.809-2.743-.244-.406-.376-.634-.541-.9l.893-1.019a2.659,2.659,0,0,1-.131-2.123Zm-9.351,16.845c.311.067.451-.064.406-.379C4873.878,1643.643,4873.738,1643.773,4873.785,1644.09Zm.464-1.979c.318.063.455-.064.408-.381C4874.346,1641.663,4874.209,1641.79,4874.249,1642.11Zm13.508-12.506q.082-.415-.337-.36Q4887.336,1629.659,4887.757,1629.6Zm-51.4,47.12c-.589.048-.832.247-.864.7C4836.08,1677.706,4836.231,1677.345,4836.353,1676.724Zm-23.141,6.8-1.228-1.314-1.864,1.741c-.01.335-.024.713-.041,1.1.387.223.494.9,1.054.8.539-.093.75.51,1.26.468l.892-.833C4813.269,1684.949,4813.239,1684.3,4813.212,1683.527Zm35.152-41.928c-.093-1.2.243-2.035-.4-2.92C4847.59,1640.32,4847.59,1640.32,4848.364,1641.6Zm.089-7.167c-.414-.02-.623.205-.755.678.175.215.385.472.6.739a.474.474,0,0,0-.015.781.482.482,0,0,0,.025-.8l0,.009A1.517,1.517,0,0,0,4848.453,1634.433Zm-9.215,44.617a.4.4,0,0,0-.589-.136c-.037.023-.044.211-.006.234A.393.393,0,0,0,4839.237,1679.05Zm9.042-42.414a.389.389,0,0,0-.14.586.264.264,0,0,0,.234.007A.391.391,0,0,0,4848.28,1636.636Zm-18.494,31.465s0,.242.006.383c.465-.01.832-.333.621-.681C4830.138,1667.36,4830.036,1668.052,4829.786,1668.1Zm.506-.494a.347.347,0,0,0,.12-.515.231.231,0,0,0-.207-.01A.347.347,0,0,0,4830.292,1667.607Zm241.415-120.974a7.245,7.245,0,0,0,1.773-4.806c1,.419,2.051-.542,1.27-1.922-2.485-4.4-7.886-6.5-12.2-3.107-3.64,2.859-4.4,7.666-.96,11.108C5064.542,1550.863,5069.232,1549.592,5071.707,1546.633Zm-47.226-104.353c-.6-2.809-2.1-5.67-4.435-6.517-.275-.439-.745-1.067-1.156-.849-.194.1-.238.333-.206.6a5.555,5.555,0,0,0-2.672.684,16.792,16.792,0,0,0-3.023,2.022,6.79,6.79,0,0,0-1.661,1.483c-.581,1.051.833,2.739,1.625,3.279a7.456,7.456,0,0,0,1.985.92,1.237,1.237,0,0,0,.285.187,8.4,8.4,0,0,0,6.247.478,4.8,4.8,0,0,0,2.37-1.62C5024.315,1443.338,5024.708,1443.341,5024.481,1442.28Zm-178.055-90.641-.606.565c-.937.875.843,3.639,1.987,2.571l.606-.567C4849.35,1353.335,4847.57,1350.571,4846.426,1351.639Zm-39.713,32.9a15,15,0,0,0,5.1,8.494c3.092,2.318,6.66,1.733,9.813-.18.559-.338-.3-1.8-.515-2.11-1.6-2.377-3.391-4.634-5.107-6.937a4.483,4.483,0,0,0-.712-1.8,31.782,31.782,0,0,0-2.266-2.409c-.207-.277-.38-.437-.5-.458-1.586-1.376-3.461-2.434-4.852-1.311C4805.809,1379.324,4806.239,1382.5,4806.713,1384.536Zm-27.988,33.211c3.238,2.027,7.477,3.88,11.371,3.4.427-.051-.295-1.576-.352-1.692a14.123,14.123,0,0,0-2.434-3.216,4.941,4.941,0,0,0-.172-.6,3.127,3.127,0,0,0-1.256-1.642c-.661-.325-1.36-.731-2.077-1.119-.056-.031-.117-.063-.171-.1a7.458,7.458,0,0,0-3.131-1.039,2.011,2.011,0,0,0-1.031.251,4.921,4.921,0,0,0-1.968-3.228c-.788.024-1.72.051-2.856.091l-1.161,1.085a6.389,6.389,0,0,0,.056,1.811c.165.566.964.9.684,1.7,1.079-.2,1.353.815,2.051,1.283.525.093.686-.5.928-.6a.506.506,0,0,1,.583-.042c-.148.32-.278.639-.392.923C4777.1,1415.759,4778.125,1417.375,4778.726,1417.748Zm-1.785,165.246c-1.34,1.753.089,5.11.7,6.855.2.572,1.131,1.937,1.938,1.343,1.637-1.2,4.222-2.873,4.443-5.142.163-1.679-.807-3.015-1.892-4.176-1.237-1.325-2.279-.129-1.9,1.071C4779.09,1582.313,4777.768,1581.91,4776.941,1582.993Zm3.1-147.241a30.032,30.032,0,0,1,3.646,5.111q1.156,1.8,2.419,3.546c2.211-.808,2.946-1.963,2.226-3.473-.945.442-1.083,1.449-1.918,2.094.033-.924.064-1.853.1-2.9l.87-.813c-.181-.395-.324-.707-.542-1.184a1.365,1.365,0,0,0,.63.107c-.9-5.892,4.59-7.844,9.286-10.981q-.868-.663-1.738-1.34c-.594-.455-1.771-2.166-.774-2.8,2.185-1.381,3.978-3.145,6.124-4.455-5.566-3.949-8.209-11.366-.991-15.878,2.806-1.755,5.526,1.969,6.79,3.834a13.418,13.418,0,0,0,4.232,4.206.877.877,0,0,1-.106-.523c.561,0,.814.271.779.834-.067,0-.116-.018-.175-.025a13.53,13.53,0,0,0,6.027,1.356c5.818.141,12.569-4.456,4.193-10.925-.631-.482-1.737-2.117-.772-2.8,2.256-1.592,7.413-1.243,12.971-.779-.428-1.227-.846-1.671-3.25-3.808-.288.087-.471.462-.887.274-.517-.32-.027-1.114-.586-1.456.653-1.183-.355-1.95-.729-2.871-.117-.286-.549-.535-.527-.771a4.619,4.619,0,0,0-1.938-4.044c.583-.193-.017-.665.674-.829a22.724,22.724,0,0,1,2.208,3.984c.407,1.243,1.547,1.98,1.786,3.257.123.673.956.108,1.326.776-.216.864.881,1.412.83,2.376,1.415.127,1.839,1.3,2.628,2.016a3.194,3.194,0,0,1-1.021,1.139c2.031.17,4.1.348,6.1.446l-.664-.711c.708-.677,1.241-1.5,2.319-.99a3.424,3.424,0,0,1,.773,1.775c3.713.035,6.942-.369,8.809-1.857a15.177,15.177,0,0,0-.595-4.178,52.379,52.379,0,0,0-7-15.074c-2.723-4.03-13.407-16.8-6.931-21.556,7.112-5.222,16.016,3.269,15.911,10.877a51.187,51.187,0,0,1-.78,5.95c-.842,6.479,4.563,5.4,8.778,5.274a12.3,12.3,0,0,1,.442-2.439c.05-.207.095-.3.4-.2l.758.813a3.166,3.166,0,0,0-.377,1.819,4.834,4.834,0,0,1,2.5.611,9.486,9.486,0,0,1,2.661,3.206c1.644,2.614,3.367,3.893,5.027,4.206.027-.041.042-.083.073-.12.037.049.063.1.1.147,2.483.367,4.813-1.425,6.517-4.284a16.6,16.6,0,0,0-1.88-5.066c-1.365-2.461-3.191-5.329-2.917-8.262.319-3.431,8,.349,9.042.774.892.371,1.645,2.021,2.117,2.705.945,1.378,1.911,2.755,2.872,4.127,1.3,1.857.952,2.678,1.654,4.334-.134-.365-.312-1.125.085-1.271,2.591-.965,7.462,1.461,10.236,2.379h0a7.494,7.494,0,0,1,3.5.911c5.16,3.46,8.126-4,9.141-7.549.879-3.078,5.4-8.407,9.1-7.768,6.814,1.176,3.124,12.814,2.186,16.592-.636,2.574-1.339,5.115-2.025,7.672-1.695,6.292,4.53,8.677,9.191,8.651-.039-.072-.079-.146-.115-.219-.215-.015-.459-.033-.7-.053.006-.162.07-.351.009-.488a4.4,4.4,0,0,0-.992-1.3,5.344,5.344,0,0,1-1.453.429l-1.529-1.637c.016-.48.046-.946.046-1.417,0-.392-.754-.685-.161-1.169.3-.494.954.141,1.271-.439-.118-.859.825-1.26,1.035-2.032-.866-.568-.748-1.586-1.146-2.375.284-.333.576-.673.9-1.057-.14-.233-.278-.456-.426-.7a8.493,8.493,0,0,1,5.229-4.942c.209.135.429.277.651.417.824-.486,1.389-.606,3.346-.552a2.95,2.95,0,0,1,2.868,1.794,15.854,15.854,0,0,0-.279,2.3,2.051,2.051,0,0,1,1.025-.228c.774.182,1.515-.562,2.361-.187.024-.29.044-.522.065-.754.943.3,1.451-1.145,2.834-.346l1.807,1.935c.4-.084.58-.481.965-.322.145.126.251.335.467.345a78.371,78.371,0,0,1,4.2-11.116c2.728-5.963,7.527-9.857,11.362-4.54a1.382,1.382,0,0,1,1.3.95c4.311,9.152-3.065,18.711-10.346,25.5a8.706,8.706,0,0,0,1.4,1.437c.793.58.506,1.674,1.329,2.236,1.631,1.11.045,2.924.884,4.149l-.694.648c-.452.175-.526-.152-.862-.387-.636.668-1.651.735-2.441,1.341a19.272,19.272,0,0,1,2.539,2.009c.44-.71.883-1.422,1.319-2.123-.3-.311-.514-.5-.4-.913.93-.69,1.64-1.793,3.053-2.466.182,1.662-1.706,2.714-.7,4.281a6.4,6.4,0,0,0-2.181,2.3c3.721,2.6,7.771,4.983,10.815,3.366a.911.911,0,0,0-.053-.116c-.358-.79-.968-.42-1.365-.753-.407-1.085-.393-2.4-1.386-3.193.969-1.462,1.6-3,3.119-3.685.783-.6,1.171.354,1.8.366.58-.61,1.2-1.009,1.987-.646,1.222-6.549,1.11-13.771,9.892-13.691.858.009,1.606,1.084,1.664,1.877.62,8.454-2.976,17.931-4.362,26.241a.917.917,0,0,0,.4-.273,22.355,22.355,0,0,1,1.633-1.549c.551-.515,1.563-1.031,1.559-1.539-.017-1.2,1.069-.652,1.433-1.2a11.829,11.829,0,0,1,1.6-1.566,3.468,3.468,0,0,0,.818-1.059,10.756,10.756,0,0,1,3.454-3.666c.753-.417.434-1.385,1.087-1.813.452.018.94.147,1.241-.472-.12-.27-.255-.59-.452-1.038,2.9-2.71,5.87-5.435,8.771-8.222a6.928,6.928,0,0,0,2.234-2.7,2.491,2.491,0,0,1,2.561-1.585c.063-.364.036-.585.131-.714,2.011-2.694,4.874-4.552,7.055-7.041-.173-.387-.311-.7-.448-1.014.867-.81,1.65-1.627,2.52-2.341,4.565-3.7,7.959-8.576,12.393-12.347a3.314,3.314,0,0,0-.3-2c.458-.11.558.224.685.324,4.2-.949,6.624-4.362,9.6-6.845.538.193.733.449.66.884a1.673,1.673,0,0,0-1.256.363c-1.441.94-1.906,2.652-3.132,3.75-1.85,1.647-2.935,4-5,5.465-.33.234.048.935-.539,1.135-1.713.408-2.58,1.963-3.869,2.961-.123.1-.167.3-.346.631.021.286.052.749.074,1.073-.31.677-.874.351-1.214.546-.039.288-.077.555-.141,1a1.85,1.85,0,0,0-2.168,2.009c-.463,0-.74,0-1.221,0,.072,1.234-.935,1.812-1.714,2.558-1.023.971-2.009,1.987-3.1,2.879-4.4,3.6-7.566,8.42-12.019,11.963.17.407.307.725.481,1.146-.58.542-1.388,1.01-1.738,1.707-.379.748-1.42,1-1.483,1.4-.208,1.442-1.429,1.9-2.233,2.72-.893.907-1.148,2.227-2.282,3.005a32.12,32.12,0,0,0-3.318,3.04c.072.337.178.86.384,1.819-.893-.3-1.423-.476-1.96-.658a1.789,1.789,0,0,0-.7,1.721c-.837.939-2.145,1.5-2.262,2.956-1.086.14-1.941.47-1.991,1.7l-1.465-.052c-.019.264-.042.526-.066.794-.5.177-.674-.643-1.34-.344-.392,1.3-2.3,1.094-3.03,2.107a3.415,3.415,0,0,1,2.437-.589l-3.015,2.816c-.115.821-.221,1.647-.317,2.474a1.824,1.824,0,0,1,.9-.62c.331.014.609.022,1.085.037-.528.622.185.924.241,1.343-.208.526-.393.982-.571,1.44-.307-.148-.616-.3-.9-.433-.436.078-.612.6-1,.726-.136,1.6-.224,3.2-.235,4.8.025,0,.05,0,.073,0,.022-.23.045-.492.067-.759.569-.064-2.4,3.394-1.858,3.808.632-.048,4.6-3.028,5.248-3.077l2.487,2.663c.535-.05,1.1.208,1.569-.3.4-.425.734.805,1.209.177.027-.235.051-.4.078-.639.329.171.637.333,1.039.539l2.252-2.1c.259.01.52.019.779.027a5.943,5.943,0,0,1-1.321-3.39,8.213,8.213,0,0,1,1.264-4.142,35.2,35.2,0,0,1,4.672-6.365.335.335,0,0,1,.327.079c.232.129.449.269.661.408a.443.443,0,0,1,.065-.227c.026-.039.21-.029.234.006a.376.376,0,0,1,0,.414,12.032,12.032,0,0,1,2.095,1.844.167.167,0,0,1,.2-.069c.589.159,1.072,1.141,1.266,1.642q.164.448.3.888c.275.479.54.977.79,1.5.059.126.561,1.451.009,1.306a.928.928,0,0,1-.383-.228c.005.187-.019.372-.03.558.5.329.758,1.032,1.427.783.578,1.185-.616,1.52-.818,2.31-.259,1.005,1.007,1.313.783,2.243a5.442,5.442,0,0,0,.019,1.4c-.776.022-.873-.8-1.456-.636-.638-.129-1.273-.262-1.776-.365-1.332,1.69-3.6,1.856-4.623,3.877,1.706.59.117,2.332,1.1,3.012-.376,1.022-.66,1.817-.944,2.606a29.853,29.853,0,0,1-2.7,1.545c.3,2.683.936,3.865,1.793,4.153a3.842,3.842,0,0,1,.716-.219,5.962,5.962,0,0,0,1.96-.686c2.454-1.77,5.407-5.236,7.649-4.533,4.811,1.519,2.807,9.513,2.307,12.816-.045.3-.983,6.391.406,5.962a9.331,9.331,0,0,1,3.584-.525c1.5.094,2.981,1.712,3.461,3.023,1.072,2.919.8,4.209-1.11,6.734-1.338,1.773-3.492,3.2-3.741,5.594-.563,5.277.721,6.675,2.528,6.339a2.742,2.742,0,0,0,.294-.885c-.637-.5-.2-1.4-.732-1.943.623-.823,1.706-1.27,1.859-2.451l.991.633,4.054-3.785c1.253,1.21,3.2-.725,4.186,1.2l1.034-.562c.2.991,1.177.844,2,1.307-.412,1.33,1.088,1.663,1.5,2.666-.962.922.821,2.506-.785,3.292a2.779,2.779,0,0,1-.953,1.669c.147.247.309.479.449.735.34.618.571,1.792-.352,2-6.921,1.548-18.866,7.916-11.1,16.466,3.722,4.108,10.818,5.09,16.021,4.275,4.13-.647,9.133-1.621,11.393,2.718,1.731,3.317-1.512,11.348-5.265,12.059-5.98,1.132-12.823-5.5-17.18-8.816-.458-.349-.894-.66-1.315-.944-.187.172-.411.319-.624.528-1.031-1.015-2.386-.418-3.616-.653-.226-.044-.412-.28-.581-.405-.026-.493.3-.68.578-.922-1.374.257-2.557,1.526-3.7,4.23-.8,1.879-.739,4.444-.331,7.051.4.434.8.868,1.225,1.289,1-.633,1.7.445,2.624.355l2.109,2.259c-.347.459-1.092-.16-1.3.349-.3.7.217.893.445,1.219-1.766.22-3.006-.8-4.315-1.659.405,1.611.854,3.108,1.207,4.312,1.638,5.6,9.688,3.463,12.194,8.391,2.537,4.979-2.47,9.5-6.7,11.557a4.873,4.873,0,0,1-2.966.451,3.1,3.1,0,0,1,.151,1.078,17.122,17.122,0,0,0-.3,3.1,24.007,24.007,0,0,1,3.665,6.143,2.042,2.042,0,0,0-1.6.221c.046.037.089.057.136.1,2.929,2.358,3.335,8.351,1.994,11.508-2.94,6.931-14.87-4.027-18.8-8.665-6.515,3.9-10.4,10.769-14.293,17.176,4.092.857,8.149,1.86,11.535,4.483,1.308,1.008,2.589,2.063,3.858,3.135a.339.339,0,0,1,.284-.033.355.355,0,0,1-.036.246c3.066,2.6,6.055,5.322,9.062,7.949,2.151,1.878,5.78,4.642,6.241,7.758.053.366.121.822.187,1.334a2.745,2.745,0,0,1,1.551-.535c.516.446.9,1.3,1.97,1.229a4.374,4.374,0,0,0,.519,1.493c.7,1.089,2.048,1.247,2.818,2.2a21.157,21.157,0,0,0,2.206,2.359c.8.725.633,2.042,1.754,2.514-.4.963.518,1.857.15,2.628-.444.936-.2,1.9-.475,2.787-1.045.9-1.871,2.073-3.353,2.263-1.705-.79-1.672-.823-3.576-2.9a6.358,6.358,0,0,1-2.052-4.339l-.517-.016c-.334-.391.144-.492.324-.854a5.408,5.408,0,0,1-.625-3.756,1.389,1.389,0,0,1-.518-.644c-.2,2.35-1.041,4.44-3.481,4.557-3.92.191-7.213-1.976-9.956-4.59a25.869,25.869,0,0,1-3.685-4.523,2.893,2.893,0,0,1-.147.307c-.625-.142-1.341-.312-2.386-.549l-1.174-1.257c-.248-.859.427-1.313.384-1.95-.225-.379-.778-.539-.743-1.115l.875-.818a44.352,44.352,0,0,0-6.074-9c-2.767-2.923-5.777-5.612-9.713-6.786-5.56-1.664-10.119,5.027-8.69,9.674,1.405,4.566,3.793,8.026,3.08,12.987-1.051,7.274-5.969,10.286-9.362,3.224-2.1-4.4-2.5-11.746-8.775-10.838-6.833.985-13.4,7.928-8.306,15.551,1.413,2.106,3.451,3.793,5.021,5.8.239-.248.44-.544.886-.525l.855.916c-.207.458-.4.888-.605,1.336.074.132.156.254.223.392,1.892,3.823,3.226,18.164-4.6,14.376a11.278,11.278,0,0,1-3.591-3.133,3.647,3.647,0,0,1-1.743.808c-.9.192-1.827-.856-2.726.049-.037.037-.3-.138-.449-.227-1.227-.729-2.581.479-3.812-.256-.366.5-1.12.7-1.2,1.419.117.316.614.483.261.908-.692-.164-.943-.851-1.312-1.153-1.337-.079-2.551-.156-3.685-.226l-1.27,1.186c-.03.881-.338,1.858-.022,2.543.466.994-.228,1.5-.286,2.269-.884-.376-.685-1.036-.576-1.51.193-.825-.81-.993-.771-1.7.283-.334.571-.671.931-1.1-.289-.352-.572-.7-.9-1.087.15-.291.309-.6.472-.906a6.673,6.673,0,0,1-.715-2.676c.046-.723.951-.771.853-1.477l-1.9-2.038c.007-.567.012-1.122.017-1.638-.244-.423-.822-.58-.741-1.19l2.576-2.406c-.292-1.832.2-3.922-1.9-5.5.641-.039.889-.054,1.139-.066.082-1.186.572-2.343.638-3.531a5.736,5.736,0,0,0-1.277.324c-2.805,3.79-6.107,8.971-7.034,9.864-2.448,2.363-7.089,2.854-9.772.7a13.329,13.329,0,0,1-2.921-3.847c-.747-1.265-8.011-11.933-8.331-9.017-.779,7.074-1.554,13.487-8.567,16.771a1.506,1.506,0,0,1-1.859-.889c-2.087-4.808-3.256-10.436-6.461-14.317l-.521-.018c-.11.928.191,2.094-1.327,2.376-.275-.562-1.062-.826-1.118-1.688.551.089,1.006.111,1.291-.666-.645-.571-1.042-1.563-2.3-1.392a11.894,11.894,0,0,1-.053-1.811,12.609,12.609,0,0,0-1.939-.788c-5.69-1.736-7.749,4.307-13.166,2.365a9.193,9.193,0,0,1-3.5-1.741c-2.928-3.049-5.053-2.057-8.639-1.033-2.477.7-5.565,1.378-7.58-.258a2.276,2.276,0,0,0-1.158,1.187c-.551,1.524-1.922,2.1-2.881,3.373-.516-1.054-1.665-.849-1.889-1.219-.157-1.052-.25-1.668-.415-2.782l2.225,2.382c.725-.181.691-.608.686-1.016a1.772,1.772,0,0,0,1.844-1.766,1.216,1.216,0,0,0,1.247-.475,4.882,4.882,0,0,1-.96-1.409c-1.794-3.929,1.1-5.906.39-9.905-.043-.188-.063-.378-.1-.566l-.878-.941-1.033.4c-.288-.141-.483-.553-1.175-.316l-1.64,1.531c-.447-1.844.629-3.033,1.421-4.318l-3.067-.7c-.143.685-.308,1.365-.5,2.042-.344,1.168-.836,3.26-1.944,4.28-.078,1.48-.409,1.746-1.726,1.9.011-.351.023-.711.035-1.061-6.327,2.093-10.186-4.166-8.97-9.979.758-3.637,2.669-7.008,3.993-10.458q2.142-5.414-6.379-7.821a9.017,9.017,0,0,0-4.072,1.308c-.124.624.106,1.16-.231,1.589-.149-.005-.242-.014-.337-.008-.734.051-.957.843-1.523,1.093-.754.334-.162,1.251-.85,1.64a6.3,6.3,0,0,0-1.441,1.316c-.42.451-1.135.69-1.091,1.5.011.15-.129.313-.2.471-.637-.385-.611-.98-.555-1.579-.844,1.6-1.49,3.335-2.18,4.912-3.011,6.886-9.958,15.7-17.2,6.909-3.289-4,.262-7.945,3.9-10.848-.083-.049-.168-.1-.25-.155-.666-.018-.851,1.008-1.665.757a15.708,15.708,0,0,0-1.73-.346c-1.107,1.733-2.776,1.447-4.029,2.173l-1.643-1.76c.859-1.708-.057-3.958,1.73-5.047-.735-2.024.714-3.747.144-5.5l2.544-2.375a4.73,4.73,0,0,1,2.791.449c.256-.24.454-.586.673-.6,2.509-.206,4.294-1.678,6-3.309,1.227-1.17,2.42-2.375,3.722-3.455a4.468,4.468,0,0,0,1.805-4.682c-.42-1.222-1.565-1.319-2.467-1.527a11.185,11.185,0,0,1-2.165-.929c-1.684-.758-2.555-2.314-4.018-3.452-1.293,1.208-3.012,2.194-3.75,3.668-.822,1.626-2.267,2.391-3.312,3.642a9.249,9.249,0,0,1-4.206,2.788c-.229-.159-.331-.5-.714-.4-.341.248-.7.513-1.119.82-2.967-.6-5.305.1-6.243,3.357.187.2.412.385.328.707a3.227,3.227,0,0,1-2.016-.394c-2.472,2.46-5.4,4.485-7.027,7.711l.76.815c-.508,2.163-1.017,4.313-1.511,6.4l-1.222,1.141c-.36-.184-.67-.339-1.027-.52-.874,1.294-2.636,1.162-3.31,2.3-1.344-.343-2.456-.624-3.626-.931-.939-.992-2.121-1.925-2.221-3.549.282-.322.573-.662.867-1a2.25,2.25,0,0,1-.371-1.85l4.293-4.008c2.231-.975,4.271-.287,6.228-.461,2.5-2.079,4.67-4.339,5.067-7.775.533-.5,1.081-1.006,1.618-1.529.053-.049.027-.176.034-.293-.067-.31-.515-.508-.342-.914q.416-.009.818-.014c1.331-3.169,1.331-3.169.913-4.718l.819-.765a3.462,3.462,0,0,1-.034-1.86c-.1.063-.2.13-.3.188-2.8,1.457-6.624-.181-8.658-2.214a5.915,5.915,0,0,1-1.847-4.158c.037-2.131,1.415-3.778,3.038-5.032,2.559-1.993,5.051-.541,6.777,1.63a14.193,14.193,0,0,1,2.412,2.7,6.5,6.5,0,0,1,.519,3.085c1.581-1.384,3.441-2.219,4.86-3.581-.857-3.942-.133-7.616,2.872-11.518a7.208,7.208,0,0,1-2.1,1.033,2.747,2.747,0,0,1,.324-1.8c-.352-1.563-2.346-1.157-2.72-2.711,1.09.574,1.357-.978,2.306-.7a1.649,1.649,0,0,0,1.723-.6,3.352,3.352,0,0,1,2.742-.827,6.007,6.007,0,0,0,2.194-.339,14.441,14.441,0,0,0-7.12-20.278c-7.058-3.221-15.371-2.782-22.413-.166-9.16,3.405-11.843-4.526-9.719-12.528.9-3.38,4.562-4.534,7.69-4.339.043-.05.082-.095.133-.155.1.059.191.123.287.185,4.169.4,8.767,1,12.977.761-.2-.763-.07-1.427.7-1.2a27.486,27.486,0,0,0,2.867.739,11.657,11.657,0,0,0,8.4-5.91c-.743-4.48-6.356-9.682-10.443-9.389-3.177.229-6.131,1.359-9.367,1.113-3.52-.264-3.42-3.976-2.08-6.2,4.447-7.384,11.505-3.483,17.917-1.451,3.9,1.238,12-4.385,8.93-9.148-2.132-3.295-6.293-5.521-9.533-7.569-.461-.29-.935-.576-1.417-.865-.081.022-.185.049-.254.068-.319-.17-.431-.33-.459-.488-3.747-2.2-7.837-4.495-9.85-8.394-2.333-4.513-3.822-10.388,2.656-11.433A9.39,9.39,0,0,1,4780.042,1435.752Zm237.554,76.6a.683.683,0,0,1,.077-.04,5.139,5.139,0,0,0-1.887-.557C5016.563,1512.115,5017.319,1512.554,5017.6,1512.351Zm-8.066,34.482c-.272.821-.576,1.739-.854,2.694a2.309,2.309,0,0,1,.44.379c.711-1.031,1.424-1.275,2.27-.745A18.3,18.3,0,0,1,5009.529,1546.833Zm-77.038,72.908c.273,1.611-.539,3.308.259,4.92-.869,1.646-.313,3.428-.569,4.859.649,1.46,1.982,1.591,2.929,2.223.672.443,1.763-.1,2.7-.029a1.824,1.824,0,0,0,1.679-.669,2.2,2.2,0,0,0,.273-1.063c1.652.019,3.453-.036,4.8.846-3.812-6.268-7.508-13.857-12.283-14.69A19.577,19.577,0,0,0,4932.491,1619.741ZM4817.33,1575.88a2.128,2.128,0,0,1,.057-.355c-.54.365-1.055.744-1.532,1.12C4816.6,1576.727,4817.291,1576.375,4817.33,1575.88Zm-4.681,4.476c1.019-1.155,2.5-1.923,2.965-3.517-.171.139-.347.278-.506.411A10.785,10.785,0,0,0,4812.649,1580.356Zm-11.052-8.6c.9.783.979,1.86,1.139,3.06a3.156,3.156,0,0,0-1.269,2.435,2.412,2.412,0,0,1-.348,1.385c5.094-3.812,7.744-8.873,7.756-14.869l-.1.1c-1.725,1.6-3.409,3.242-5.17,4.8A5.248,5.248,0,0,0,4801.6,1571.758Z" transform="translate(-4671.537 -1244.389)" fill="#0201fe"/>
</svg>
