<svg xmlns="http://www.w3.org/2000/svg" width="94.059" height="79.511" viewBox="0 0 94.059 79.511"><g transform="translate(-1136.906 -75.793)"><path d="M1230.952,157.981a3.544,3.544,0,0,0-.1-.73c-.008-.032-.017-.065-.026-.1-.59-2.283-3-5.889-4.437-6.547a1.438,1.438,0,0,0-.18-.031s.009-.007.01-.009c.143-1.688.886-14.986-.421-19.291h.02c.84-.007.746-1.824.118-1.785-2.552.159-74.6-.532-75.547-.532-1.246,0-.738,2.29-.394,2.3l.373,0c-1.106,4.7-1.245,17.132-1.037,19.049-2.162.213-11.7,7.429-12.282,7.77-.277.1-.126,1.366.2,1.5.051.021.752.047,1.9.074,0,.244.006.523.01.841,0,.049,0,.09,0,.14,0,.345.01.731.016,1.144,0,.117,0,.232.005.353.007.435.015.888.024,1.378h0c.122,6.282.452,16.435,1.321,16.693,1.26.377,86.993,1.225,87.244.553.086-.229.289-2.864.518-6.212v0c.021-.3.042-.618.063-.932,0-.025,0-.049,0-.074q.06-.891.121-1.822c.006-.1.013-.2.019-.3q.049-.743.1-1.493c.011-.169.021-.335.032-.5q.058-.9.114-1.788c0-.026,0-.051,0-.076q.052-.828.1-1.623c.007-.124.016-.249.023-.37.13-2.092.241-3.928.314-5.13.489,0,.861-.008.982-.014.676-.038.771-1.255.8-2.335C1230.965,158.048,1230.952,158.012,1230.952,157.981Z" transform="translate(0 -29.606)" fill="#ff0"/><path d="M1294.513,129.642s-4.721-.846-6.583-.171-2.074,4.206-.813,5.887,1.249,6.338.813,7-13.453,7.568-14.546,9.453,3.682,4.469,4.619,5.166-.445,2.418,1.967,2.517,12.2-1.131,14.063-.983,4.789.683,6.7-1.994.836-3.229,1.47-5.509S1294.513,129.642,1294.513,129.642Z" transform="translate(-75.911 -29.746)" opacity="0.2" style="mix-blend-mode:overlay;isolation:isolate"/><path d="M1236.026,130.841s-1.254,1.24-5.8,1.714a33.076,33.076,0,0,1-8.813,0c-2.47-.288-4.551.007-4.683,1.252s1.523,10.164.933,11.784,5.243,6.921,7.489,8.5,3.18,3.594,2.2,3.938-9.243,2.835-12.832,2.253-6.355-.128-9.151-.527a8.505,8.505,0,0,0-5.188.527c-1.934.6-6.31-.333-6.26-1.932s2.492-7.651,6.26-10.352.589-9.3.327-10.909-2.212-4.912-5.039-5.162-5.187.327-5.064,1.268.074,4.727.467,5.415.786.222.491,2.016-.551,3.206-1.725,1.64-.487-3.139-1.126-5.794-.614-6.3-.295-6.629,12.564-.107,12.564-.107Z" transform="translate(-28.45 -29.998)" opacity="0.2" style="mix-blend-mode:overlay;isolation:isolate"/><path d="M1160.02,145.156s2.7,4.156,3,6.519.655,5.148,1.672,6.132,4.326,4.391,5.875,4.912,2.434.424,2.262,1.271-2.089,1.482-2.188,2.037.713,1.613-4.818,1.908-9.685-1.609-10.841-1.616-4.89,1.152-5.432.658,1.425-1.8,4.1-2.645,0-3.428.049-5S1160.02,145.156,1160.02,145.156Z" transform="translate(-6.989 -38.626)" opacity="0.2" style="mix-blend-mode:overlay;isolation:isolate"/><g transform="translate(1157.076 75.793)"><path d="M1244.214,161.289c.967.9,10.3,10.635,10.845,15.364s-6.208,18.759-6.48,20.162,2.4,4.313,2.1,5.7-3.051-1.212-4.531-1.87-3.051-1.334-.332-4.971-.816-9.007,2.447-15.4c1.36-3.308-8.217-7.136-9.425-10.185S1244.214,161.289,1244.214,161.289Z" transform="translate(-1213.756 -123.404)" fill="#f63"/><path d="M1214.434,161.289c-.953.817-10.227,9.74-11.056,14.406s4.413,19.207,4.566,20.628-2.512,4.1-2.33,5.5,2.894-.954,4.3-1.487,2.9-1.075.652-4.925,1.378-8.906-1.183-15.546c-1.022-3.409,8.064-6.427,9.389-9.364S1214.434,161.289,1214.434,161.289Z" transform="translate(-1194.042 -123.404)" fill="#f63"/><g transform="translate(25.268 14.58)"><path d="M1240.742,108.715c1.677.311,9.723,5.218,12.646,6.443s12.666,2.793,12.88,2.9.257,1.216-.178,1.31-10.882.549-13.248.1-8.9-1.913-11.279-3.766S1238.668,108.33,1240.742,108.715Z" transform="translate(-1239.444 -108.696)" fill="#f63"/><path d="M1298.674,133.852c.811.09,1.966-.27,2.139-1.081a2.877,2.877,0,0,0-1.811-2.864,1.167,1.167,0,0,0-1.668.812c-.234.668.457,1.476,1.01,2.092C1298.551,133.042,1298.011,133.778,1298.674,133.852Z" transform="translate(-1271.656 -120.448)" fill="#f63"/></g><g transform="translate(14.86 1.682)"><g transform="translate(3.337 6.144)"><path d="M1227.071,94.638s.432,3.563.762,4.685c1.062,3.609-3.457,3.051-3.77.285-.437-3.864-.573-6.154-.573-6.154Z" transform="translate(-1223.49 -93.454)" fill="#f63"/></g><path d="M1215.973,83.683a3.545,3.545,0,0,1,.774-1.487,11.936,11.936,0,0,1,.959-1.583,4.455,4.455,0,0,1,3.539-1.018,3.1,3.1,0,0,1,1.65.5,3.787,3.787,0,0,1,1.364.984,3.2,3.2,0,0,1,.066,3.12.262.262,0,0,1-.162.11,1.354,1.354,0,0,1-.8.462,10.579,10.579,0,0,0-2.175.425,3.436,3.436,0,0,0-1.179.652,6.2,6.2,0,0,0-.654,1.069C1217.81,89.186,1215.764,85.124,1215.973,83.683Z" transform="translate(-1215.958 -79.589)" fill="#402532"/><path d="M1219.925,89.117c.625,2.277,3.51,4.835,5.962,3.642,2.2-1.069,1.766-4.671.914-6.35-1.072-2.111-2.528-2.771-4.478-2.289S1219.3,86.839,1219.925,89.117Z" transform="translate(-1218.068 -82.029)" fill="#f63"/><path d="M1218.843,83.23a4.724,4.724,0,0,1,2.97-1.392,5.916,5.916,0,0,1,2.371.835,1,1,0,0,1-.469,1.815c-1.249.2-1.844-.055-2.3.428s.17.911-1.087,2.251c-.33.351-.177,1-.672,1.182a2.3,2.3,0,0,1-1.137-.167C1216.047,87.393,1217.592,84.38,1218.843,83.23Z" transform="translate(-1216.652 -80.84)" fill="#402532"/><path d="M1220.194,95.847c.324.6.531.935.785.8a1.379,1.379,0,0,0,.1-1.543c-.324-.6-.8-.747-1.059-.61S1219.87,95.244,1220.194,95.847Z" transform="translate(-1218.141 -87.861)" fill="#f63"/></g><g transform="translate(13.704 13.575)"><path d="M1230.691,131.326c-.244.769-7.65,4.044-12.611,1.295-1.346-1.882-1.8-12.126-2.8-13.631-2.491-3.736-2.346-7.9-.86-10.176,2.061-3.155,10.247-3.061,13.3-.427,3.589,3.1,2.377,8.047,2.18,9.161S1231.351,129.241,1230.691,131.326Z" transform="translate(-1213.347 -106.428)" fill="#f63"/></g><g transform="translate(0 14.063)"><path d="M1200.113,107.53c-2.6.107-15.77,3.977-17.343,7.124s2.7,12.094,2.753,12.537,1.376.852,1.524-.77-.708-8.886-.45-9.4c.646-1.286,8.745-.913,10.908-1.995S1202.511,107.431,1200.113,107.53Z" transform="translate(-1182.423 -107.528)" fill="#f63"/><path d="M1190.452,155.545c-.426.276-1.626-.619-2.128-1.4a3.772,3.772,0,0,1,.1-3.572,1.346,1.346,0,0,1,1.753.153c.463.512.265,1.487.221,2.265C1190.344,154,1190.924,155.239,1190.452,155.545Z" transform="translate(-1185.486 -131.355)" fill="#f63"/></g><g transform="translate(14.083)"><path d="M1225.615,80.193c.078.22-1.479,1.836-3.09,2.443a18.062,18.062,0,0,1-3.759.653c-.183.17-1.531,2.408-3.168,3.234-.494.176.088-.535-.06-.952s-1.57-3.19-1.3-4.774,1.739-3.277,1.784-3.535c.027-.153-1.26-.861-1.124-1.014s.337-.52.52-.446.735,1.235.9,1.262,2.261-.735,3.984-.1,4.52,3.123,4.791,3.149S1225.57,80.066,1225.615,80.193Z" transform="translate(-1214.205 -75.793)" fill="#f9e3c7"/><path d="M1214.239,82.884a7.64,7.64,0,0,1,1.243-2.677c.354-.4.688-.759.785-.645.164.192,1.278,4.9,2.589,5.412.815.316,3.019-.23,4.568-.688a5.876,5.876,0,0,1-.9.437,18.062,18.062,0,0,1-3.759.653c-.183.17-1.531,2.408-3.168,3.234-.494.176.088-.535-.06-.952S1213.968,84.468,1214.239,82.884Z" transform="translate(-1214.205 -77.88)" fill="#eed9be"/><path d="M1233,87.286a4.648,4.648,0,0,0,2.113-1.313c.115-.124.3.062.185.186a4.914,4.914,0,0,1-2.229,1.38A.131.131,0,0,1,1233,87.286Z" transform="translate(-1224.617 -81.44)" fill="#eed9be"/><path d="M1221.879,78.429a6.179,6.179,0,0,1,3.5.7c.149.08.016.307-.132.226a5.97,5.97,0,0,0-3.363-.664C1221.71,78.7,1221.711,78.438,1221.879,78.429Z" transform="translate(-1218.408 -77.253)" fill="#eed9be"/><path d="M1231.057,80.788a8.635,8.635,0,0,1,1.173,1.014c.117.121-.068.307-.185.186a8.246,8.246,0,0,0-1.12-.973C1230.788,80.917,1230.919,80.69,1231.057,80.788Z" transform="translate(-1223.483 -78.561)" fill="#eed9be"/></g><g transform="translate(10.979 38.045)"><path d="M1235.984,173c.42.114-2.527-5.4-5.379-8.249s-2.174-3.244-3.254-3.068-4.383,1.823-6.579,1.823-5.591-.255-6.5-.947-7.741,8.717-7.02,9.609,4.261-1.884,10.947,3.88c5.408,4.534,11.209,1.339,13.52-1.365S1235.037,172.746,1235.984,173Z" transform="translate(-1207.2 -161.649)" fill="#f9e3c7"/></g></g><g transform="translate(1190.957 77.539)"><g transform="translate(0 14.319)"><path d="M1290.563,112.064c-1.638.27-9.165,4.48-12.033,5.61s-12.526,2.31-12.737,2.409-.127,1.328.3,1.426,10.582.73,12.893.336,8.624-2.03,10.979-3.778S1292.588,111.73,1290.563,112.064Z" transform="translate(-1262.669 -112.047)" fill="#ff9733"/><path d="M1258.9,129.306c-.166-.666.808-1.385,1.41-1.626a2.038,2.038,0,0,1,2.343,1.088c.219.459.481,1.217-.2,1.425a4,4,0,0,1-1.8-.627C1259.913,129.139,1259.037,129.85,1258.9,129.306Z" transform="translate(-1258.883 -120.707)" fill="#ff9733"/></g><path d="M1321.814,91.58a3.035,3.035,0,0,1-.4-2.54,2.73,2.73,0,0,1,.45-2.454c.843-.941,2.594-.88,3.725-.743a4.673,4.673,0,0,1,4.263,4.979c.013,1.552-.5,3.218.319,4.648.653,1.137,1.738,1.962,2.064,3.283a5.167,5.167,0,0,1-.757,3.735c-1.046,1.977-.337,3.68,1.148,5.166a.265.265,0,0,1-.186.448,5.366,5.366,0,0,1-5.381-3.29c-.276-.659-.273-1.559-.617-2.206a1.873,1.873,0,0,0-.051.56c0,.181-.229.351-.394.226a5.2,5.2,0,0,1-2.17-3.954c-.051-.715.036-1.151-.612-1.7-.187-.157-.427-.252-.616-.414a3.392,3.392,0,0,1-1-2.685C1321.622,93.563,1321.832,92.579,1321.814,91.58Z" transform="translate(-1293.63 -83.093)" fill="red"/><g transform="translate(22.496 13.866)"><path d="M1322.676,137.355s-2.339-3.682-1.4-10.221,4.886-10.963,1.681-14.11-8.2-2.074-10.2-.238c-2.857,2.63-4.135,4.957-2.135,9.677,1,2.35.214,10.583,0,11.683S1320.934,141.578,1322.676,137.355Z" transform="translate(-1309.65 -111.024)" fill="#ff9733"/></g><path d="M1294.221,161.986c-2.162-.057-20.518,1.77-22.288,5.506s23.8,16.454,24.648,17.83.2,6.621.655,6.817,2.229-.2,2.622-2.556,2.032-5.965,0-6.49-9.365-8.03-12.275-9.636a17.313,17.313,0,0,0-6.261-2.077c-.016-.676,8.228,1.963,13.947.308S1301.629,162.183,1294.221,161.986Z" transform="translate(-1266.102 -125.537)" fill="#ff9733"/><g transform="translate(11.135 36.988)"><path d="M1308.206,169.942c-2.556,5.538-18.034,9.593-17.182,10.17,5.547,3.759,7.12,13.15,9.087,16,.426.618,2.319,1.016,2.089,2.065a16.339,16.339,0,0,1-1.6,4.146c-.459.525-3.671,1.41-4.457.754s2.819-1.868,2.786-4.064-15.306-16.749-14.913-21.141,12.782-13.176,17.371-14.422S1310.091,165.859,1308.206,169.942Z" transform="translate(-1284.01 -163.204)" fill="#ff9733"/></g><g transform="translate(10.963 16.317)"><path d="M1308.744,124.4c-.822-2.14-2.425-3.933-6.85-6.1s-4.826-1.877-5.441-1.434a7.107,7.107,0,0,0-1.573,5.826c.59,2.556,1.149,2.884,1.246,6.719s-.1,6.686-.97,7.112-8.279.762-10.6,1.606c-2.163.787.061,1.512.442,4.277.8,5.829,6.137,5.818,7.911,8.374s3.728,2.869,6.035,3.015,1.18-2.491,5.31-4.982,5.342-5.047,4.49-7.931-2.053-4.994-1.819-8.825S1309.186,125.548,1308.744,124.4Z" transform="translate(-1283.622 -116.556)" fill="#f9e3c7"/></g><g transform="translate(29.269 7.859)"><path d="M1325.81,98.619a32.045,32.045,0,0,1-.839,4.973c-.415,1.012,2.856,1.1,3.019.046a28.213,28.213,0,0,0,.452-6.169Z" transform="translate(-1324.935 -97.469)" fill="#ff9733"/></g><g transform="translate(27.317 3.02)"><path d="M1326.7,93.079c-.552,2.278-2.95,4.883-4.925,3.749-1.77-1.017-1.35-4.608-.625-6.3.913-2.123,2.111-2.81,3.69-2.372S1327.255,90.8,1326.7,93.079Z" transform="translate(-1320.528 -87.376)" fill="#ff9733"/><path d="M1323.034,87.746c.01-1.127,2.656-1.239,3.594-1.187a3.424,3.424,0,0,1,2.827,1.847,11.808,11.808,0,0,1,.6,1.783,9.977,9.977,0,0,1,.722,1.945,4.413,4.413,0,0,1-.264,2.217c-.358.919-1.206,1.878-.665,2.9a.266.266,0,0,1-.3.386,1.87,1.87,0,0,1-1.538-1.425c-.235-1.272.386-1.85.179-3.07-.194-1.152-1.33-1.652-2.118-2.38a13.733,13.733,0,0,1-1.835-2.352C1323.865,87.876,1323.033,87.858,1323.034,87.746Z" transform="translate(-1321.924 -86.549)" fill="red"/><path d="M1333.893,99.856c-.324.6-.866.8-1.12.667s-.171-.8.153-1.406.8-.747,1.059-.61S1334.217,99.253,1333.893,99.856Z" transform="translate(-1327.264 -93.181)" fill="#ff9733"/></g><g transform="translate(25.653)"><path d="M1316.776,84.779a6.779,6.779,0,0,0,3.4,1.84,20.119,20.119,0,0,0,3.811.171,11.36,11.36,0,0,0,3.589,2.537c.513.1-.162-.468-.074-.856s1.105-3.016.614-4.4-2.181-2.731-2.261-2.956c-.048-.134,1.126-.905.969-1.027s-.406-.427-.577-.34-.554,1.181-.714,1.224a8.393,8.393,0,0,0-3.955.351c-1.615.759-4.033,3.279-4.3,3.331S1316.8,84.661,1316.776,84.779Z" transform="translate(-1316.775 -79.734)" fill="#f9e3c7"/><path d="M1331.195,86.05a7,7,0,0,0-1.605-2.251c-.407-.319-.787-.6-.867-.489-.135.189-.576,4.512-1.8,5.109-.762.371-3.019.125-4.616-.113a6.48,6.48,0,0,0,.951.292,20.119,20.119,0,0,0,3.811.171,11.357,11.357,0,0,0,3.589,2.537c.514.1-.162-.468-.074-.856S1331.686,87.433,1331.195,86.05Z" transform="translate(-1319.854 -81.712)" fill="#eed9be"/><path d="M1320.889,92.066a5,5,0,0,1-2.275-.939c-.131-.1-.288.088-.158.186a5.282,5.282,0,0,0,2.4.986A.118.118,0,1,0,1320.889,92.066Z" transform="translate(-1317.684 -86.063)" fill="#eed9be"/><path d="M1329.194,82.673a6.538,6.538,0,0,0-3.36,1.006c-.135.088.027.275.163.187a6.316,6.316,0,0,1,3.235-.96C1329.4,82.9,1329.362,82.662,1329.194,82.673Z" transform="translate(-1321.791 -81.37)" fill="#eed9be"/><path d="M1323.344,85.762a7.865,7.865,0,0,0-1.018,1.032c-.1.121.111.266.21.145a7.5,7.5,0,0,1,.971-.99C1323.627,85.847,1323.466,85.659,1323.344,85.762Z" transform="translate(-1319.851 -83.074)" fill="#eed9be"/></g><g transform="translate(19.137 15.65)"><path d="M1322.982,117.676c.627,2.731-.455,12.291-3.651,16.371s-10.485,6.726-11.226,6.654a.674.674,0,0,1-.377-1.2c.365-.36,7.1-4.285,8.71-7.727s1.051-10.669,1.837-13.668S1321.97,113.267,1322.982,117.676Z" transform="translate(-1305.088 -115.051)" fill="#ff9733"/><path d="M1302.234,171.578c-.439-.457.091-1.514.509-2a2.084,2.084,0,0,1,2.522-.27c.394.264.958.748.455,1.25a4.2,4.2,0,0,1-1.842.374C1303.042,170.948,1302.593,171.951,1302.234,171.578Z" transform="translate(-1302.069 -145.091)" fill="#ff9733"/></g></g><g transform="translate(1142.485 91.742)"><path d="M1166.627,140.027c-.7,2.393,1.627,7.983,2.966,9.434a18.915,18.915,0,0,0,7.049,4.217c.459,0,.521-.54.406-.72-.309-.486-4.2-3.278-5.223-4.941-.62-1.012-.983-4.377-1.545-6.736C1169.678,138.749,1167.156,138.228,1166.627,140.027Z" transform="translate(-1158.964 -126.92)" fill="#ff9733"/><g transform="translate(0 2.374)"><path d="M1149.624,128.9a2.052,2.052,0,0,0,.915-.633c.473-.7.034-.437-.357-.583a.733.733,0,0,1-.571-.689.263.263,0,0,1,.13-.226c.048-.034.228-.095.274-.135.585-.5.2-.414-.064-.752a.758.758,0,0,1-.171-.8.265.265,0,0,1,.385-.157c.762.493,1.35-.268,1.938-.668.274-.187.645-.271.746-.651.046-.173-.07-.422-.055-.607a1.006,1.006,0,0,1,.263-.63c.454-.518.915-.448.961-1.337a3.814,3.814,0,0,1,.613-2.429,3.687,3.687,0,0,1,2.143-1.346c1.506-.345,3.358.051,4.009,1.6a2.635,2.635,0,0,1-.094,2.2c-.423.816-1.29,1.193-1.842,1.886a2.862,2.862,0,0,0-.109,1.145c.118.74.713,1.212.932,1.878.139.421.008.489-.225.8-.148.2-.217.219-.046.5.111.182.287.3.39.495a.266.266,0,0,1-.3.386c-.971-.135-.5.532-.436.83a.266.266,0,0,1-.183.323,5.164,5.164,0,0,1-1.953.027,4.421,4.421,0,0,1-.588-.155q-.492-.161-.287.14c-.024.055.021.214-.017.307a.276.276,0,0,1-.253.192,1.33,1.33,0,0,1-.881-.418c-.723-.571-1.506-.047-2.281.187a3.509,3.509,0,0,1-2.989-.222C1149.475,129.261,1149.433,128.985,1149.624,128.9Z" transform="translate(-1149.496 -117.142)" fill="#03f"/><path d="M1156.8,142.782a1.072,1.072,0,0,1,.665-.27c.168-.008.168.254,0,.262a.777.777,0,0,0-.479.193C1156.858,143.078,1156.672,142.893,1156.8,142.782Z" transform="translate(-1153.539 -131.27)" fill="#ae794c"/></g><g transform="translate(2.984 25.769)"><path d="M1170.841,169.987c3.083.409,11.8,3.6,11.676,6.651s-12.434,0-14.218-1.11c-2.094-1.3-2.777-4.308-1.991-4.877S1169.595,169.822,1170.841,169.987Z" transform="translate(-1161.666 -169.938)" fill="#ff9733"/><path d="M1176.609,182.874c-3.036,2.035-15.132.355-16.345.966s-2.5,1.684-3.552,1.72-.1-.653.21-.978c1.387-1.475.8-3.135,1.949-3.212.62-.042.672.622,1.92.567.829-.036,10.292-2.765,12.385-2.131S1177.578,182.225,1176.609,182.874Z" transform="translate(-1156.231 -175.381)" fill="#ff9733"/></g><g transform="translate(3.21 25.489)"><path d="M1162.976,170.042c3.4,1.251,12.332,6.736,11.176,9.636s-14.253-3.456-15.929-5.02c-1.967-1.835-1.753-4.911-.664-5.239A12.576,12.576,0,0,1,1162.976,170.042Z" transform="translate(-1156.739 -169.307)" fill="#ff9733"/></g><path d="M1165.576,151.739c.205-.593-.325-2.445-.191-4.444s.626-6.719-1.767-8.915-6.162-1.082-6.818.787.1,4.828.329,7.21a14.287,14.287,0,0,1-.245,5.692C1156.243,153.883,1164.865,153.795,1165.576,151.739Z" transform="translate(-1153.417 -125.921)" fill="#ff9733"/><g transform="translate(2.528 13.108)"><path d="M1163.85,141.559a5.763,5.763,0,0,0-5.139,1.222,11.151,11.151,0,0,0-2.828,2.68c-.351.531.7,5.092.355,6.908s-.969,2.853-1.035,3.925.935,2.37.935,2.737c0,1.524,1.7,1.173,2.638,3.015s1.835,1.613,2.753.6,2.556-3.442,4.293-3.7,2.262-.167,3.409-.9,3.278-.015,3.54-1.359-6.981-2.552-7.276-2.931a11.248,11.248,0,0,1-.336-5.9C1165.691,144.961,1164.792,141.86,1163.85,141.559Z" transform="translate(-1155.2 -141.365)" fill="#f9e3c7"/></g><g transform="translate(6.378 6.164)"><path d="M1166.371,126.994s-.271,2.949-.215,3.838c.18,2.862-2.486,1.633-2.252-.475.327-2.945.705-4.662.705-4.662Z" transform="translate(-1163.889 -125.695)" fill="#ff9733"/></g><g transform="translate(4.45 2.867)"><path d="M1163.984,122.667c.026,1.786,1.369,4.127,3.028,3.618,1.487-.457,1.781-3.2,1.526-4.574-.32-1.732-1.1-2.445-2.343-2.385S1163.959,120.881,1163.984,122.667Z" transform="translate(-1162.014 -118.849)" fill="#ff9733"/><path d="M1165.25,120.07a10.485,10.485,0,0,1-1.761,1.439c-.708.408-1.637.588-1.976,1.411-.359.872,0,1.406-.385,2.311a1.424,1.424,0,0,1-1.383.8.2.2,0,0,1-.156-.336c.575-.668.106-1.523,0-2.267a3.368,3.368,0,0,1,.178-1.692,7.654,7.654,0,0,1,.865-1.324,9.017,9.017,0,0,1,.746-1.224,2.609,2.609,0,0,1,2.413-.9c.707.119,2.653.649,2.471,1.488C1166.239,119.863,1165.619,119.737,1165.25,120.07Z" transform="translate(-1159.539 -118.255)" fill="#03f"/><path d="M1162.768,127.036c.139.5.508.744.72.685s.263-.569.124-1.071-.472-.69-.684-.632S1162.629,126.534,1162.768,127.036Z" transform="translate(-1161.299 -122.572)" fill="#ff9733"/></g><g transform="translate(4.115 0)"><path d="M1167.714,117.148a5.171,5.171,0,0,1-2.838.794,15.353,15.353,0,0,1-2.861-.516,8.657,8.657,0,0,1-3.1,1.28c-.4-.01.2-.32.2-.623s-.312-2.428.286-3.373a8.873,8.873,0,0,1,2.179-1.816c.058-.091-.684-.863-.547-.927s.374-.249.486-.156.212.971.324,1.03a6.391,6.391,0,0,1,2.881.928,26.7,26.7,0,0,1,2.632,3.2C1167.548,117.054,1167.714,117.056,1167.714,117.148Z" transform="translate(-1158.783 -111.785)" fill="#f9e3c7"/><path d="M1159.4,116.31a5.347,5.347,0,0,1,1.573-1.4c.356-.168.686-.314.727-.217.068.164-.334,3.452.477,4.1a9.1,9.1,0,0,0,3.45.695,4.966,4.966,0,0,1-.755.056,15.354,15.354,0,0,1-2.861-.516,8.657,8.657,0,0,1-3.1,1.28c-.4-.01.2-.32.2-.623S1158.807,117.254,1159.4,116.31Z" transform="translate(-1158.783 -113.386)" fill="#eed9be"/><path d="M1173.07,123.867a3.807,3.807,0,0,0,1.849-.314c.114-.051.2.114.086.165a4.031,4.031,0,0,1-1.949.328A.09.09,0,1,1,1173.07,123.867Z" transform="translate(-1166.681 -118.333)" fill="#eed9be"/><path d="M1167.782,114.784a4.983,4.983,0,0,1,2.328,1.315c.086.088-.067.2-.153.112a4.82,4.82,0,0,0-2.242-1.259C1167.592,114.915,1167.659,114.748,1167.782,114.784Z" transform="translate(-1163.72 -113.452)" fill="#eed9be"/><path d="M1173.764,118.556a6,6,0,0,1,.583.939c.053.107-.127.179-.18.073a5.681,5.681,0,0,0-.555-.9C1173.539,118.572,1173.691,118.459,1173.764,118.556Z" transform="translate(-1167.03 -115.535)" fill="#eed9be"/></g><path d="M1189.195,172.927c.417,0,.863-.738.9-1.28.034-.479-.512-1.158-1.437-1.332-.406-.076-.95.092-1.06.463-.12.4.537.688.888,1.04C1188.942,172.274,1188.9,172.923,1189.195,172.927Z" transform="translate(-1170.706 -144.369)" fill="#ff9733"/><g transform="translate(1.952 12.148)"><path d="M1155.623,139.754c-1.574,1.935-2.111,7.733-1.439,9.589.974,2.688,7.44,5.9,8.1,6.1s.625-.641.132-1.055-5.1-3.873-5.392-5.8c-.18-1.173.769-3.96,1.326-6.32S1156.807,138.3,1155.623,139.754Z" transform="translate(-1153.9 -139.2)" fill="#ff9733"/><path d="M1174.844,174.713c.343-.24.194-1.159-.148-1.661a1.771,1.771,0,0,0-2.085-.335.88.88,0,0,0-.544,1.032c.179.427.909.293,1.437.4C1174.189,174.285,1174.6,174.885,1174.844,174.713Z" transform="translate(-1163.992 -157.762)" fill="#ff9733"/></g></g></g></svg>