<svg xmlns="http://www.w3.org/2000/svg" width="258.75" height="244.021" viewBox="0 0 258.75 244.021"><g transform="translate(5 5)"><path d="M-6304-13232.632h248.75v179.692" transform="translate(6304 13232.632)" fill="none" stroke="#006ab6" stroke-linecap="round" stroke-linejoin="round" stroke-width="10" opacity="0.3"/><path d="M-6304-13196.895h124.375v-35.738" transform="translate(6428.375 13430.915)" fill="none" stroke="#006ab6" stroke-linecap="round" stroke-linejoin="round" stroke-width="10" opacity="0.3"/><path d="M-6304-13232.632h248.75v179.692" transform="translate(6304 13232.632)" fill="none" stroke="#006ab6" stroke-linecap="round" stroke-linejoin="round" stroke-width="9" opacity="0.298"/><path d="M-6304-13196.895h124.375v-35.738" transform="translate(6428.375 13430.915)" fill="none" stroke="#006ab6" stroke-linecap="round" stroke-linejoin="round" stroke-width="9" opacity="0.298"/><path d="M-6304-13232.632h248.75v179.692" transform="translate(6304 13232.632)" fill="none" stroke="#006ab6" stroke-linecap="round" stroke-linejoin="round" stroke-width="7" opacity="0.3"/><path d="M-6304-13196.895h124.375v-35.738" transform="translate(6428.375 13430.915)" fill="none" stroke="#006ab6" stroke-linecap="round" stroke-linejoin="round" stroke-width="7" opacity="0.3"/><path d="M-6304-13232.632h248.75v179.692" transform="translate(6304 13232.632)" fill="none" stroke="#006ab6" stroke-linecap="round" stroke-linejoin="round" stroke-width="5"/><path d="M-6304-13196.895h124.375v-35.738" transform="translate(6428.375 13430.915)" fill="none" stroke="#006ab6" stroke-linecap="round" stroke-linejoin="round" stroke-width="5"/><path d="M-6304-13232.632h248.75v179.692" transform="translate(6304 13232.632)" fill="none" stroke="#5a8dca" stroke-linecap="round" stroke-linejoin="round" stroke-width="4"/><path d="M-6304-13196.895h124.375v-35.738" transform="translate(6428.375 13430.915)" fill="none" stroke="#5a8dca" stroke-linecap="round" stroke-linejoin="round" stroke-width="4"/><path d="M-6304-13232.632h248.75v179.692" transform="translate(6304 13232.632)" fill="none" stroke="#b5c6e6" stroke-linecap="round" stroke-linejoin="round" stroke-width="2"/><path d="M-6304-13196.895h124.375v-35.738" transform="translate(6428.375 13430.915)" fill="none" stroke="#b5c6e6" stroke-linecap="round" stroke-linejoin="round" stroke-width="2"/></g></svg>