<svg xmlns="http://www.w3.org/2000/svg" xmlns:xlink="http://www.w3.org/1999/xlink" width="9" height="18" viewBox="0 0 9 18"><defs><clipPath id="a"><rect width="9" height="18" transform="translate(1404 -5162)" fill="#fff"/></clipPath></defs><g transform="translate(-1404 5162)" clip-path="url(#a)"><path d="M0,0H12V18H0Z" transform="translate(1404 -5162)"/><g transform="translate(1410.743 -5155.976)"><g transform="translate(0 6.057)"><path d="M-6304-13232.632h118.7" transform="translate(6304 13232.632)" fill="none" stroke="#006ab6" stroke-linecap="round" stroke-linejoin="round" stroke-width="10" opacity="0.3"/><path d="M-6304-13232.632h118.7" transform="translate(6304 13232.632)" fill="none" stroke="#006ab6" stroke-linecap="round" stroke-linejoin="round" stroke-width="9" opacity="0.298"/><path d="M-6304-13232.632h118.7" transform="translate(6304 13232.632)" fill="none" stroke="#006ab6" stroke-linecap="round" stroke-linejoin="round" stroke-width="7" opacity="0.3"/><path d="M-6304-13232.632h118.7" transform="translate(6304 13232.632)" fill="none" stroke="#006ab6" stroke-linecap="round" stroke-linejoin="round" stroke-width="5"/><path d="M-6304-13232.632h118.7" transform="translate(6304 13232.632)" fill="none" stroke="#5a8dca" stroke-linecap="round" stroke-linejoin="round" stroke-width="4"/><path d="M-6304-13232.632h118.7" transform="translate(6304 13232.632)" fill="none" stroke="#b5c6e6" stroke-linecap="round" stroke-linejoin="round" stroke-width="2"/></g><path d="M-6304-13232.632h118.7" transform="translate(6304 13232.632)" fill="none" stroke="#dd7b82" stroke-linecap="round" stroke-linejoin="round" stroke-width="10" opacity="0.3"/><path d="M-6304-13232.632h118.7" transform="translate(6304 13232.632)" fill="none" stroke="#dd7179" stroke-linecap="round" stroke-linejoin="round" stroke-width="9" opacity="0.298"/><path d="M-6304-13232.632h118.7" transform="translate(6304 13232.632)" fill="none" stroke="#e41e2d" stroke-linecap="round" stroke-linejoin="round" stroke-width="7" opacity="0.3"/><path d="M-6304-13232.632h118.7" transform="translate(6304 13232.632)" fill="none" stroke="#e41e2d" stroke-linecap="round" stroke-linejoin="round" stroke-width="5"/><path d="M-6304-13232.632h118.7" transform="translate(6304 13232.632)" fill="none" stroke="#e85863" stroke-linecap="round" stroke-linejoin="round" stroke-width="4"/><path d="M-6304-13232.632h118.7" transform="translate(6304 13232.632)" fill="none" stroke="#e6aeb3" stroke-linecap="round" stroke-linejoin="round" stroke-width="2"/></g></g></svg>