<svg xmlns="http://www.w3.org/2000/svg" width="223.093" height="24.067" viewBox="0 0 223.093 24.067"><g transform="translate(0 0)"><path d="M486.987,379c0,5.372-2.988,9.288-7.949,9.288s-7.954-3.916-7.954-9.288,2.988-9.288,7.954-9.288S486.987,373.62,486.987,379Zm3.18,0c0-4.939-2.609-12.029-11.129-12.029-8.537,0-11.129,7.089-11.129,12.029s2.592,12.038,11.129,12.038C487.558,391.041,490.167,383.935,490.167,379Z" transform="translate(-467.909 -366.974)" fill="#fff"/><path d="M499.461,390.618h-3.255l-5.942-22.845H493.6l4.268,18.581h.066l5.12-18.581h3.368l5.123,18.581h.061l4.269-18.581h3.415l-6.024,22.845h-3.241l-5.216-18.93h-.078Z" transform="translate(-456.056 -366.551)" fill="#fff"/><path d="M533.569,367.772h2.988v22.845h-3.478l-11.6-18.449H521.4v18.449h-2.97V367.772h3.649l11.414,18.451h.08Z" transform="translate(-441.126 -366.551)" fill="#fff"/><path d="M543.9,370.413h5.77c4.2,0,6.843,2.892,6.843,8.661s-2.606,8.9-6.623,8.9H543.9Zm-3.083,20.2h9.137c7.508,0,9.739-6.626,9.739-11.746,0-6.578-3.669-11.1-9.614-11.1h-9.262Z" transform="translate(-429.258 -366.551)" fill="#fff"/><path d="M567.413,381.225l3.651-10.053h.08l3.353,10.053Zm8.22,2.736,2.245,6.656h3.382l-8.283-22.845h-3.507l-8.584,22.845h3.192l2.387-6.656Z" transform="translate(-418.615 -366.551)" fill="#fff"/><path d="M591.667,390.618h-3.08v-9.195l-8.63-13.651h3.6L590.1,378.76l6.56-10.988H600.3l-8.635,13.651Z" transform="translate(-408.505 -366.551)" fill="#fff"/><path d="M616.474,374.259c-.174-3.533-3.083-4.644-5.66-4.644-1.943,0-5.232.543-5.232,4,0,1.945,1.374,2.578,2.718,2.894l6.514,1.5c2.955.7,5.184,2.491,5.184,6.108,0,5.415-5.008,6.918-8.93,6.918-4.239,0-5.9-1.281-6.91-2.214a7,7,0,0,1-2.321-5.786h2.892c0,4.135,3.38,5.351,6.309,5.351,2.228,0,5.991-.577,5.991-3.847,0-2.4-1.138-3.163-4.871-4.04l-4.693-1.083c-1.486-.355-4.854-1.408-4.854-5.382,0-3.567,2.306-7.066,7.856-7.066,7.981,0,8.788,4.774,8.9,7.285Z" transform="translate(-396.904 -366.974)" fill="#fff"/></g></svg>