<svg xmlns="http://www.w3.org/2000/svg" width="295.395" height="267.571" viewBox="0 0 295.395 267.571"><path d="M4888.726,1418.2c.067.092-.08.234.173.324.892.32,1.283,1.176,1.984,1.822-.6.163-.626-.527-1.061-.425-.127.086-.2.273-.5.18-.594-.916-1.895-1.127-2.425-2.144-.388,0-.656-.007-.875-.008-.5-.395-.756-1-1.425-1.059.089-.308-.05-.547.31-.82.211.073.532.3.662.21.587-.372.9.075,1.375.243A3.822,3.822,0,0,1,4888.726,1418.2Zm-2.6,3.155,1.382,1.48c.252.025.327-.229.5-.328l1.063,1.138c.15.163.309.282.506.066-.354-.379-.709-.76-1.062-1.141-.152-.163-.309-.28-.508-.065l-.982-1.052C4886.8,1421.429,4886.558,1421.4,4886.127,1421.354Zm-3.785-13.36c.216,1.036,1.179.795,1.471,1.455l.4-.372C4883.961,1408.01,4882.914,1408.678,4882.342,1407.994Zm-13.124,36.823a.243.243,0,0,0-.406-.015A.243.243,0,0,0,4869.218,1444.817Zm14.926-91.322a.225.225,0,0,0-.335-.079.148.148,0,0,0-.007.136A.224.224,0,0,0,4884.144,1353.5Zm-21.258,90.184c-.024.256-.042.435-.057.622.3-.053.669.18.83-.253C4863.593,1443.557,4863.2,1443.742,4862.886,1443.679Zm29.76-24.121a.223.223,0,0,0,.058.339.227.227,0,0,0,.079-.337A.143.143,0,0,0,4892.646,1419.558Zm-25.957,24.872c.031-.289-.1-.425-.387-.427l-.206.192a.344.344,0,0,0,.233.415C4866.521,1444.67,4866.58,1444.5,4866.689,1444.43Zm2.122.371a.2.2,0,0,0-.3-.069.126.126,0,0,0,0,.119A.2.2,0,0,0,4868.811,1444.8Zm20.8-21.116,1.073,1.149c.146-.111.261-.2.435-.328l-1.052-1.127C4889.822,1423.352,4889.749,1423.607,4889.612,1423.685Zm3.09-3.785a2.3,2.3,0,0,1-1.293.771c.265,1.058,1.333,1.134,1.976,1.72.135-.141.205-.216.278-.292C4892.714,1421.511,4892.579,1421.2,4892.7,1419.9Zm-10.275-61.272.3-.278a.847.847,0,0,0-.632-.669l-.3.278A.85.85,0,0,0,4882.427,1358.628ZM4893.721,1344c.086.261.161.494.242.737l.289-.27C4894.253,1344.2,4894.125,1344.074,4893.721,1344Zm-23.252,21.016,3.682,3.943c.267-.159.086-.391.22-.679-1.186-.854-1.518-2.43-2.708-3.321,0-.545.2-1.129-.522-1.429l-.6.259-1.272-1.363c-.123.371.084.486.211.638.795.933.795.933.053,2.061C4869.893,1365.086,4870.2,1365.051,4870.469,1365.021Zm25.2-21.363a3.161,3.161,0,0,0,1.568-.234l1.271-1.187c-.263-.246-.709.078-.729-.527-.848.868-2.047.96-2.6,2.1,0,.1.116.246.414.3C4895.623,1343.975,4895.643,1343.844,4895.673,1343.658Zm-28.323,25.827c-.309-.083-.448.031-.468.286C4867.265,1370.011,4867.189,1369.543,4867.351,1369.485ZM4908,1395.294c.586-.755-.187-1.194-.312-1.718-.134-.548-.818-.963-1.248-1.424.013-.3.02-.568.034-.92l-.834-.893-.947-1.014c.307,1.328,1.027,2.255,1.09,3.515.3.508.805.812,1.085,1.367C4907.081,1394.634,4907.7,1394.8,4908,1395.294Zm-23.135-42.468a.222.222,0,0,0,.079-.336c-.014-.021-.121-.026-.134,0A.225.225,0,0,0,4884.86,1352.826Zm-.712.671c.543.1.779-.118.712-.665Zm-5.756,5.286c-1.824.474-2.814,1.982-4.1,3.118C4876.125,1361.483,4877.08,1359.891,4878.392,1358.783Zm-3.668,10.863c-.181-.038-.26.036-.236.219Q4874.764,1369.923,4874.724,1369.646Zm5.544-12.016c.22-.056.265.152.416.243.35.039.158-.26.233-.431.131,0,.277-.011.452-.02.529-.151-.114-.906.5-1.181-.193.067-.386.137-.877.313l-2.5,2.338C4879.271,1358.7,4879.639,1357.99,4880.268,1357.63Zm-7.344,5.51a.136.136,0,0,0,0-.118.156.156,0,1,0,0,.118Zm-3.559,2.714-.3-.325c-.274.007-.4.131-.452.525Zm45.742,4.583c.56.214,1.118.432,1.675.643l1.3-1.213-1.215-1.3c-.332.136-.519-.294-.841-.273a1.125,1.125,0,0,1-1.21,1.135Zm-33.175,37.692q.057-.272-.22-.236C4881.674,1408.076,4881.748,1408.154,4881.932,1408.129Zm35.126-28.538c.588-.287.508-.66.206-1.208C4916.708,1378.8,4916.81,1379.155,4917.058,1379.591Zm-16.537,1.284c-.455-.023-.657.225-.886.579l1.24,1.328c.282-.155.549-.3.255-.594-.376-.369.294-.511.138-.816C4901.047,1381.175,4900.909,1380.9,4900.521,1380.875Zm8.15,12.137c.006-.193.015-.384.02-.576-.186-.315-.5-.18-.793-.247-.025.235-.049.456-.06.575C4908.124,1393.147,4908.41,1393.016,4908.671,1393.013Zm10.808-56.219c-.1-.528-.17-.888-.241-1.257a2.085,2.085,0,0,1-1.194.115c-.005.149-.01.256-.014.386-.15.045-.307.089-.466.136.063.413.491.54.616.852C4918.7,1337.17,4918.786,1336.289,4919.479,1336.793Zm-11.027,40.335c.019-.633.038-1.212.058-1.846-.193-.244-.4-.109-.611.141-.53-.231-.96-1.043-1.6-.3l-1.235-.518c-.281.01-.513.448-.9.161-.222,1.2-1.286,1.532-1.816,2.342a2.2,2.2,0,0,0,.922,1.571c.288.024.629-.389.96-.177a1.669,1.669,0,0,0,1.986-.217c.374-.253.717-.108,1.171-.169Zm-8.943-11.94.731.01c.344-.281.2-.617.214-.916-.3-.37-.647-.277-1.1-.1C4899.237,1364.6,4899.724,1364.8,4899.509,1365.189Zm-1.324-1.193c.04-.182-.035-.261-.218-.234C4897.926,1363.943,4898,1364.023,4898.185,1364Zm20.807-8.358,1.272-1.188c-.489.041-.882.077-1.488.128l-.236.221C4918.484,1355.209,4918.913,1355.251,4918.992,1355.637Zm-21.622,25.587a2.445,2.445,0,0,0-1.427-1.916c-.491-.1-1.361.386-2.025-.074-.75.368-.966,1.238-1.821,1.15.169.453-.533.71-.353.962.182.744.728.912.884,1.306a10.022,10.022,0,0,0,3.38-.155Zm-27.847,63.543a.156.156,0,1,0,0,.12C4869.537,1444.875,4869.542,1444.779,4869.523,1444.767Zm62.164-26.529a.227.227,0,0,0-.338-.077.152.152,0,0,0,0,.134A.226.226,0,0,0,4931.687,1418.238Zm5.509.652a3.778,3.778,0,0,0-2.125-.636,11.674,11.674,0,0,0-1.605-.069c-.179-.156-.367-.324-.554-.489-.4.23-.929.12-1.224.542A20.581,20.581,0,0,0,4937.2,1418.889Zm29.4-.639c-.03.048.061.176.1.265l.238-.222C4966.832,1418.17,4966.708,1418.085,4966.6,1418.25Zm-29.062.716a.144.144,0,0,0,0-.134.176.176,0,1,0,0,.134Zm-5.1,20.19.679-.633c.014-.407.027-.831.045-1.323-.505.033-.689-.431-1-.693-.292-.018-.485.317-.789.176.155.682-1.007.788-.649,1.56A1.843,1.843,0,0,0,4932.438,1439.157Zm-7.5-15.487c.033-.357-.157-.429-.355-.539C4924.381,1423.505,4924.6,1423.59,4924.935,1423.67Zm-17.246,13.667c-.3,0-.568,0-.952-.01-.373-.736-1.378-.745-1.83-1.461-.358-.014-.449.309-.775.5l-.641-.549c-.325.03-.441.3-.667.488.217.959,1.472.784,1.736,1.581.309.135.431-.113.621-.166.319.016.39.342.865.65.375.014,1.014.03,1.714.049.235.393.079.815-.326,1.225.361.01.575.019.794.025.111-.216-.083-.563.42-.661a3.924,3.924,0,0,0,1.458.688C4909.742,1438.438,4908.245,1438.372,4907.689,1437.338Zm-11.9-9.844c-.259-.332-.493-.349-.689.031-.069.215.12.283.2.406C4895.63,1427.968,4895.784,1427.815,4895.787,1427.494Zm6.513,4.515c.084-.3.371-.008.5-.257l-.99-1.06-.576-.02a2.065,2.065,0,0,0,.919,1.648C4902.448,1432.324,4902.233,1432.085,4902.3,1432.009Zm-34.591,12.673c0-.3-.116-.412-.342-.445C4867.208,1444.533,4867.4,1444.609,4867.708,1444.682Zm30.655,12.2c-.034.161.031.232.2.209C4898.59,1456.933,4898.525,1456.862,4898.363,1456.884Zm-31.357,6.219a.551.551,0,0,0-.33.642c.108.542.407,1.081-.1,1.628.7.888,1.839.339,2.416,1.156.015-.621.028-1.14.045-1.826l-1.459-1.563C4867.392,1463.128,4867.134,1463.113,4867.005,1463.1Zm-43.494,38.139c-.655.19-1.345.268-1.688.99a.881.881,0,0,0,.475,1.061c-.126.247-.218.421-.358.693.6-.172,1.132-.323,1.382-.4C4823.385,1502.807,4823.445,1502.08,4823.511,1501.242Zm65.881-50.12-.6.564a.786.786,0,0,1-.04.988l.4.423a6.339,6.339,0,0,0-.425,1.239,2.349,2.349,0,0,0,.114,1.331c.207.389.187.921.649,1.179s.186,1.137.821,1.152c.521.011.626.913,1.272.416a3.778,3.778,0,0,0,1.768-2.876,6.79,6.79,0,0,1,.437-1.248c-.7-.754-1.449-1.615-2.262-2.4A2.373,2.373,0,0,0,4889.393,1451.122Zm-83.563,60.6q-.054.275.22.236Q4806.106,1511.685,4805.829,1511.719Zm118.915-87.874a33.561,33.561,0,0,0,3.232,5.241c-.009.323-.017.541-.028.89.841.545.881,1.767,1.764,2.34-.012.347-.023.615-.033.9l2.762,2.958c.273-.625-.494-.668-.535-1.111-.037-.4-.07-.939-.325-1.134-.612-.468.113-1.362-.646-1.7.044-.621-.413-.952-.786-1.306a7.651,7.651,0,0,1-1.677-2.582,2.173,2.173,0,0,0-1.471-1.273A5.633,5.633,0,0,0,4924.744,1423.846Zm-14.92,29c.083.187.166.376.247.563l-.146.109,1.667,1.785c.532-.6.214-1.275.368-1.822C4911.53,1452.444,4910.5,1453.5,4909.823,1452.849Zm-10.8-27.089.814.025a12.823,12.823,0,0,0-1.427-1.7,1.6,1.6,0,0,1-1.634-.572C4897.216,1424.73,4898.535,1424.792,4899.026,1425.76Zm-9,46.2c-.283.138-.078.381-.193.594l5.037,5.393.157-.168-3.151-3.374c.014-.35.021-.622.036-.993C4891.276,1473,4891.058,1471.972,4890.025,1471.961Zm-39.453,22.121c.162.52.25,1.082.758,1.373,1.079.236.965-.622,1.276-1.085l-.818-.876C4851.163,1493.316,4850.889,1493.74,4850.572,1494.083Zm49.45-61.967-.617-.225c-.329.449-.15.847-.253,1.286.422-.092.611-.412.856-.647C4900.014,1432.336,4900.021,1432.145,4900.022,1432.116Zm9.58-28.463-.508-.544a1.943,1.943,0,0,0-1.282.033c-.507.279-.863-.464-1.3-.131a.441.441,0,0,1-.666,0,.771.771,0,0,0-.74-.011c-.889.831-1.972.464-2.983.546,0,.355.2.425.506.46.455.054.971-.163,1.354.269a10.063,10.063,0,0,1,4.407-.376l.385-.36a.439.439,0,0,1,.427.149.247.247,0,0,0,.32.052c-.02,0-.033,0-.053,0A1.24,1.24,0,0,0,4909.6,1403.652Zm-6.83,4.614a.226.226,0,0,0-.335-.079c-.022.014-.028.122-.005.135A.225.225,0,0,0,4902.772,1408.266Zm17.8-5.263q-.272-.057-.236.22Q4920.614,1403.278,4920.576,1403Zm-10.971.652a.275.275,0,0,1-.079.088c.669.075.7-.368,1.167-.556-.616-.113-.77.221-1.091.464Zm-8.21,4.563a.23.23,0,0,0,.339.081.158.158,0,0,0,.005-.137A.231.231,0,0,0,4901.4,1408.218Zm-.681-.252.009-.007a1.954,1.954,0,0,0-1.722-.509,2.109,2.109,0,0,0,1.781.578A.409.409,0,0,0,4900.714,1407.966Zm10.355-6.1-.743.694.85.328c.149-.415.679.02.833-.4C4911.95,1401.977,4911.607,1401.842,4911.069,1401.869Zm-10.567,2.06q.483.038.481-.449A.4.4,0,0,0,4900.5,1403.929Zm.892,4.291c-.2-.145-.305-.557-.67-.261.031.025.061.042.09.068-.011,0-.02,0-.031,0C4900.945,1408.2,4901.065,1408.493,4901.394,1408.22Zm2.345.12a.767.767,0,0,0-.931-.1l.6.638C4903.7,1408.782,4903.925,1408.681,4903.738,1408.34Zm-11.66,16.955a.662.662,0,0,0-.558-.726C4891.454,1425.041,4891.929,1425.055,4892.079,1425.295Zm2.912-2.656c.159.546.639.8.932,1.179.281-.057.564.126.8-.095l-1-1.075Zm32.62-30.041c.021-.013.025-.122,0-.134a.219.219,0,0,0-.313.035h.029c-.015.013-.029.018-.042.03A.223.223,0,0,0,4927.61,1392.6Zm-5.194.444c-.243-.194-.363-.535-.85-.625.021.252.038.483.058.72C4921.9,1393.084,4922.184,1393.266,4922.417,1393.043Zm-29.389,32.281c-.047,0-.192,0-.358-.011-.166.5.449.417.682.715C4893.243,1425.794,4893.138,1425.564,4893.027,1425.324Zm31.242-32.677c-.349-.336-.481.074-.7.2C4923.927,1393.19,4924.059,1392.779,4924.269,1392.647Zm-.7.2-.443-.475-.714.666,0,0A.8.8,0,0,0,4923.573,1392.851Zm1.091.173c.277-.058.413-.17.418-.408a.868.868,0,0,0-.82.037C4924.4,1392.787,4924.546,1392.916,4924.665,1393.025Zm2.608-.505c.009-.012.02-.009.028-.019-.5-.021-.945-.038-1.386-.053-.221.18-.178.355.091.622.361-.2.867-.147,1.282-.538Zm-63.1-37.483c-.173-.4-.531-.247-.877-.307a.869.869,0,0,0,.231,1C4863.854,1355.512,4864.155,1355.392,4864.172,1355.036ZM4781,1316.225a.177.177,0,1,0,.136,0A.153.153,0,0,0,4781,1316.225Zm-.55.594c.085.11.176.219.254.319.338.007.472-.153.457-.477C4780.946,1316.524,4780.715,1316.844,4780.455,1316.819Zm34.836-31.21c.01-.3.02-.646.032-.961a1.718,1.718,0,0,0-.707.706C4814.883,1285.764,4815.2,1285.564,4815.291,1285.609Zm-28.325,25.5c-.139-1.131.509-2.343-.266-3.569.677-.548-.425-1.41.243-2.061a3.276,3.276,0,0,1-.333-2.125l-.577-.618a15.114,15.114,0,0,0-.208,1.949c.038.579-.446,1.211.07,1.758-.615.706.39,1.611-.416,2.3.734.805.643,1.791.882,2.708C4786.633,1311.561,4786.7,1311.247,4786.965,1311.106Zm40.252-33.759,1.166-1.088c-.095-.239-.3-.4-.2-.663-.18-.2-.59.108-.591-.3-.132,0-.193-.013-.219.011-.279.251-.552.508-.836.773C4826.763,1276.484,4826.649,1277.063,4827.217,1277.347Zm-12.944,10.549c.151-.685.3-1.371.45-2.053A1.544,1.544,0,0,0,4814.273,1287.9Zm-28.168,11.175a.127.127,0,0,0-.12,0,.156.156,0,1,0,.12,0Zm.306,3.474a1.319,1.319,0,0,0,0-.221c-.269.006-.481.189-.357.392C4786.207,1302.971,4786.265,1302.574,4786.411,1302.545Zm18.358-16.766c.105-1.158-.3-1.794-2-3.222-.011.2-.024.376-.041.638C4803.644,1283.794,4803.9,1284.99,4804.769,1285.779Zm-18.748,14a.244.244,0,0,0,.014-.405A.244.244,0,0,0,4786.021,1299.777Zm-.292.283a1.146,1.146,0,0,0,0,.22c.266,0,.479-.19.356-.391C4785.933,1299.632,4785.875,1300.031,4785.729,1300.06Zm27.608-7.836c.024-.324-.124-.483-.449-.481A.4.4,0,0,0,4813.338,1292.224ZM4797.6,1311.7l.563-.526-.23-.322C4797.748,1310.842,4797.727,1310.9,4797.6,1311.7Zm.145-1.462c.283.022.424-.11.423-.4C4797.887,1309.82,4797.747,1309.951,4797.748,1310.234Zm-.1,1.821a.156.156,0,1,0-.117,0C4797.538,1312.071,4797.633,1312.074,4797.644,1312.055Zm.546-2.823c.033-.161-.033-.231-.195-.209C4797.961,1309.184,4798.027,1309.254,4798.189,1309.232Zm-6.882,4.442a.811.811,0,0,1-.068.07.447.447,0,0,0-.03-.112c-.038.476.08.638.371.65C4791.718,1314.009,4791.491,1313.913,4791.308,1313.675Zm43.929-28.766c-.179-.038-.258.035-.232.217C4835.185,1285.166,4835.264,1285.092,4835.237,1284.909Zm-13.547,1.839-.689.3C4821.153,1287.314,4821.153,1287.314,4821.69,1286.748Zm-4.624,4.279c.669-.138.284-.784.672-.974a.359.359,0,0,0-.43-.264C4816.938,1290.145,4817.207,1290.586,4817.066,1291.026Zm-25.853,22.5a.834.834,0,0,0,.094.146c.523-.514.281-1.017.4-1.471-.482.059-.687.441-.96.719,0,.359.353.444.467.71C4791.212,1313.595,4791.208,1313.57,4791.213,1313.528Zm33.131-66.766c-.1-1.112-.94-1.657-1.483-2.305-.638-.169-1.047-.006-1.163.338-.231.7-1.07,1.381-.151,2.2.126.113,0,.516-.01.782.24.131.348-.121.533-.181.33-.014.363.359.757.49A14.246,14.246,0,0,0,4824.344,1246.762Zm48.279,116.308a.2.2,0,0,0-.3-.07.122.122,0,0,0,0,.119A.2.2,0,0,0,4872.623,1363.07Zm-140.515-28.27c.033-.159-.033-.229-.192-.206C4731.88,1334.753,4731.945,1334.823,4732.108,1334.8Zm4.58,3.927c-.8-.648-1.146-1.685-2.219-2.083-.476-.179-.791-.794-1.176-1.206-.348.2-.559-.4-.895-.166.268.518.957.708.888,1.4.641-.03.915.51,1.168.906.288.441,1.029.4,1.043,1.09A1.8,1.8,0,0,0,4736.688,1338.726Zm74.629-88.511c.079-.483.5-.852.213-1.366h0l-.519.485C4811.03,1249.63,4810.854,1249.989,4811.317,1250.215Zm-.153.35q-.241-.049-.208.194Q4811.2,1250.809,4811.165,1250.565Zm.364-1.716a.243.243,0,0,0,.015-.406A.243.243,0,0,0,4811.529,1248.85Zm-.023-.379a.777.777,0,0,0,.315-.973C4811.275,1247.73,4811.447,1248.1,4811.505,1248.47Zm-79.111,86.849a.2.2,0,0,0-.3-.069c-.021.01-.022.107,0,.118A.2.2,0,0,0,4732.395,1335.319Zm53.527-38.592c.008.008,0,.012.01.021l.013.011c.416-.487.36-.825.013-1.183.029.474-.415.654-.608.976.215.107.419,0,.568.182Zm7.284-7.976c-.036.159.03.229.192.206C4793.432,1288.8,4793.366,1288.727,4793.206,1288.751Zm-7.3,8.382a.237.237,0,0,0,.023-.384c0-.008-.01-.009-.014-.014A.241.241,0,0,0,4785.908,1297.133Zm.238.926c.122-.244-.075-.333-.238-.544a.049.049,0,0,1-.014.023.311.311,0,0,1-.072-.146h0C4785.763,1297.895,4785.871,1298.044,4786.146,1298.058Zm-.324-.666a.932.932,0,0,0,.086.122.237.237,0,1,0-.086-.122Zm45.884-46.748c-.673-.853-.771-.009-1.222.029l.43.459C4831.319,1251.115,4831.363,1250.733,4831.706,1250.644Zm-52.564,44.553.5-.465c-.105-.541-.661-.748-.87-1.161-.124,0-.223-.009-.223-.009-.036.406-.063.807-.088,1.164C4778.724,1294.93,4778.812,1295.241,4779.142,1295.2Zm7.011-2.685a.872.872,0,0,1,.043-.96l-.429-.459a.831.831,0,0,0-.584.992,1.65,1.65,0,0,0,.715.715C4786,1292.692,4786.175,1292.558,4786.153,1292.512Zm-28.766,19.424c.247-.361-.18-.3-.216-.45C4757.055,1311.782,4757.224,1311.844,4757.387,1311.936Zm44.414-30.806a.665.665,0,0,0-.606-.649A.665.665,0,0,0,4801.8,1281.131Zm25.223-32.436,1.194-1.115c.124-.383-.568-.566-.006-1.093a3.176,3.176,0,0,0-2.778,1.029C4825.721,1248.313,4826.39,1248.475,4827.024,1248.694Zm-2.229,47.169c-.122-.259-.234-.491-.312-.654l-.205.191C4824.278,1295.674,4824.407,1295.8,4824.8,1295.864Zm14.478,39.7c-.376-.255-.3.229-.474.275C4839.114,1335.944,4839.237,1335.812,4839.273,1335.563Zm17.994,10.915c-.285-.453-.093-.935-.147-1.394-.239-.005-.455-.014-.676-.022C4856.635,1345.569,4856.63,1346.18,4857.268,1346.478Zm24.26-10.12a7.367,7.367,0,0,0,2.443-2.282Zm-31.187-8.086a.394.394,0,0,0,.481-.449C4850.5,1327.8,4850.338,1327.947,4850.34,1328.272Zm20.873-.494c-.021-.558.631-.707.84-1.4l-2.307,2.154C4870.448,1328.545,4870.555,1327.655,4871.213,1327.778Zm-1.906-13.266a.349.349,0,0,0,.425-.4C4869.446,1314.094,4869.306,1314.225,4869.307,1314.512Zm10.32,24.122c.435-.354,1.021-.356,1.547-.722a.89.89,0,0,1,.007-1.126,2.733,2.733,0,0,0-.407.215C4880.248,1337.434,4880.173,1338.184,4879.627,1338.634Zm5.167-27.37c.456-.067.668-.445.926-.715.069-.235-.119-.3-.28-.543l-.856.8C4884.514,1311.057,4884.7,1311.126,4884.794,1311.264Zm3.117,13.446-.63-.046c-1.553,1.162-3.126,2.338-4.753,3.554.634.282.656-.47,1.077-.424.113.073.225.144.339.215.046,0,.12.021.138,0C4885.146,1326.7,4886.91,1326.185,4887.912,1324.709Zm-9.633,22.026c.728-.064.733-.592.726-1.192A.993.993,0,0,0,4878.278,1346.735Zm-30.423,125.138a1.494,1.494,0,0,1,.236.865c.54.218.912.145,1.191-.33.01-.271.02-.6.033-.937C4848.826,1471.48,4848.282,1471.228,4847.855,1471.873Zm42.987-126.808L4887.7,1348c1.558-.042,2.384-.928,3.314-1.811.213.14.34.22.475.3.313.033.087-.226.181-.324.765-.206,1.181-.842,1.8-1.4C4892.43,1344.53,4891.688,1345.375,4890.842,1345.065Zm-24.835,13c-.1.313.026.436.275.473C4866.539,1358.16,4866.053,1358.234,4866.007,1358.064Zm1.448,1.888c-.181-.038-.262.037-.235.22C4867.4,1360.212,4867.482,1360.137,4867.455,1359.952Zm.973-8.263c.038-.181-.037-.261-.219-.235C4868.17,1351.635,4868.244,1351.715,4868.428,1351.689Zm-1.775,1.292-1.344,1.255C4866.017,1354.119,4866.348,1353.548,4866.652,1352.982Zm-1.71,6.077c.6-.038.372-.5.441-.869C4864.807,1358.4,4865,1358.766,4864.942,1359.059Zm11.249-13.176c.087-.374-.026-.521-.211-.6-1.851.789-3.081,2.312-4.783,3.795a3.085,3.085,0,0,0,2.083-1.013c.489-.5,1.011-.961,1.527-1.432C4875.222,1346.251,4875.565,1345.745,4876.191,1345.883Zm-5.74.583c-.118-.025-.187,0-.219.071-.013-.227-.03-.456-.025-.687,0-.026-.008-.052-.007-.082.173.2.5.511.647.236.183-.344-.123-.9-.312-1.173-.5-.716-1.978-2.834-3.07-1.821-.8.744-.835,2.231-.8,3.238a5.112,5.112,0,0,0,.293,1.671,2.96,2.96,0,0,0,.624,1.008,3.48,3.48,0,0,0-1.311,1.733c-.212.013-.367.02-.636.034-.14.959-1.1,1.359-1.668,2.114l.344.421,2.526-2.359c.012-.217.03-.537.048-.854l.974-.909a.514.514,0,0,0,.194.031,1.7,1.7,0,0,0,.7-.243.307.307,0,0,0,.1.046c.126-.111.227-.2.316-.288l.039-.023a2.153,2.153,0,0,0,.864-.79,2.309,2.309,0,0,0,.176-1.153C4870.4,1346.711,4870.475,1346.639,4870.451,1346.465Zm-30.7-53.521c-.1-.625-.6-.9-1-1.259C4838.839,1292.327,4839.4,1292.542,4839.751,1292.944Zm-30.883,26.509c-.245-1.165.7-1.824.813-2.756-.075-.059-.146-.116-.215-.174a.933.933,0,0,0-.247.092c-.234.176-.028.558-.346.717-.388.2-.429.557-.445.961-.014.3-.09.738-.292.857-.719.43-.414,1.22-.97,1.913C4808.174,1320.652,4807.954,1319.511,4808.868,1319.453Zm29.589-28.383c.193-.809-.25-1.182-.813-1.539C4837.452,1290.34,4837.9,1290.715,4838.457,1291.07Zm1.088,2.679,1.478,1.582a4.473,4.473,0,0,0-1.447-2.445C4839.559,1293.332,4839.552,1293.549,4839.545,1293.749Zm2.485,2.971a1.841,1.841,0,0,0-.968-1.111A1.473,1.473,0,0,0,4842.03,1296.72Zm-32.325,13.922c.125-.286-.357-.439-.1-.839-.422.126-.76.228-1.263.377l.6.641C4809.213,1310.805,4809.41,1310.518,4809.705,1310.642Zm8.166-6.173a.375.375,0,0,1,.009.047.914.914,0,0,1,.072.118c.067-.571-.054-.74-.366-.755-.14.273.085.369.27.6Zm-.714.667.666.714a1.769,1.769,0,0,0,.057-1.334c-.009-.011-.016-.02-.024-.032Zm.418,1.97c.712-.376.712-.376.248-1.256C4817.335,1306.192,4817.393,1306.62,4817.576,1307.106Zm25.212-8.585a.222.222,0,0,0,.03-.216.31.31,0,0,0,0,.037,1.088,1.088,0,0,0-.1-.146.223.223,0,0,0-.069.32C4842.666,1298.54,4842.774,1298.545,4842.788,1298.521Zm-2.006,13c-.006-.339-.011-.67-.016-1.069-.828.327-.985,1.125-1.44,1.677.068.164.137.326.208.5l-.643.6c.029.431-.2.9.28,1.394C4839.835,1313.591,4839.681,1312.219,4840.782,1311.525Zm6.027-6.847a.936.936,0,0,0-.736-.768A.936.936,0,0,0,4846.809,1304.678Zm5.9,8.954a1.448,1.448,0,0,0-.565-1.078c-.244-.29-.516-.556-.833-.895.143-.228.225-.353.306-.483-.584-.984-1.355-1.858-1.941-2.81-.116-.187-.24-.357-.364-.529a.613.613,0,0,1,.12-.11c-.259-.421-.259-.421-.405-.51,0,.064-.006.151-.007.229-.483-.608-1.015-1.177-1.58-1.836-.046.719.537.826.639,1.239-.086.178-.174.358-.26.533a25.422,25.422,0,0,1,2.128,3.21A22.641,22.641,0,0,0,4852.71,1313.632Zm4.822-20.358a.394.394,0,0,0-.448-.48C4857.06,1293.115,4857.208,1293.274,4857.532,1293.273Zm-33.917,23.205a3.553,3.553,0,0,0,1.633-2.465c.039-.415.487-.6.555-1.059a6.18,6.18,0,0,0,.024-.786l-1.492,1.394c-.047.066.472.184.223.548a9.7,9.7,0,0,0-1.139,1.787C4823.325,1316.131,4823.383,1316.231,4823.615,1316.478Zm19.117-18.3a.237.237,0,0,1,.086.124c.054-.534-.065-.7-.37-.717-.139.274.087.37.273.608A.041.041,0,0,1,4842.732,1298.181Zm-2.221,34.59.235-.22a.39.39,0,0,0-.265-.468c-.218-.068-.283.122-.407.2C4840.038,1332.615,4840.19,1332.771,4840.511,1332.771Zm1.406-35.661a.176.176,0,1,0-.135-.005A.147.147,0,0,0,4841.917,1297.11Zm-16.727,23.406c.459-.409.755-.571.884-.891a.779.779,0,0,1-.492-.54c-.12.071-.234.14-.429.258-.425-.309-.706-.968-1.674-.693l-.269.252a1.827,1.827,0,0,0,1.028.835C4824.555,1319.829,4825.171,1319.714,4825.19,1320.516Zm-121.2,137.353-.591.2c-.02.065-.088.265-.17.5A.926.926,0,0,0,4703.988,1457.869Zm2.408-2.4c-.468.069-1.081.275-1.129.7-.068.572-.643.68-.723,1.153.892.063,1.314-.661,1.872-1.087.006.25.014.509.02.8l.8.854c.9.307,1.313-.641,2.053-.851.826-.233.535-1.37,1.125-1.927a1.885,1.885,0,0,0-1.252-.665l.148-.138a9.789,9.789,0,0,1,2.23-1.992c.856-.386,1.306-1.285,2.28-1.477.357-.069.633-.549.944-.839.246.007.485.015.767.026l2.585-2.414c-.119-.332-.427.008-.579-.263-.8,1.182-2.2,1.473-2.965,2.444-.312-.021-.37-.319-.668-.173-1.176,1.312-2.94,2.055-4.134,3.472a4.676,4.676,0,0,0-1.888,1.361c-.171.007-.341.011-.512,0l-.413.385-.221-.054a.543.543,0,0,0-.284.526l-.06.056C4706.4,1455.4,4706.4,1455.435,4706.4,1455.469Zm27.234-54.477a2.577,2.577,0,0,1,.4-1.658c-.709-.432-1.393-.236-2.056-.477C4731.323,1400.441,4733.013,1400.294,4733.63,1400.992Zm-1.373,60.113-.024.7c.561-.209.816-.739,1.253-.968.007-.238.015-.426.023-.706C4732.948,1460.348,4732.695,1460.876,4732.258,1461.1Zm-4.309-63.029a5.442,5.442,0,0,1,.153,2.083,2.23,2.23,0,0,1,1.011,1.583c.445.066.541-.262.765-.4-.081-.481-.435-.973.074-1.42a2.2,2.2,0,0,1-.187-1.377l-.662-.711-.89-.245C4727.935,1397.753,4727.9,1397.939,4727.949,1398.075Zm-4.753,1.917c.315.329.783.054.873.539l.463-.432A.843.843,0,0,0,4723.2,1399.992Zm19.294,52.93-1.064-.42c-.277.5.192.727.033,1.051C4741.91,1453.556,4741.988,1453.088,4742.49,1452.922Zm.2-23.708c.161.033.23-.033.209-.195C4742.741,1428.986,4742.671,1429.051,4742.693,1429.214Zm-10.3,27.011c-.991.188-.863,1.271-1.4,1.765A2.35,2.35,0,0,0,4732.4,1456.225Zm9.619-26.919c-.582.36-1.081.727-.868,1.471.3.3.581.145.823.208l.78-.728C4742.635,1429.846,4742.289,1429.66,4742.016,1429.306Zm-17.42-29.2.626.671C4725.073,1400.174,4725.073,1400.174,4724.6,1400.1Zm-2.72-.962c-.529.231-.527.464-.216.74a.392.392,0,0,0,.46-.263C4722.183,1399.392,4722,1399.325,4721.875,1399.143Zm7.233-34.945c-.171.142-.353.265-.168.566.364.282.844.094,1.368.183C4730.027,1364.226,4729.394,1364.556,4729.109,1364.2Zm-45.2,34.853c.181.039.261-.036.235-.22C4683.967,1398.8,4683.886,1398.87,4683.911,1399.051Zm38.637-35.294a4.71,4.71,0,0,1-1.277-.2,3.864,3.864,0,0,0,2.732,1.375,1.782,1.782,0,0,1,1.293.6c.295-.47.86-.453,1.367-.754-.4-.411-1.012.011-1.266-.469-.594.176-.772-.673-1.405-.529A8.154,8.154,0,0,1,4722.548,1363.757Zm-33.328,35.281c-.282-.415-.634-.23-1.167-.353l.724.776A.4.4,0,0,0,4689.22,1399.037Zm3.541-.016,0,0c.633.14,1.144.485,1.9.219a1.679,1.679,0,0,1,2.007.521c.241-.181.447-.332.654-.485.608.356,1.191-.114,1.819-.032a3.13,3.13,0,0,0-2.073-1.13c-.324,0-.644-.019-.969-.031A5.741,5.741,0,0,0,4692.761,1399.021Zm7.5.13c-.036.184.039.264.222.237C4700.521,1399.209,4700.447,1399.129,4700.261,1399.151Zm22.786-25.05c.161.035.23-.03.208-.193C4723.093,1373.875,4723.023,1373.94,4723.047,1374.1Zm-30.606,24.83a.148.148,0,0,0,0,.136.224.224,0,0,0,.32-.041h0l.007,0c.005-.005.012,0,.018-.011A.228.228,0,0,0,4692.44,1398.932Zm77.733,52.358c.009-.273.013-.416.02-.58l-1.019-1.09c-.268-.007-.4.332-.676.179-.019.5-.721.707-.51,1.436.343.2.45.91,1.315.809C4769.668,1451.939,4769.838,1451.455,4770.173,1451.29Zm-12.135,3.137c.083.378.159.726.236,1.082.374.012.7.357,1.162.269l.837-.783c-.016-.4-.034-.867-.053-1.347-.3.06-.451-.337-.786-.526Zm-26.371,8.22a3.918,3.918,0,0,0-1.1.894c-.065.239.1.3.361.684C4730.825,1463.384,4731.5,1463.246,4731.667,1462.647Zm21.949-3.786a1.119,1.119,0,0,1-.132,1.5c.6.136,1.025-.195,1.5-.019l.872-.814c.01-.36.023-.691.034-1.025l-.379-.406c-.251-.1-.369.305-.63.162-.065-.063-.131-.129-.22-.212C4754.244,1458.16,4754.032,1458.563,4753.616,1458.861Zm5.679-.1c-.4-.058-.475.3-.686.367-.134.276.067.414.166.56.018.36-.35.4-.492.8,0,.209,0,.584.008,1.131l.884-.826C4758.949,1460.181,4759.852,1459.514,4759.295,1458.764Zm2.813-2.209c.714-.015.36-.586.595-1.012C4761.953,1455.813,4762.171,1456.231,4762.108,1456.555Zm-5.343,9.6a.243.243,0,0,0,.016-.405A.243.243,0,0,0,4756.765,1466.158Zm-.747.744a.365.365,0,0,0,.4.366c.362-.276.213-.743.369-1.084Zm-35.625-103.886c-.286.18.162.245.2.409a1.046,1.046,0,0,0,.249-.005C4720.833,1363.118,4720.623,1362.876,4720.394,1363.015Zm36.386,102.734a.2.2,0,0,0,.068-.3.132.132,0,0,0-.117,0A.2.2,0,0,0,4756.78,1465.75Zm5.288-7.374a.365.365,0,0,0-.214-.023c.049-.075.1-.164.171-.178a1.386,1.386,0,0,0,0-.25c-.308.007-.551.216-.409.444a.149.149,0,0,0,.028.032c-.217.068-.437.141-.618-.108a3.534,3.534,0,0,0-.262,1.588c.8.145,1.021-.48,1.441-.757C4762.148,1458.841,4762.314,1458.59,4762.068,1458.375Zm-3.591-18.161c-.4.15-.24.678-.55.914-.042.237.21.415.181.679-.091.087-.181.169-.271.255-.063.059-.057.192-.083.289l.616.022a1.077,1.077,0,0,1,.159-.448c.519.061.275.262.432.332.94-.188,1.016-.218,1.863-1.555a1.645,1.645,0,0,1,.654-.232c.086-.3-.067-.392-.167-.513a.407.407,0,0,0-.1-.018c0-.1-.052-.162-.183-.142a.183.183,0,0,0,.022.17,1.154,1.154,0,0,0-.294.258c-.385-.185-.875-.182-1.262-.57A1.719,1.719,0,0,1,4758.477,1440.215Zm-3.119,4.819c.184.036.264-.038.238-.222C4755.414,1444.774,4755.334,1444.849,4755.358,1445.034Zm7.6,9.16-.131.122c-.048.074-.1.156-.166.169a1.343,1.343,0,0,0,0,.248c.3-.005.543-.216.4-.445C4763.03,1454.218,4762.993,1454.193,4762.96,1454.194Zm-14.613-6.178c.181.039.26-.035.234-.219C4748.4,1447.76,4748.321,1447.834,4748.347,1448.016Zm7.4-2.8a1.686,1.686,0,0,0,1.014,1.086A1.686,1.686,0,0,0,4755.75,1445.213Zm-18.189,23.225c-.95.484-.665,1.457-1.037,2.115l.639.684c.093.246-.125.339-.2.528.075.431.773.575.613,1.081.962.6,1.97.191,3.042.134.956-.438.406-1.8,1.277-2.373a1.266,1.266,0,0,1,.05-1.4c-.322-.335-.708-.626-.636-1.065-.664-.024-1.272-.044-2.108-.071A2.276,2.276,0,0,1,4737.561,1468.438Zm25.86-16.734a6.23,6.23,0,0,1-.631,2.65l.04-.037c.042-.063.084-.121.131-.122l.85-.793c.078-.445-.069-.942.309-1.33l-.486-.52C4763.431,1451.489,4763.394,1451.543,4763.42,1451.7Zm-5.631-2.472c-.764.637-.764.645-.051,1.5C4758.379,1449.943,4758.379,1449.943,4757.79,1449.232Zm-1.14-1.622a.394.394,0,0,0,.45.481C4757.123,1447.768,4756.975,1447.609,4756.65,1447.61Zm43.432-187.9a16.407,16.407,0,0,0,.464,2.027c.706-1.675.3-3.058.454-4.557-.547.353-.415.981-.866,1.148-.037.324.26.4.375.608C4800.6,1259.285,4800.152,1259.318,4800.082,1259.707Zm-80.7,81.871a.243.243,0,0,0,.405.014A.243.243,0,0,0,4719.386,1341.578Zm-7.113-1.451.5-.033C4712.519,1339.776,4712.519,1339.776,4712.272,1340.127Zm7.614,1.362c0,.208-.006.4-.012.745.233-.184.33-.261.417-.333C4720.3,1341.6,4720.143,1341.5,4719.886,1341.489Zm-2.373-.482c.363.62.363.62,1.466.557C4718.646,1340.97,4717.9,1341.459,4717.513,1341.006Zm29.372,127.739c.3,1.192.3,1.192.08,1.876,0,.049-.024.111,0,.142a2.652,2.652,0,0,1,.336,1.82l-1.776,1.659-.635-.545a2.382,2.382,0,0,1-2.192.844c.109.178.178.294.256.421-.108.5-.681,1.053-.409,1.489.348.555-.5.958-.092,1.284.333.414.489.083.678.04.347.025.4.538.83.444a4.162,4.162,0,0,0,2.183-1.367c.031-.894.062-1.8.092-2.719.12-.32.421-.477.66-.7a3.818,3.818,0,0,1,1.773.265c.482-.651,1.133.5,1.593-.315.048.337.071.508.095.667,1.061.143,1.061.143,1.7-.236.113.072.227.142.381.243l1.483-1.385c.331-1.274-.071-2.383,0-3.419.19-.352.479-.161.71-.3.233-.344.111-.749.144-1.134-.82-.14-1.235.6-2.067.635l-.793-.849c-.114-.327.308-.657.27-1.144l1.16-1.083-1.06.27c-.3-.507-.288-1.008-.678-1.25.119-.19.192-.3.289-.456L4751,1463q-1.494.07-3.187.15l-.832.776a2.815,2.815,0,0,1-.71,2.062,7.867,7.867,0,0,0-1.265,2.671C4745.623,1468.918,4746.218,1468.187,4746.885,1468.746Zm19.577-140.488q-.051.242.194.208C4766.687,1328.306,4766.623,1328.237,4766.461,1328.258Zm-35.74,16.151.551.59C4731.141,1344.47,4731.141,1344.47,4730.721,1344.409Zm-9.76-2.68a.345.345,0,0,0-.231.481c.377.284.832.108,1.333.171C4721.766,1341.875,4721.279,1341.959,4720.961,1341.729Zm4.656,1.769a1.251,1.251,0,0,1,.7.457l1.527-.017c.33.468.851.5,1.217.757.174-.115.236-.281.444-.222.146.128.316.277.482.421.32-.049.449-.333.671-.49-.329-.766-1.161-.652-1.691-.693s-.868-.806-1.453-.33a3.111,3.111,0,0,0-1.483-.26,2.428,2.428,0,0,1-.616-.24,7.127,7.127,0,0,0-3.418-.6A6.657,6.657,0,0,0,4725.617,1343.5Zm-47,39.039-.631-.021a8.69,8.69,0,0,0,3.034,2.747c.087-.1.253-.153.2-.432-.434-.279-1.231-.348-1.153-1.206C4679.315,1383.629,4679.167,1382.869,4678.615,1382.537Zm40.364-40.973a.245.245,0,0,0,.407.015A.245.245,0,0,0,4718.979,1341.563Zm-14.373-3.632c-.231-.041-.362.056-.5.374l.757.037C4704.735,1338.132,4704.667,1338.024,4704.606,1337.931Zm42.658-48.489.492.527c.493.073.509-.4.884-.579C4748.023,1288.949,4747.618,1288.866,4747.264,1289.442Zm-75.461,87.165c-.373.231-.263.557-.2.911.44.34,1.062.469,1.363,1.049a.556.556,0,0,0,.163-.669c-.184-.21-.163-.423-.175-.787C4672.388,1377.194,4672.187,1376.707,4671.8,1376.607Zm39.863-56.833a1.7,1.7,0,0,0,1.016,1.088A1.7,1.7,0,0,0,4711.665,1319.774Zm41.664-30.919c-.28-.106-.552-.215-.834-.327-.025.075-.1.182-.071.228.164.254.481.389.434.8a2.429,2.429,0,0,0,.56,2.181,1.786,1.786,0,0,0,.567,1.982c.564.58.489,1.551,1.4,1.906.026-.628.048-1.169.074-1.739-.674-.4-.716-1.2-1.1-1.785.1-.14.186-.263.334-.471-.769-.458-.71-1.46-1.392-1.96C4753.312,1289.37,4753.32,1289.1,4753.329,1288.855Zm-47.782,49.3c-.242.007-.356.117-.4.463l.667-.176Zm49.687-42.457c-.027.345-.221.666,0,.863.288.234.434.1.591-.1C4755.913,1296.042,4755.44,1295.943,4755.234,1295.7Zm6.757-4.079c-.04.181.035.259.22.235C4762.247,1291.669,4762.173,1291.59,4761.991,1291.616Zm-45.388,39.959-1.218-1.3c-.136.354-.254.656-.368.957l.351.375C4715.845,1331.594,4716.239,1331.585,4716.6,1331.576Zm153.69,76.732a.278.278,0,0,0,.461.015A.278.278,0,0,0,4870.293,1408.307Zm-120.122,22.814c-.621.492-.621.492-.21.783C4750.01,1431.721,4750.071,1431.493,4750.172,1431.121Zm-16.617-14.98c-.2.285-.532.36-.5.688.276.817,1.083-.735,1.378.216l.011-.308c.118-.174.4.125.485-.228C4734.575,1415.875,4733.948,1416.435,4733.555,1416.141Zm30.436-92.882a2.081,2.081,0,0,0-.835.638c-.011.329-.021.659-.034.993l.6.64q.458,0,.985,0a1.055,1.055,0,0,0-.395-1.087c.112-.216.3-.252.239-.472l-.422-.11C4763.915,1323.718,4763.994,1323.472,4763.991,1323.26Zm-11.249,116.907c.058.277.167.416.408.42a.88.88,0,0,0-.037-.823C4752.982,1439.91,4752.85,1440.048,4752.742,1440.167Zm34.445-114.173a.274.274,0,0,0,.018-.459A.274.274,0,0,0,4787.188,1325.994Zm-34.05,113.321a.274.274,0,0,0-.018.459A.274.274,0,0,0,4753.137,1439.315Zm84.777,23.286c.341.452.064,1.023.287,1.492s.034.944.087,1.479l1.19,1.275,1.309-1.222c-.017-.48.287-1.112-.357-1.524-.11-.257.128-.368.217-.538-.381-.6-.431-1.4-1.093-1.788.014-.315.021-.583.032-.908l-1.609-1.722c-.33-.04-.4.324-.829.451-.371.031-.4-.765-.946-.742l-1.195,1.116c-.035.448.409.112.537.323a2.774,2.774,0,0,0,.378.415c.612-.089.736-.995,1.619-.505.03.285.05.783.122,1.231C4837.73,1461.823,4838.648,1462.079,4837.915,1462.6Zm-117.987-99.584a.15.15,0,0,0,0,.134.178.178,0,1,0,0-.134Zm151.3,44.862-.475.443c1.621-.046,1.621-.046,2.324-.439a2.646,2.646,0,0,0-2.294-.48Zm-136.832,3.5c-.038.18.036.26.219.234C4734.655,1411.431,4734.581,1411.352,4734.4,1411.378Zm53.833-91.315c.062.205.125.409.183.6C4788.816,1320.533,4788.7,1320.315,4788.231,1320.063Zm-.933,3.584a.9.9,0,0,0,.128,1.195c.163-.37.3-.687.414-.95C4787.625,1323.546,4787.484,1323.568,4787.3,1323.647Zm82.306,77.3c.147.6.147.6.624.668Zm-82.321-75.756a.155.155,0,0,0-.135,0,.177.177,0,1,0,.135,0Zm83.012,76.434a.228.228,0,0,0,.336.08c.022-.014.026-.122,0-.136A.225.225,0,0,0,4870.3,1401.627Zm5.523,1.67c.033-.161-.033-.231-.2-.209C4875.59,1403.249,4875.656,1403.319,4875.819,1403.3Zm.6.224c.033-.161-.032-.231-.194-.208C4876.192,1403.472,4876.257,1403.543,4876.42,1403.521Zm-38.809,53.994,1.121-1.046c.182-.819.356-1.61.577-2.6-.068-.221-.53-.51-.467-.96a5.609,5.609,0,0,0-4.059-1.192c-.215.222-.6.41-.427.781a5.261,5.261,0,0,1,.066,3.254l1.611,1.725C4836.545,1457.027,4837.045,1457.619,4837.611,1457.514Zm34.6-54.787c.18.04.26-.035.234-.218C4872.268,1402.47,4872.187,1402.545,4872.215,1402.727Zm-82.991,84.009a.178.178,0,1,0,.135.005A.159.159,0,0,0,4789.224,1486.736Zm-10.368,13.059c-.761-.206-1.143-1.127-2.1-1.064A2.394,2.394,0,0,0,4778.856,1499.8Zm4.749-4.284a1.315,1.315,0,0,0,0,.25c.3-.005.546-.216.407-.445C4783.835,1495.028,4783.77,1495.478,4783.6,1495.512Zm-4.333,4.511c.005.3.217.546.443.406.289-.178-.161-.245-.2-.409A1.273,1.273,0,0,0,4779.272,1500.022Zm9.928-12.6a.15.15,0,0,0,.135,0,.178.178,0,1,0-.135,0Zm14.351,23.525c.183.041.263-.034.234-.219C4803.607,1510.691,4803.526,1510.766,4803.552,1510.947Zm-20.125-14.393a.229.229,0,0,0,.082-.339c-.016-.022-.123-.026-.136,0A.228.228,0,0,0,4783.426,1496.554Zm10.143-10.364c.039-.181-.034-.26-.219-.235C4793.314,1486.137,4793.388,1486.216,4793.569,1486.19Zm-9.635,9a.278.278,0,0,0,.016-.462A.278.278,0,0,0,4783.934,1495.193Zm-.838,1.684a1.376,1.376,0,0,0,0,.248c.307,0,.551-.214.41-.442C4783.328,1496.392,4783.261,1496.842,4783.1,1496.877Zm-23.008,5.02c.006.309.215.549.444.41.289-.179-.161-.244-.195-.409A1.246,1.246,0,0,0,4760.088,1501.9Zm23.942-7.5a.153.153,0,0,0-.135-.005.177.177,0,1,0,.135.005Zm-12.921,2.092a.4.4,0,0,0-.45-.481A.4.4,0,0,0,4771.109,1496.483Zm-9.123,6.174.864.925a.9.9,0,0,1,1.1.025C4763.973,1502.956,4763.012,1502.435,4761.986,1502.657Zm-1.327-.429a.226.226,0,0,0,.339.077c.023-.011.027-.118,0-.133A.229.229,0,0,0,4760.66,1502.227Zm7.676-7.1.625.67C4768.813,1495.193,4768.813,1495.193,4768.336,1495.123Zm39.571-30.551c-.329-.036-.481.118-.484.438l.22.235a.4.4,0,0,0,.47-.267C4808.181,1464.763,4807.992,1464.7,4807.907,1464.572Zm-18.66,21.467a.149.149,0,0,0,.136.006.177.177,0,1,0-.136-.006Zm-14.8,11.724c.278.686.9.365,1.217.78C4775.568,1497.755,4775.059,1497.73,4774.442,1497.763Zm15.072-13.311c-.017.408-.032.831-.046,1.146C4789.87,1485.3,4789.764,1484.877,4789.515,1484.452Zm-16.977,13.093.8-.155C4773.073,1496.96,4773.073,1496.96,4772.538,1497.545Zm32.724-26.208c-.137.313-.276.633-.408.938.162.174.2.243.236.243a1.5,1.5,0,0,0,.281-.024c.222-.131.188-.345.21-.549A.558.558,0,0,0,4805.261,1471.337Zm-5.089,37.867c-.339.027-.479.142-.5.4C4800.014,1509.771,4800.1,1509.56,4800.172,1509.2Zm28.177-36.336c-.013.374-.023.743-.036,1.1l.773.827,1.087-1.016c.189-.784-.525-1.1-.906-1.6C4828.819,1472.3,4828.639,1472.656,4828.349,1472.868Zm-2.672.715.108.116c-.027-.648-.254-.857-.63-.947-.071.377.239.512.5.847Zm-65.854-6.1c-.619.266-.425.681-.359,1.1A.88.88,0,0,0,4759.822,1467.481Zm68.254,9.762c-.617-.581-1.239-1.155-1.881-1.7,0-.083-.007-.162,0-.232.019-.377.033-.752.049-1.119l-.457-.489c0,.037.01.059.01.1a1.406,1.406,0,0,0-.135-.2l-.575.537a2.124,2.124,0,0,1,.156.624c-.436-.342-.881-.671-1.346-.975l-.27.253c-.436-.012-.5-.531-.843-.64-.194-.039-.253.115-.357.2a17.241,17.241,0,0,1,2.664,2.2,2.718,2.718,0,0,0,.259.291,1.651,1.651,0,0,0,.68,1.15c.181-.233-.041-.437-.086-.648a4.62,4.62,0,0,1,1.709,1.644c.337.007.575.01.907.015a6.07,6.07,0,0,1,.71.776c.582.881,1.639,1.2,2.3,2,.283-.126.108-.387.18-.581l-2.04-2.185c-.129.082-.243.149-.387.239-.693-.17-.518-.742-.516-1.249Zm33.789-21.2c.185.039.262-.034.234-.219C4861.92,1455.789,4861.842,1455.862,4861.865,1456.045Zm-61.234,53.32a.523.523,0,0,0,.237.58c.5-.014.917-.023,1.28-.032C4801.819,1509.433,4801.03,1510.033,4800.631,1509.365Zm-13.077-5.527a2.607,2.607,0,0,0,1.963,1.048c.562-.034.636.85,1.21.442-.511-.971-1.714-.875-2.427-1.559A.631.631,0,0,0,4787.554,1503.838Zm3.6,1.091-.428.4.767.821c.248.092.371-.149.617-.226.608.7,1.618.683,2.346,1.245a.462.462,0,0,0,.589-.077c-.406-.812-1.507-.772-1.876-1.587C4792.3,1505.9,4791.712,1505.366,4791.156,1504.929Zm-11.313-4.58c.253.486.719.354,1.261.4.663.957,1.853,1.371,2.849,2.055.33.228.828.062,1.293.313.426.226.7.592,1.064.791.293.09.436-.395.721-.143.167.146.312.309.523.077-.429-.693-1.232-.869-1.833-1.329-.13.07-.262.145-.45.247-.919-1-2.375-1.314-3.248-2.46A9.945,9.945,0,0,0,4779.842,1500.349Zm15.2,6.742c.309.147.341.806.9.488C4795.639,1507.432,4795.607,1506.771,4795.045,1507.091Zm.426-23.4c1.148.964,1.746,2.3,3.159,2.71.1-.14.158-.21.277-.367C4797.949,1485.115,4797.267,1483.849,4795.471,1483.691Zm25.065-6.142.808.865c.127-.074.292-.132.286-.173-.07-.6-.349-1.2.3-1.767C4820.538,1476.177,4821.091,1477.391,4820.537,1477.549Zm5.934,2.163a.385.385,0,0,0-.432.279c-.059.217.126.285.251.469C4826.8,1480.225,4826.865,1480,4826.471,1479.713Zm-27.674,28.77c-.021.323.126.481.448.479C4799.268,1508.641,4799.12,1508.482,4798.8,1508.482Zm-2.849-.9h0l.739.792c.373.179.974-.1,1.481.439-.259-1.019-1.425-.8-1.6-1.543C4796.2,1507.208,4796.125,1507.481,4795.948,1507.578Zm6.7,2.879c.182.038.261-.036.235-.22C4802.7,1510.2,4802.622,1510.273,4802.648,1510.457Zm-29.021-43.951a.276.276,0,0,0-.015.461A.276.276,0,0,0,4773.627,1466.506Zm0-1.733a.886.886,0,0,0,.031.811.457.457,0,1,0,0,.009c.133-.145.265-.285.37-.4C4773.981,1464.916,4773.869,1464.778,4773.63,1464.773Zm.014,1.272a.276.276,0,0,0-.016.461A.276.276,0,0,0,4773.644,1466.045Zm1.37-3.294c-.266-.024-.4.1-.485.38.07.088.153.193.239.3,0-.025,0-.043,0-.068a1.973,1.973,0,0,1,.113.2c.142-.153.272-.3.416-.453C4775.179,1462.962,4775.091,1462.848,4775.014,1462.751Zm8.007-4.794c.182.039.262-.035.235-.22C4783.075,1457.7,4783,1457.774,4783.021,1457.957Zm-8.14,5.616c-.039-.049-.073-.094-.112-.139-.023.782-.036,1.3-.049,1.792l.487.521c.176.021.215-.043.184-.19a5.545,5.545,0,0,0-.506-1.989ZM4762.9,1478.2c.086.262.164.5.245.736l.29-.27C4763.432,1478.393,4763.3,1478.27,4762.9,1478.2Zm18.658-17.815c-.163.365-.7.458-.707,1.015,1.164-.587,1.42-1.742,1.771-2.8l-1.034.966C4781.573,1459.846,4781.562,1460.118,4781.554,1460.389Zm-7.884,6.922a.176.176,0,1,0-.137-.007C4773.545,1467.329,4773.654,1467.332,4773.669,1467.311Zm-13.583,11.455c.083.272.167.545.259.847a1.712,1.712,0,0,0,.789-.751l-.453-.485C4760.373,1478.369,4760.293,1478.645,4760.087,1478.766Zm8.739-16.1c.252.276.507.547.731.787.114,0,.178.018.2-.007.419-.383.834-.774,1.32-1.227-.428-.54-.13-1.071-.251-1.608l-.543-.582c-.658-.06-1.187.363-1.662,1.36-.151.228.229.344.174.59a3.1,3.1,0,0,0-.027.568A.442.442,0,0,0,4768.826,1462.663Zm6.469-1.055a.392.392,0,0,0-.479.448A.392.392,0,0,0,4775.3,1461.608Zm-17.563,11.728a.226.226,0,0,0-.081.337.149.149,0,0,0,.136,0A.226.226,0,0,0,4757.732,1473.336Zm-16.2,13.348c-.373.293-.7.641-1.033.952-.015.355-.028.687-.049,1.136a4.4,4.4,0,0,0,1.19-1.339,6.154,6.154,0,0,1,.981-1.465l-.275-.294C4741.667,1485.7,4741.882,1486.405,4741.531,1486.684Zm17.977-18.127-.572.533a2.66,2.66,0,0,0,.047,1.291l.592-.552C4759.222,1469.431,4759.736,1468.983,4759.508,1468.557Zm-.524,1.825a4.445,4.445,0,0,0-1.253,2.951C4758.53,1472.512,4759.36,1471.7,4758.984,1470.381Zm6.257-5.589c-.063-.115-.127-.235-.242-.446.858-.542,1.062-1.67,1.983-2.2a.823.823,0,0,1,.061-1.078c-1.122.461-1.474,1.533-2.182,2.319l.222.363c-.045.448-.672.542-.706,1.116-.019.3-.56.573-.9.886l-1.128-1.208-.98.914c.009.426.407.827.33,1.494a3.685,3.685,0,0,1,1.333-.689,1.252,1.252,0,0,0,.868.243C4764.625,1466.126,4764.807,1465.364,4765.241,1464.792Zm-7.667,9.63-1,.931c.1.146.186.266.269.38C4757.673,1475.6,4757.552,1475.03,4757.574,1474.422Zm-.166-.291a.226.226,0,0,0,.053.343.229.229,0,0,0,.082-.337A.144.144,0,0,0,4757.408,1474.131Zm29.432-16.648c.442-.025.575-.4,1.027-.65C4787.161,1456.75,4787.068,1457.206,4786.839,1457.483Zm-5.6,11.7c.025.346.053.719.081,1.114-.019,0,.132.04.14.019.186-.4.755-.272.916-.619.235-.5.63-.071.892-.223a3.691,3.691,0,0,0,.55-.446c-.052-.39-.317-.505-.484-.7-.39-.077-.451.434-.827.435-.1-.071-.227-.158-.36-.253C4781.731,1468.553,4781.581,1468.963,4781.236,1469.186Zm6.908-.041a3.063,3.063,0,0,0-1.5-.462l-1.041.972a7.727,7.727,0,0,1,.751,1.557,2.356,2.356,0,0,0,.838-.026.915.915,0,0,1,.7-.132C4787.73,1470.37,4788.251,1469.83,4788.144,1469.145Zm-22.71,24.836c.18.039.261-.036.234-.219C4765.487,1493.722,4765.407,1493.8,4765.434,1493.98Zm31.049-27.988c.034-.16-.032-.23-.194-.208C4796.256,1465.945,4796.321,1466.015,4796.483,1465.992Zm-2.1-3.267c.022.6-.762,1.193.069,1.7.139-.207.381.012.582-.131-.068-.149-.149-.328-.252-.557l.738-.688c.015-.442.029-.816.042-1.269C4795.017,1461.978,4794.741,1462.435,4794.378,1462.725Zm-18.43,17.387c-.483.181-.185.747-.5,1,.183.337.5.171.748.261.271-.255.63-.406.7-.788a.522.522,0,0,0-.475-.254A1.728,1.728,0,0,1,4775.949,1480.112Zm17.645-14.879c-.005.264-.011.534-.018.854l-1.453,1.357c.035.372.078.793.134,1.347l.3.319c.33.042.549-.369.892-.2.117-.242-.142-.351-.188-.542.422-.5.49-1.22,1.043-1.582-.141-.234-.217-.366-.312-.521l.515-.588a1.535,1.535,0,0,1-.076-1.224Zm-5.394,9.717c.179.038.26-.037.234-.219C4788.253,1474.691,4788.173,1474.767,4788.2,1474.949Zm.268-1.142c.183.036.262-.037.235-.22C4788.523,1473.55,4788.444,1473.623,4788.468,1473.808Zm7.792-7.214c.032-.16-.033-.229-.194-.208C4796.033,1466.546,4796.1,1466.615,4796.259,1466.594Zm-29.651,27.18c-.34.028-.479.142-.5.4C4766.45,1494.34,4766.538,1494.132,4766.608,1493.773Zm-13.349,3.925-.708-.758-1.075,1c-.006.193-.014.411-.024.637.224.129.285.518.608.461s.433.294.727.27l.514-.48C4753.292,1498.518,4753.275,1498.141,4753.259,1497.7Zm20.277-24.185c-.054-.691.14-1.174-.23-1.684C4773.09,1472.775,4773.09,1472.775,4773.536,1473.513Zm.051-4.134c-.239-.012-.359.118-.436.391.1.124.222.272.344.426a.273.273,0,0,0-.009.451.278.278,0,0,0,.015-.462l0,.005A.876.876,0,0,0,4773.587,1469.379Zm-5.316,25.737a.23.23,0,0,0-.34-.079c-.021.013-.025.121,0,.135A.226.226,0,0,0,4768.271,1495.115Zm5.216-24.466a.224.224,0,0,0-.081.338.152.152,0,0,0,.135,0A.226.226,0,0,0,4773.488,1470.65Zm-10.668,18.15s0,.14,0,.221c.268-.005.48-.192.358-.393C4763.023,1488.372,4762.964,1488.772,4762.82,1488.8Zm.292-.285a.2.2,0,0,0,.069-.3.133.133,0,0,0-.119-.006A.2.2,0,0,0,4763.112,1488.515Zm139.256-69.782a4.18,4.18,0,0,0,1.022-2.772c.574.242,1.183-.312.732-1.109-1.433-2.536-4.549-3.749-7.039-1.792a4.134,4.134,0,0,0-.554,6.408C4898.234,1421.173,4900.94,1420.44,4902.368,1418.733Zm-27.241-60.194c-.348-1.62-1.211-3.271-2.558-3.759-.159-.253-.43-.616-.667-.49-.112.061-.137.192-.119.347a3.207,3.207,0,0,0-1.541.395,9.69,9.69,0,0,0-1.744,1.167,3.917,3.917,0,0,0-.958.856c-.335.606.481,1.58.937,1.891a4.309,4.309,0,0,0,1.146.531.7.7,0,0,0,.165.108,4.847,4.847,0,0,0,3.6.276,2.769,2.769,0,0,0,1.367-.934C4875.03,1359.15,4875.257,1359.151,4875.126,1358.539Zm-102.708-52.285-.35.326c-.541.505.486,2.1,1.146,1.483l.35-.327C4774.1,1307.233,4773.079,1305.638,4772.418,1306.254Zm-22.908,18.976a8.652,8.652,0,0,0,2.939,4.9c1.784,1.337,3.841,1,5.661-.1.323-.2-.171-1.037-.3-1.217-.924-1.371-1.956-2.673-2.946-4a2.583,2.583,0,0,0-.411-1.041,18.3,18.3,0,0,0-1.307-1.39c-.119-.16-.219-.252-.29-.264-.915-.794-2-1.4-2.8-.756C4748.989,1322.224,4749.237,1324.057,4749.511,1325.231Zm-16.144,19.157c1.868,1.169,4.313,2.238,6.559,1.963.246-.029-.17-.909-.2-.976a8.128,8.128,0,0,0-1.4-1.855,2.784,2.784,0,0,0-.1-.344,1.8,1.8,0,0,0-.725-.947c-.381-.188-.785-.422-1.2-.645-.033-.018-.067-.036-.1-.056a4.3,4.3,0,0,0-1.806-.6,1.16,1.16,0,0,0-.595.145,2.839,2.839,0,0,0-1.135-1.862c-.454.014-.992.029-1.647.053l-.669.626a3.676,3.676,0,0,0,.032,1.045c.095.327.556.518.395.978.622-.116.78.47,1.184.74.3.053.4-.286.535-.347a.292.292,0,0,1,.336-.024c-.085.185-.16.368-.226.532C4732.432,1343.241,4733.02,1344.173,4733.367,1344.388Zm-1.029,95.319c-.773,1.011.051,2.948.406,3.954.117.33.653,1.117,1.118.775.944-.691,2.436-1.657,2.563-2.966a3.141,3.141,0,0,0-1.091-2.409c-.714-.764-1.315-.075-1.093.617C4733.577,1439.315,4732.814,1439.082,4732.337,1439.707Zm1.788-84.933a17.327,17.327,0,0,1,2.1,2.948q.667,1.04,1.4,2.046c1.275-.466,1.7-1.132,1.284-2-.545.255-.625.836-1.107,1.208.019-.533.038-1.069.058-1.676l.5-.469c-.1-.228-.187-.408-.312-.683a.785.785,0,0,0,.363.062c-.521-3.4,2.648-4.524,5.357-6.334q-.5-.383-1-.773c-.343-.262-1.021-1.249-.447-1.614,1.26-.8,2.294-1.814,3.532-2.57-3.211-2.278-4.736-6.556-.572-9.159,1.619-1.012,3.188,1.136,3.917,2.212a7.737,7.737,0,0,0,2.441,2.426.5.5,0,0,1-.062-.3c.323,0,.47.157.45.481-.039,0-.067-.01-.1-.014a7.807,7.807,0,0,0,3.477.782c3.355.082,7.25-2.571,2.418-6.3-.364-.278-1-1.221-.445-1.615,1.3-.918,4.276-.717,7.482-.449-.247-.708-.488-.964-1.875-2.2-.167.051-.272.267-.512.158-.3-.184-.016-.643-.338-.84.377-.683-.205-1.125-.42-1.656-.067-.165-.317-.309-.3-.445a2.664,2.664,0,0,0-1.118-2.333c.336-.112-.01-.383.389-.478a13.073,13.073,0,0,1,1.273,2.3c.235.717.893,1.142,1.03,1.879.071.388.551.062.765.448-.125.5.508.815.479,1.371.816.073,1.061.748,1.516,1.163a1.839,1.839,0,0,1-.589.657c1.171.1,2.367.2,3.519.257l-.383-.41c.408-.391.716-.868,1.337-.571a1.973,1.973,0,0,1,.446,1.024c2.142.02,4-.213,5.081-1.071a8.77,8.77,0,0,0-.343-2.41,30.212,30.212,0,0,0-4.038-8.7c-1.57-2.324-7.733-9.692-4-12.434,4.1-3.012,9.238,1.886,9.178,6.274a29.6,29.6,0,0,1-.45,3.432c-.486,3.737,2.632,3.117,5.063,3.042a7.1,7.1,0,0,1,.255-1.407c.029-.119.055-.172.23-.113l.437.469a1.83,1.83,0,0,0-.217,1.049,2.788,2.788,0,0,1,1.441.352,5.472,5.472,0,0,1,1.535,1.849,4.727,4.727,0,0,0,2.9,2.426c.016-.023.025-.048.042-.07.021.028.037.056.058.085,1.432.212,2.776-.822,3.759-2.471a9.587,9.587,0,0,0-1.084-2.922c-.788-1.42-1.841-3.074-1.683-4.766.184-1.979,4.617.2,5.215.447.514.214.949,1.166,1.221,1.56.545.795,1.1,1.589,1.656,2.381.75,1.071.549,1.544.954,2.5-.077-.21-.18-.649.049-.733,1.495-.557,4.3.843,5.9,1.373h0a4.319,4.319,0,0,1,2.019.526c2.976,2,4.688-2.308,5.273-4.354.507-1.776,3.118-4.849,5.25-4.481,3.931.678,1.8,7.392,1.261,9.571-.367,1.485-.772,2.951-1.168,4.425-.978,3.629,2.613,5.005,5.3,4.99-.022-.041-.045-.084-.066-.126l-.405-.031c0-.094.041-.2.005-.282a2.535,2.535,0,0,0-.572-.752,3.08,3.08,0,0,1-.838.248l-.882-.944c.009-.277.027-.546.027-.818,0-.226-.435-.4-.093-.674.172-.285.55.081.733-.253-.068-.5.476-.727.6-1.172-.5-.328-.431-.915-.661-1.37l.521-.609c-.081-.134-.16-.263-.246-.4a4.9,4.9,0,0,1,3.017-2.85c.121.078.247.16.375.241a3.007,3.007,0,0,1,1.93-.319,1.7,1.7,0,0,1,1.654,1.035,9.2,9.2,0,0,0-.161,1.326,1.183,1.183,0,0,1,.591-.131c.447.105.874-.324,1.362-.108.014-.167.025-.3.038-.435.544.175.837-.66,1.635-.2l1.042,1.116c.23-.049.334-.277.556-.186.084.073.145.193.27.2a45.228,45.228,0,0,1,2.423-6.412c1.573-3.44,4.342-5.686,6.554-2.619a.8.8,0,0,1,.749.548c2.486,5.279-1.769,10.793-5.968,14.708a5.023,5.023,0,0,0,.81.829c.458.335.292.966.767,1.29.941.64.026,1.687.51,2.393l-.4.374c-.261.1-.3-.088-.5-.223-.367.385-.953.424-1.408.773a11.112,11.112,0,0,1,1.464,1.159c.254-.409.509-.821.761-1.224-.171-.179-.3-.289-.233-.527a9.332,9.332,0,0,1,1.761-1.422c.105.959-.983,1.566-.4,2.469a3.694,3.694,0,0,0-1.258,1.327c2.146,1.5,4.483,2.874,6.239,1.942a.578.578,0,0,0-.031-.067c-.207-.456-.559-.242-.788-.434-.235-.626-.226-1.386-.8-1.842.559-.844.926-1.729,1.8-2.126.451-.344.675.2,1.041.211.334-.352.69-.582,1.146-.372.7-3.777.641-7.944,5.706-7.9.5.005.926.625.959,1.083.358,4.876-1.716,10.343-2.516,15.137a.528.528,0,0,0,.233-.157,12.869,12.869,0,0,1,.942-.894c.318-.3.9-.595.9-.888-.01-.692.617-.376.827-.692a6.822,6.822,0,0,1,.926-.9,2,2,0,0,0,.472-.611,6.2,6.2,0,0,1,1.992-2.115c.435-.24.25-.8.627-1.046.261.011.542.085.716-.272-.069-.156-.147-.34-.261-.6,1.674-1.563,3.386-3.135,5.06-4.742a3.992,3.992,0,0,0,1.289-1.559,1.437,1.437,0,0,1,1.478-.914c.036-.21.021-.337.076-.412,1.16-1.554,2.811-2.625,4.07-4.062-.1-.223-.179-.4-.258-.585.5-.467.952-.939,1.454-1.35,2.633-2.136,4.591-4.947,7.148-7.122a1.911,1.911,0,0,0-.172-1.156c.264-.063.322.129.4.187,2.424-.547,3.821-2.516,5.537-3.948.311.112.423.259.381.51a.966.966,0,0,0-.725.209c-.831.542-1.1,1.53-1.806,2.163-1.067.95-1.693,2.306-2.885,3.152-.19.135.027.539-.311.654-.988.235-1.488,1.132-2.232,1.708-.071.057-.1.172-.2.364.012.165.03.432.043.619-.179.391-.5.2-.7.315-.022.167-.044.32-.081.575a1.067,1.067,0,0,0-1.25,1.159c-.267,0-.427,0-.7,0,.042.712-.539,1.045-.988,1.475-.59.56-1.159,1.146-1.789,1.661-2.539,2.076-4.365,4.857-6.933,6.9.1.235.177.418.277.661-.334.313-.8.583-1,.984-.219.432-.819.578-.855.808-.12.832-.825,1.1-1.288,1.569-.515.523-.663,1.285-1.316,1.734a18.561,18.561,0,0,0-1.914,1.753c.042.194.1.5.222,1.049-.515-.171-.821-.274-1.131-.379a1.032,1.032,0,0,0-.4.993c-.483.542-1.237.865-1.3,1.705-.627.081-1.12.271-1.149.982l-.845-.03c-.011.152-.024.3-.038.458-.288.1-.389-.371-.773-.2-.226.748-1.326.631-1.748,1.215a1.97,1.97,0,0,1,1.406-.34l-1.739,1.624c-.066.474-.127.95-.183,1.427a1.052,1.052,0,0,1,.517-.358c.191.008.352.013.626.021-.3.359.106.533.139.775-.12.3-.227.566-.33.831-.177-.085-.355-.171-.521-.25-.251.045-.353.349-.578.418-.078.922-.129,1.846-.136,2.769.015,0,.029,0,.042,0,.013-.133.026-.284.039-.438.328-.037-1.381,1.958-1.072,2.2.364-.028,2.652-1.747,3.027-1.775l1.435,1.536c.309-.029.633.12.905-.174.23-.245.423.464.7.1.016-.135.029-.233.045-.369.19.1.367.192.6.311l1.3-1.213.449.015a3.429,3.429,0,0,1-.762-1.955,4.739,4.739,0,0,1,.729-2.389,20.317,20.317,0,0,1,2.695-3.671.193.193,0,0,1,.188.046c.134.075.259.155.381.236a.254.254,0,0,1,.038-.131c.015-.023.121-.017.135,0a.217.217,0,0,1,0,.239,6.951,6.951,0,0,1,1.208,1.064.1.1,0,0,1,.117-.04c.34.092.618.658.73.947q.094.259.174.512c.159.276.312.564.456.866.034.073.323.837.005.753a.535.535,0,0,1-.221-.131c0,.108-.011.214-.017.322.286.19.437.6.823.452.333.684-.355.877-.472,1.333-.149.58.581.757.452,1.294a3.14,3.14,0,0,0,.011.807c-.448.013-.5-.459-.84-.367-.368-.074-.734-.151-1.024-.211-.769.975-2.079,1.071-2.667,2.237.984.34.068,1.345.636,1.737-.217.589-.381,1.048-.545,1.5a17.258,17.258,0,0,1-1.556.891c.171,1.547.54,2.23,1.034,2.4a2.213,2.213,0,0,1,.414-.126,3.444,3.444,0,0,0,1.131-.4c1.415-1.021,3.119-3.021,4.412-2.615,2.775.876,1.619,5.487,1.331,7.393-.026.176-.567,3.687.234,3.439a5.386,5.386,0,0,1,2.067-.3,2.731,2.731,0,0,1,2,1.744c.618,1.684.464,2.428-.641,3.884-.772,1.023-2.014,1.846-2.158,3.227-.325,3.044.416,3.85,1.458,3.656a1.577,1.577,0,0,0,.17-.511c-.368-.289-.115-.81-.422-1.12.359-.475.984-.733,1.072-1.414l.572.365,2.338-2.183c.723.7,1.844-.418,2.414.692l.6-.324c.115.572.679.487,1.152.754-.238.767.627.959.864,1.538-.555.532.474,1.446-.453,1.9a1.6,1.6,0,0,1-.549.963c.085.142.178.276.259.424.2.357.33,1.034-.2,1.154-3.993.893-10.882,4.566-6.4,9.5,2.147,2.37,6.24,2.936,9.241,2.466,2.382-.373,5.268-.935,6.572,1.568,1,1.914-.873,6.546-3.037,6.956-3.45.653-7.4-3.171-9.91-5.085-.264-.2-.516-.381-.759-.544-.108.1-.237.184-.36.3-.6-.585-1.376-.241-2.086-.376-.13-.026-.238-.161-.335-.234-.015-.284.172-.392.333-.532-.792.148-1.475.88-2.135,2.44a7.822,7.822,0,0,0-.191,4.067c.23.25.464.5.707.743.574-.365.979.256,1.513.205l1.217,1.3c-.2.265-.63-.092-.748.2-.173.4.125.515.257.7a3.624,3.624,0,0,1-2.489-.957c.234.93.493,1.793.7,2.488.945,3.229,5.588,2,7.034,4.84,1.463,2.872-1.425,5.483-3.865,6.667a2.811,2.811,0,0,1-1.711.26,1.8,1.8,0,0,1,.087.622,9.865,9.865,0,0,0-.172,1.788,13.85,13.85,0,0,1,2.114,3.544,1.177,1.177,0,0,0-.922.127c.026.021.051.033.079.056,1.689,1.36,1.924,4.817,1.15,6.638-1.7,4-8.578-2.323-10.843-5-3.758,2.252-6,6.212-8.245,9.908a15.685,15.685,0,0,1,6.654,2.586c.754.582,1.493,1.19,2.225,1.809a.2.2,0,0,1,.164-.019.206.206,0,0,1-.021.142c1.769,1.5,3.493,3.07,5.227,4.585,1.241,1.083,3.334,2.678,3.6,4.475.03.211.07.474.108.77a1.582,1.582,0,0,1,.895-.308c.3.257.519.747,1.136.709a2.53,2.53,0,0,0,.3.861c.4.628,1.182.719,1.626,1.269a12.205,12.205,0,0,0,1.272,1.361c.459.418.365,1.178,1.012,1.45-.233.555.3,1.071.087,1.516-.256.54-.116,1.1-.274,1.607-.6.521-1.079,1.2-1.934,1.306-.983-.455-.964-.475-2.062-1.672a3.666,3.666,0,0,1-1.184-2.5l-.3-.009c-.193-.225.083-.284.187-.493a3.12,3.12,0,0,1-.361-2.167.8.8,0,0,1-.3-.371c-.115,1.356-.6,2.561-2.008,2.628-2.262.11-4.161-1.14-5.743-2.647a14.924,14.924,0,0,1-2.126-2.609,1.594,1.594,0,0,1-.085.177c-.361-.082-.773-.18-1.376-.317l-.677-.725c-.143-.5.247-.758.222-1.125-.13-.219-.449-.311-.429-.643l.5-.472a25.579,25.579,0,0,0-3.5-5.19,13.063,13.063,0,0,0-5.6-3.915c-3.207-.96-5.837,2.9-5.013,5.58.811,2.634,2.188,4.629,1.777,7.491-.606,4.2-3.443,5.933-5.4,1.859-1.212-2.537-1.44-6.776-5.062-6.252-3.941.568-7.731,4.573-4.791,8.97.815,1.215,1.99,2.188,2.9,3.348.138-.143.254-.314.511-.3l.493.528c-.119.264-.232.512-.349.771.042.076.09.147.129.226,1.091,2.205,1.861,10.478-2.652,8.293a6.506,6.506,0,0,1-2.071-1.807,2.1,2.1,0,0,1-1.006.466c-.521.111-1.054-.494-1.572.028-.021.021-.172-.08-.259-.131-.708-.42-1.489.276-2.2-.148-.211.291-.646.4-.694.819.067.182.354.278.15.524-.4-.094-.544-.491-.757-.665-.771-.046-1.471-.09-2.125-.131l-.732.684a3.626,3.626,0,0,0-.013,1.467c.269.573-.132.863-.165,1.309-.51-.217-.4-.6-.332-.871.111-.476-.467-.573-.445-.978.163-.193.33-.387.537-.633-.167-.2-.33-.4-.516-.627.087-.168.178-.346.272-.522a3.842,3.842,0,0,1-.413-1.544c.026-.417.548-.445.492-.852l-1.1-1.176c0-.327.007-.647.01-.945-.141-.244-.474-.334-.427-.686l1.485-1.388c-.168-1.057.117-2.262-1.1-3.174.37-.022.513-.031.657-.038.047-.684.33-1.351.368-2.037a3.319,3.319,0,0,0-.737.187c-1.618,2.186-3.522,5.175-4.057,5.69a4.57,4.57,0,0,1-5.637.4,7.687,7.687,0,0,1-1.685-2.219c-.431-.729-4.621-6.883-4.806-5.2-.449,4.081-.9,7.78-4.941,9.674a.869.869,0,0,1-1.072-.513c-1.2-2.773-1.878-6.02-3.727-8.258l-.3-.01c-.064.535.11,1.208-.766,1.37-.159-.324-.612-.477-.645-.974.318.052.581.064.745-.384-.372-.33-.6-.9-1.33-.8a6.866,6.866,0,0,1-.031-1.045,7.28,7.28,0,0,0-1.119-.454c-3.282-1-4.47,2.484-7.594,1.364a5.305,5.305,0,0,1-2.018-1c-1.689-1.759-2.915-1.186-4.983-.6-1.429.405-3.21.8-4.372-.149a1.313,1.313,0,0,0-.668.685c-.318.879-1.109,1.209-1.662,1.946-.3-.608-.96-.49-1.09-.7l-.239-1.6,1.283,1.374c.418-.1.4-.351.4-.586a1.022,1.022,0,0,0,1.063-1.018.7.7,0,0,0,.719-.274,2.818,2.818,0,0,1-.554-.812c-1.035-2.267.636-3.407.225-5.714-.025-.108-.037-.218-.058-.326l-.507-.543-.6.229c-.166-.081-.278-.319-.678-.182l-.946.883c-.257-1.063.363-1.75.82-2.491l-1.769-.4c-.083.4-.178.788-.29,1.178a5.691,5.691,0,0,1-1.122,2.469c-.045.854-.236,1.007-1,1.095.006-.2.013-.41.02-.612-3.649,1.207-5.875-2.4-5.174-5.756a40.581,40.581,0,0,1,2.3-6.033q1.236-3.123-3.68-4.512a5.2,5.2,0,0,0-2.349.755c-.071.36.062.669-.133.917-.086,0-.14-.008-.194,0-.423.03-.552.486-.879.63-.435.193-.093.722-.49.946a3.628,3.628,0,0,0-.831.759c-.242.26-.655.4-.63.863.007.087-.074.18-.115.272-.367-.222-.353-.565-.32-.911-.487.92-.86,1.924-1.257,2.833-1.737,3.972-5.744,9.059-9.922,3.985-1.9-2.307.151-4.583,2.249-6.257-.048-.028-.1-.06-.144-.089-.384-.01-.491.581-.96.437a9.05,9.05,0,0,0-1-.2c-.639,1-1.6.834-2.324,1.254l-.948-1.015c.5-.985-.033-2.283,1-2.911-.424-1.167.412-2.161.083-3.171l1.467-1.37a2.729,2.729,0,0,1,1.61.259c.148-.138.262-.338.389-.348a5.71,5.71,0,0,0,3.463-1.909c.708-.675,1.4-1.37,2.146-1.993a2.577,2.577,0,0,0,1.042-2.7c-.242-.7-.9-.761-1.423-.881a6.456,6.456,0,0,1-1.249-.536c-.972-.437-1.474-1.335-2.317-1.991-.746.7-1.738,1.265-2.164,2.116-.474.938-1.307,1.379-1.911,2.1a5.331,5.331,0,0,1-2.426,1.608c-.132-.092-.191-.286-.412-.23-.2.143-.4.3-.646.473-1.711-.345-3.06.056-3.6,1.937.107.115.238.222.189.408a1.862,1.862,0,0,1-1.163-.227c-1.426,1.419-3.114,2.587-4.053,4.448l.438.47c-.293,1.247-.586,2.488-.872,3.693l-.705.658c-.208-.106-.386-.2-.592-.3-.5.746-1.521.67-1.909,1.325-.775-.2-1.417-.36-2.092-.537a3.333,3.333,0,0,1-1.281-2.047c.163-.186.331-.382.5-.576a1.3,1.3,0,0,1-.214-1.067l2.477-2.312c1.287-.562,2.463-.166,3.592-.266,1.444-1.2,2.694-2.5,2.923-4.485.308-.287.624-.58.933-.882.031-.028.016-.1.02-.169-.039-.179-.3-.293-.2-.527l.472-.008c.768-1.828.768-1.828.526-2.722l.473-.441a2,2,0,0,1-.02-1.073c-.058.037-.113.075-.175.108-1.615.84-3.82-.1-4.994-1.277a3.413,3.413,0,0,1-1.066-2.4,3.863,3.863,0,0,1,1.752-2.9c1.476-1.15,2.914-.312,3.909.94a8.178,8.178,0,0,1,1.391,1.557,3.749,3.749,0,0,1,.3,1.78c.912-.8,1.985-1.28,2.8-2.066a7.6,7.6,0,0,1,1.657-6.644,4.167,4.167,0,0,1-1.214.6,1.585,1.585,0,0,1,.187-1.036c-.2-.9-1.354-.667-1.569-1.564.629.331.783-.564,1.331-.4a.951.951,0,0,0,.994-.347,1.933,1.933,0,0,1,1.582-.477,3.466,3.466,0,0,0,1.266-.2,8.33,8.33,0,0,0-4.107-11.7,17.181,17.181,0,0,0-12.929-.1c-5.284,1.964-6.832-2.611-5.606-7.227.519-1.95,2.631-2.615,4.436-2.5l.077-.089c.055.034.11.071.165.107a50.707,50.707,0,0,0,7.486.439c-.114-.44-.041-.823.4-.69a15.882,15.882,0,0,0,1.654.426,6.725,6.725,0,0,0,4.843-3.409c-.429-2.584-3.667-5.585-6.024-5.416-1.833.132-3.537.784-5.4.642-2.03-.152-1.973-2.293-1.2-3.577,2.565-4.259,6.637-2.009,10.335-.837,2.249.714,6.92-2.529,5.151-5.277-1.229-1.9-3.63-3.185-5.5-4.366-.266-.167-.539-.333-.817-.5l-.146.039c-.184-.1-.249-.19-.265-.282-2.161-1.272-4.521-2.593-5.682-4.842-1.346-2.6-2.2-5.992,1.532-6.595A5.416,5.416,0,0,1,4734.125,1354.773Zm137.029,44.185a.4.4,0,0,1,.044-.023,2.961,2.961,0,0,0-1.088-.321C4870.559,1398.822,4871,1399.075,4871.154,1398.958Zm-4.653,19.89c-.157.473-.332,1-.492,1.554a1.32,1.32,0,0,1,.253.218c.411-.595.821-.735,1.31-.429A10.562,10.562,0,0,1,4866.5,1418.849Zm-44.437,42.056c.157.93-.311,1.908.149,2.838-.5.949-.181,1.977-.329,2.8.375.842,1.144.918,1.69,1.282.388.256,1.017-.056,1.555-.017a1.051,1.051,0,0,0,.968-.386,1.263,1.263,0,0,0,.158-.613,5.153,5.153,0,0,1,2.769.488c-2.2-3.616-4.331-7.993-7.085-8.473A11.293,11.293,0,0,0,4822.063,1460.9Zm-66.429-25.3a1.27,1.27,0,0,1,.033-.2c-.312.211-.608.429-.884.646C4755.212,1436.093,4755.612,1435.889,4755.635,1435.6Zm-2.7,2.582c.588-.666,1.444-1.109,1.71-2.029-.1.08-.2.16-.292.237A6.223,6.223,0,0,0,4752.935,1438.185Zm-6.375-4.959a2.523,2.523,0,0,1,.657,1.765,1.821,1.821,0,0,0-.732,1.4,1.392,1.392,0,0,1-.2.8,10.4,10.4,0,0,0,4.474-8.577l-.061.057c-.995.923-1.966,1.87-2.982,2.769A3.026,3.026,0,0,0,4746.56,1433.226Z" transform="translate(-4671.537 -1244.389)" fill="#0201fe"/></svg>